<svg id="lmpMap" class="is-full" xmlns="http://www.w3.org/2000/svg" width="100%" viewBox="100 140 1200 1200" xmlns:xlink="http://www.w3.org/1999/xlink">
    <script>
        var svg = document.getElementById("lmpMap");
        svg.onclick=function(event){
            if( svg.getAttribute("class") == "is-full" ) {
                svg.setAttribute("class", "is-zoomed");
            } else {
                svg.setAttribute("class", "is-full");
            }
        }
        function showImg(id) {
            document.getElementById(id).setAttribute("class", "is-visible");
        }
        function hideImg(id) {
            document.getElementById(id).setAttribute("class", "is-hidden");
        }

    </script>
    <style>
        #lmpMap {
            font-size: 16px;
            font-weight: 400;
            font-family: "Raleway","Helvetica Neue",Helvetica,Arial,sans-serif;
        }
        .is-full {
            cursor: zoom-in;
        }
        .is-zoomed {
            cursor: default;
        }
        .svg-map {
            transition: transform .75s ease-in-out;
        }
        .is-zoomed .svg-map {
            transform: translate(-5380px, -6950px) scale(12);
        }
        .svg-land {
            fill: #F0EDE5;
            stroke: #7F7E7A;
            stroke-width: .4;
            stroke-linejoin: round;
            stroke-miterlimit: 10;
        }
        .svg-text {
            fill: #2678B0;
            font-size: .3em;
        }
        .svg-text-alt {
            fill: #7F7E7A;
            font-size: .25em;
        }
        .full-labels,
        .zoomed-labels {
            transition: .75s;
            visibility: visible;
        }
        .is-zoomed .full-labels {
            opacity: 0;
            visibility: hidden;
        }
        .is-full .zoomed-labels {
            opacity: 0;
            visibility: hidden;
        }
        .svg-link {
            fill: #2678B0;
            transition: fill .3s;
            /*cursor: pointer;*/
        }
        .svg-link:hover {
            fill: #a63446;
        }
        .svg-btn {
            opacity: .4;
            cursor: pointer;
        }
        .svg-btn:hover { opacity: .6; }
        .is-full .svg-btn--minus,
        .is-zoomed .svg-btn--plus {
            opacity: .2;
            cursor: default;
        }
        .is-hidden {
            visibility: hidden;
            opacity: 0;
            transition: .3s ease;
        }
        .is-visible {
            visibility: visible;
            opacity: 1;
            transition: .3s ease;
        }
    </style>
    <g class="svg-map">
        <g class="svg-land">
            <path d="M748.224 570.132l.34 1.998-5.033 1.799-.045-3.403 3.875.527-.807-2.283 1.67 1.362M141.733 824.669l-1.235.889 1.235-.889M790.22 718.554l-3.164.459-1.172 2.488 6.119-1.558-1.783-1.389M578.687 735.449l-4.764 2.093 6.408.981 2.375-1.477-4.019-1.597M451.459 1290.664l-.895 1.345 2.968.418-2.073-1.763M451.925 1287.361l.441-3.309-3.831-1.34.423 3.315 2.967 1.334M448.8 1272.015l.138-4.998-4.07 6.068 3.932-1.07M884.097 1243.027l-3.246-.453-3.295 3.431 6.541 1.514v-4.492M531.146 1221.091l-4.083.641-.624 2.213 6.453-1.391-1.746-1.463M534.567 1216.738l-1.039 3.885 1.474.769 1.506-2.615-1.941-2.039M761.966 910.734l-8.834 4.035 1.752 2.92 7.309-2.734 1.865-2.495-2.092-1.726M821.246 871.498l-6.592 2.228.599 3.428 5.274-2.02.719-3.636M787.308 693.583l.617-2.722-3.332-3 2.715 5.722M785.759 631.518l3.729.981.996-1.77-5.483-3.027-5.669 1.847 6.427 1.969M780.931 625.634l-13.457-2.222 2.078 3.483 6.666 1.769 4.713-3.03"/>
            <path d="M765.759 624.561l2.463-4.407-5.67-1.904-.226 6.611 2.136 3.201 2.192-.687-.895-2.814M758.884 617.313l3.41-.14-5.72-2.813 2.31 2.953M651.285 510.163l-5.437 1.042-1.721 2.293 6.074-.186 1.084-3.149M464.943 388.591l-1.626-6.31-4.776 3.539 5.463 5.801.939-3.03M598.03 652.937l-.441-2.629-2.293.012.806 3.296 1.928-.679M486.631 730.46l-1.336-2.988-5.003 1.615 5.003 10.35-.347-7.875 1.683-1.102M549.293 811.966l-4.833 1.994-1.121 2.866 5.387.841.567-5.701M573.444 720.037l-3.699-4.118 1.985 8.965 2.288-1.074-.574-3.773M424.542 1288.304l-1.122-3.373-2.583-.717 2.117 10.008-.479 9.463 3.642-8.553-1.575-6.828M571.522 1197.306l-8.543-1.615-4.14 2.148-2.999-5.097-10.592-2.641-10.586 6.469-2.608 4.258 4.82 5.935 5.746-3.002 5.633 2.805 11.36-4.25 2.628 5.527 2.382 1.035 9.829-7.025.139-3.084-3.069-1.463M558.813 1211.88l-4.227-2.152-2.155 3.229 2.097 1.537 5.344-1.053-1.059-1.561M590.671 1145.951l-.945-1.17-2.647 3.199 2.621 5.535.971-7.564M439.147 839.015l-2.898-7.849h2.634l-1.154-1.809-4.858.211.92-11.975-5.507.362-2.092-5.133 1.008-10 4.247-.274-4.341-8.05 3.925-14.493-1.134-2.836-2.281-.197-1.625-6.574-5.917 8.65.265 6.78-3.176 3.224 3.422 5.073-1.305 5.201h-2.942l-3.276-3.68-.586 3.033 2.57 5.002-2.684-1.719-.46 1.725.366 5.311 2.778.062-.416 4.33 7.864 3.688-1.323 2.75 2.154 4.996-1.738.406-8.658-7.563-1.581-4.306-2.691.25 1.052-4.551-5.355-.711 2.715 3.988-2.646 3.174 3.307 1.908.606 4.329 3.327-.081 2.173 3.872-2.003 10.519-2.193 2.553-3.1.135 2.117 3.763-11.058 9.463-1.153-7.849-2.684 1.664 1.626 3.232-2.685 2.686-5.425-.475-1.978 3.166 4.455.631-.713 3.137-5.809 2.154.668 3.699-1.916 2.018-9.124 1.634 1.286 8.295-2.419 2.729-1.676-.574-.606-5.869-3.805 7.482-5.11 3.127.888 1.719-10.642 15.767-13.194 9.127-2.117 5.674-9.017 8.545-1.814 4.426-4.594 2.924v3.273l-10.094 8.658-1.058-2.687-6.584.486-2.943 4.541-6.383 4.117-1.713 5.783-8.236 1.579-17.031 22.441-4.612 2.074-8.677 10.774-5.664 21.416 11.94-10.475 12.999-2.801 4.083-12.158 14.693-2.293 12.004-10.996 7.996-4.561 9.546-19.168 17.654-4.902 10.29-9.504 13.263-20.195 2.022-.639 2.685-6.871 2.041-.189-1.039-2.299-2.061.336-1.19-6.537 2.223-.385.46 2.91 3.271.732.529-4.257-2.646-7.825 1.833-3.673 32.682-9.629 6.945-16.159 7.144-6.521 6.566-2.705 8.733-.16 11.575-10.883-4.14-2.674M257.474 1014.724l-3.548.916.782 9.992 5.406-2.738-.328-6.594-2.312-1.576M251.078 1015.314v-2.203l-4.757 4.351.675 2.045 5.714-3.072-1.632-1.121M238.854 1035.597l-5.557-.328-2.401 2.736-1.587-2.736-.454 11.104 4.19 9.521 5.948-5.664-.139-14.633M245.263 1026.119l-.46 1.687 3.402.096-2.942-1.783M234.639 1034.777l2.911-1.418-1.758-3.906-3.837 2.586 2.684 2.738M460.696 834.982l-8.695-2.662-6.604 7.701 1.992.34.794 6.185 9.779-1.882-.48-5.918 2.634 3.224.58-1.609 2.627.328 2.099-2.674-4.726-3.033M454.27 763.13l-3.189.537.529 3.813-3.692-2.686-1.109 4.258-3.264-2.963-.97 1.391 4.234 4.258 1.903-2.102 2.898.537v3.768l2.861-4.904-.201-5.907M491.457 722.632l-2.502.498 2.086-4.537-4.316-4.308-2.174.287-2.211-6.846-.447 7.328-2.162 1.076-7.882-4.306 1.537-2.155-17.737-10.14-.334 4.228 3.226-.59-3.875 1.956-1.909 6.695 3.667-3.225 8.217 15.483 6.282.759 2.463 2.688 2.168-4.891 7.397 3.276 6.874-.582 1.632-2.694M466.468 733.39l-1.676-1.346 2.192-1.134-5.583-.438-3.068-4.058-2.174 3.261-2.911-1.127 5.293 9.198-1.588 1.076 2.117 3.818 2.326.768 1.379-2.383 2.156 1.068-1.588 5.387-2.168-1.617.819 5.541 6.2-3.512 2.545-6.328-3.163-2.154.852-2.973 2.57-.48-4.53-2.567M710.021 765.871l-2.324.115.736-1.192-2.154-1.127 3.277-2.304-.064-4.737-5.727 5.391-14.625 7.231-1.928-2.184 5.319-4.473-5.395-2.011-3.445-4.52-8.172-.51-1.588 5.428-3.396-2.039-.461 3.363-2.489 1.365-2.646-4.304-5.86-2.737-10.472-10.648-21.895-7.992-10.119-7.82-5.18 3.16-.604 5.871-2.723 3.928 17.857 3.527 1.758 5.258-5.066 28.172.259 22.302-8.369 19.047 3.705 10.119-4.057 10.92 1.336 5.951 5.116-.966 6.66-9.762 9.659-5.744 28.127-4.451 3.157-5.961 4.914-2.254 3.926.576 4.121-6.287-.674-7.93 5.67-4.168h4.803l1.058-2.734.963 2.195 6.012-5.834 1.002-4.221 5.185.914 1.79-2.433-1.381-6.617 4.404-16.873"/>
            <path d="M674.46 824.664l-3.169-2.157-10.341 12.178-.718 2.945 2.023 1.655-5.501 3.607 4.196 6.613 4.481-3.173.038 2.099 3.056-.881 4.057-4.867 3.888-10.562-2.01-7.457M741.306 817.078l-4.076-7.01-5.898-1.764-3.114 1.77-.144-2.629-4.782.539-6.351-3.818-3.58-.125-9.74 5.552-7.272 1.514-3.226 4.648 1.511 9.979-4.744 9.734-7.41 6.502 4.234 12.965.266 19.709-12.779 8.984-5.028 1.532-6.389-1.616-6.635 1.034L650 894.941l.573 11.301 2.155-1.125-.567 4.355 1.588-1.129 1.38 1.379 6.994 12.947 8.166 7.053 14.529 4.285 2.76 3.248.933 6.684 5.041 11.014 5.846 3.621 15.248-5.698 6.773-11.765.272-6.797-10.856-15.307-3.517-1.203 3.246-2.933-3.252-2.241 2.709-6.119-1.059-13.523 10.348-17.805 4.209-20.047 10.912-15.851 6.875-22.207"/>
            <path d="M777.919 816.833l1.639-3.472-1.053-14.621-2.929.586-1.362-1.664 3.233-4.159 2.08-8.134.51-2.819-2.248-.634-6.731 7.978 1.098 7.768-2.156-1.616-2.118 5.428 1.305 4.611-6.604 17.165-10.082 16.035.317 4.328-9.111 12.691-7.549 16.621-6.616 6.676-.919 4.977-1.829.045 1.715 5.996-3.402 8.851-3.945 21.885 1.033 7.838 11.758-11.065 9.47-25.14 2.11-1.569 1.822-13.877 10.92-12.832 5.808-1.712 8.073-6.178.521-3.987 1.022 1.563 1.707-1.189 1.469-16.079 1.63-1.07-2.646-12.424 2.06-6.801M758.847 789.64l-4.277-8.93-3.17 4.04 2.23 6.849 6.295.494-1.078-2.453M818.019 892.74l1.5-.545-2.205-3.783.969-4.868 1.205.514-.512-4.176-12.273-5.738-1.727-3.559-3.162 3.28-1.91-4.037-8.412.757-8.241 4.893-5.066 8.707-12.754 5.08-4.467 5.676-2.117 6.703 4.801 1.857.676 7.028 5.09 2.168 9.886 1.74 17.731-.895 9.004-4.07 1.468-4.461 5.45-4.197 1.588 2.199 5.873.244 2.154-5.086-5.746-4.707 1.197-.724M834.968 945.613l-5.859-3.973-4.783 2.467-.793 2.879 2.759 4.488 7.592 3.783 2.408-1.486.547-4.771-1.871-3.387M750.871 948.351l-1.104-2.73 1.557-2.649-4.782-4.756-13.232 8.526 6.969 5.611 5.508 1.254 5.494-2.367 1.48-1.635-1.89-1.254M351.325 1118.458l-2.117-3.222-6.427 2.283 1.387 2.828 4.486.86 2.142-.594-.794-2.711 1.323.556M484.06 1255.554l-2.457-.244-.455-5.566-2.053-.385-7 4.342-.814 2.445-9.451 2.867-11.077 7.252-.189 5.576 10.434-1.236 5.52-6.701 5.809.306 1.588-4.835 1.903 2.736 2.855-1.664.17 5.353 2.476 1.694 2.741-11.94M510.089 1167.75l-7.24 10.357 6.402-.174 2.092-6.156-1.254-4.027M642.376 1147.855l-17.813-8.469-9.792 4.996-9.148 1.289-1.179 3.284.593 2.078 4.688 1.424.39 5.642 5.419 4.627.945 3.127 17.529-3.643 3.617-9.464 7.731-2.534-2.98-2.357M941.945 896.017l-4.279-2.199 2.117-3.533-5.147-12.383-6.818 12.392 2.4 2.94-3.748 1.123 6.395 7.535-.535-1.617 6.074 1.277 4.498-2.277-.957-3.258M907.39 889.515l-2.947-3.656 1.939-8.766-2.306-4.597.662-3.522-2.231-.312.901-3.022-2.356-2.635 3.649-11.961-3.649-4.767-2.117 7.045-3.705-.59v3.758l-3.125 1.09 1.537 9.24-2.154-.584-1.463 7.754 1.992 3.636 5.859-2.148 1.588 2.424-2.634 3.889 5.796 5.57.43 3.93 2.777 1.173 1.557-2.949M872.886 857.089l-1.146-4.73-4.674-3.928-.359-13.389-5.715-7.888-8.242-4.059-.077-7.099 3.114-9.735-1.973-16.375 1.098-5.674-1.418 1.582-3.832-3.873.183-9.056-10.113-3.229-7.844 8.231-8.867 1.9-2.76-1.189-7.043-9.795-1.789 4.619-10.844-13.065-3.056.641 2.64 11.887 2.752 1.345-1.203 3.647 3.838 2.049 1.059 13.719-2.287 4.941 2.287 5.115-1.701 5.272 3.162-.09.781 2.525 5.23 2.322 3.737-4.552-1.022-4.086 5.633-1.475 12.117 14.231 1.715 11.279-5.06 20.328 4.384 7.459-2.047 11.01 1.135 2.681 7.926 1.336 11.531 9.039-3.158-28.453 3.934 1.35 3.623 10.654 4.838 3.432-.788-7.356 9.225 1.399 1.076-4.897"/>
            <path d="M906.861 792.035l-1.481-3.453-5.009-3.448.152 2.842-2.457.879-3.416-1.793.863-4.434 5.33-4.599.209-3.309-6.125-4.437-.756-2.803h-2.154l.768-2.461-5.002-9.469 2.646-7.041-1.463-4.429-2.431.543.541-2.78 2.824-.357-2.647-3.154-1.058-9.225 6.142-8.639-5.084-5.414 3.705-1.617-2.167-1.613 4.562-1.326-2.924-5.131-8.986-2.867.48-1.487-3.175 1.129.529-2.207-3.227 1.668-.152-5.541 2.85-2.578-6-7.85-8.198-6.232-4.422-.094-4.613 3.936-5.896-3.702-3.498 1.518-3.989-2.693 1.455 2.914-1.418 1.644-15.33 1.375-21.037-3.24-3.441 1.061-4.492-3.104-1.67.975-.561 2.943 8.871 24.539 7.928 9.776 5.896 3.701 8.557 1.664 6.289 10.119 4.871-.358-2.312 3.758 3.049 1.008 4.562 6.611 2.772 1.579 5.834-2.692 3.107 1.404.908 3.436-1.627-1.078-2.916 3.502-1.469 7.142-6.773 1.778.756 1.689-5.557 3.154 4.58 3.407 1.86-2.867 7.396 5.966-.467 10.748 13.27 1.938 5.766 13.633 5.437-4.522 6.227 3.537 1.472-.939.631 2.064 3.49-3.007 4.5 3.007.813-4.353 1.973-.879 2.808 3.033 3.983-2.449 4.222 2.57 1.045 5.305 3.17 2.103 1.481-2.334-5.18-7.593M627.267 613.322l1.058-3.806-5.532-1.604-3.554-5.155-2.312 2.129-2.968-1.645-1.588 1.712-3.913-3.357-3.207 7.932-.272 8.872 4.746 5.974 10.358 5.647 8.633-11.966.667-2.338-2.116-2.395M628.325 672.451l-9.244 5.8-.208 11.893-5.349 8.072-.258 2.873 6.3 4.612-1.159 3.488-1.814-2.205-.366 3.963 4.121 5.771.819-4.592 1.865-1.918 1.008 1.129-1.814-3.248 4.833-13.58 2.324-18.834 2.117-.531-3.175-2.693M641.053 677.248l-2.634 2.734 2.634 7.584 2.451-4.9-2.451-5.418M672.632 693.214l-4.291-6.437-11.688-.695-4.499 2.4.688 4.187 6.2 2.53 7.731 7.968 4.518-3.232 1.341-6.721M718.529 656.8l-1.418-2.594-7.883-3.129-9.318-15.013-3.688-2.006-.252 1.936-3.439 1.392 2.275 7.298 6.709 2.381 9.66 10.245 5.16 2.03 9.59 10.962-6.906-9.568-.49-3.934M757.789 695.363l-4.235-16.996-9.558-7.58-2.016 5.004 16.055 22.535-.246-2.963M778.505 740.734l.26-5.942-4.551-10.496 4.291 4.252-.357-1.316-12.44-18.639-3.162.537-4.171-3.629-.1 4.707-8.16-11.869-3.971-2.558-3.779 1.515 1.631-2.734-4.397-5.586-9.162-4.887-3.686.481-4.65 5.869 2.287-4.535-1.361-4.047 1.398-.182-9.425-3.427.599 10.099 2.401 3.227-4.286 15.41 5.873-.588.049 1.443-2.695 1.83 1.348 2.342-4.739 2.426-2.004 9.6-2.564 2.945.209 4.453 15.877-14.834 4.599-7.471 4.739-1.359 4.726 2.367 5.293 8.567 4.328.654-.869 2.213 4.617 3.754 1.053-1.03 1.016 2.149-2.641 2.103 2.42 2.164 8.727 1.069 11.795 9.195 3.629 5.606 1.367-1.459-1.362-4.389M806.615 577.369l-6.83-4.739-1.676 2.1-7.158-14.188-5.11 1.911-.99-1.269-1.6 7.044 1.02 13.447-1.701 5.768-6.301 5.948 1.65 5.011 10.87 6.551 4.947-6.012 3.238-.384 3.195 3.661 1.594-8.038 4.133-.606-1.449-9.696 2.168-.587-2.168-3.77 2.168-2.152M627.512 559.272l-10.894-9.735-2.898.385 2.986 6.17 16.401 10.709-.334-3.662-5.261-3.867M637.625 504.494l-2.962-.487.524-2.744-7.599-.408 1.203 2.921 9.363 5.56 1.147-2.421-1.676-2.421M619.818 487.716l-.018-2.203-5.974-1.072-2.652 2.181-3.831-1.642-1.38 2.621-.624 5.21 4.574 4.065.48 4.572 3.887 5.631-1.947 7.406 2.438 2.434 4.953-2.646 1.512-3.856-4.303-14.182 3.465-2.392-.58-4.511 3.693 2.202.372-1.661-4.065-2.157M617.172 174.547l-1.902-2.149-4.184 1.238-4.524 12.781 2.444.975 9.553-10.024-1.387-2.821M558.31 159.435l-1.601 7.041 4.234 5.429.561-4.951-3.194-7.519M572.052 181.004l-8.393 1.767-.069 1.462 9.88.882 5.5-2.45-6.918-1.661M582.713 148.088l-.737-5.74-9.358-.766-3.477 2.155 3.723 5.717 7.694 3.475 3.749-1.859-1.594-2.982M617.645 127.862l-5.967 1.43-.157 1.77 6.18 2.988 1.538-4.842-1.594-1.346M620.159 56.068l-3.39 2.193-3.396 8.391 3.799-1.128-.579-3.008 5.317-4.524-1.751-1.924M609.895 33.858l-1.658-5.358-5.374 10.658 3.365.324 3.667-5.624M607.142 67.294l1.562 5.694 2.432-3.145-3.994-2.549M436.066 798.25l-4.051-2.204v4.088l2.583 2.957 2.697-.539-1.229-4.302M434.598 787.976l-3.113 1.664-.22 2.74 4.461-2.259-1.128-2.145M803.654 828.082l-4.033-1.002-3.352 7.894 1.26 1.084 6.023-3.014.102-4.962M810.32 826.324l-4.444 2.347.057 2.803 7.713.527.92-1.906-4.246-3.771M874.525 884.869l-5.098-11.86-7.107-3.496.642 7.471 4.104 2.748 5.82 9.195 2.403-1.076-.764-2.982M531.19 1231.294l-2.86 3.209 5.733 2.768.524-3.113-3.397-2.864M611.842 1195.103l-9.736-3.445 6.277 5.918 6.622-2.473h-3.163M694.634 1088.726l-5.16-4.264-1.707 3.188-4.228-2.643-2.647 3.694.492 4.963 3.213 2.103 8.412-4.842-.478-2.689 2.103.49M912.941 1123.039l-.725-14.737-5.115-4.789-3.232 9.908 3.371 1.418 4.586 12.467 1.115-4.267M928.347 907.32L927 901.892l-2.944-.418-1.492 11.108 2.432 4.156 2.879-1.834.472-7.584M915.324 824.664l-4.764-.495-2.25-5.287-3.42.227-.246 4.131 6.604 4.127 4.453-.674-.377-2.029M820.677 759.363l-5.916-9.684-13.476.487 9.564 16.244 10.567-.994 1.228-3.637-1.967-2.416"/>
            <path d="M837.369 753.933l-1.996-4.144-4.393-2.897.611 5.596 7.045 9.006 1.908-5.407-3.175-2.154M973.171 1095.228l1.588-6.992-1.801-2.85 3.27-3.097-3.057-12.692 1.059-7.332-7.385-2.152-8.084-10.949.965-3.756 4.461-3.688-1.676-5.158 2.684-3.934-.529-11.398-7.567 4.178-1.777-2.162 3.855-6.172-4.328-4.268 3.68-3.822-.77-4.727 3.215-.834-.492-2.086-2.723-3.877-11.586-1.078.643 2.682-5.445-.481-3.711-6.269 6.756-6.397 4.396.245-1.58-3.817 5.103-2.73 3.516-6.696-2.533-8.115-10.36-10.777 3.17-16.756-12.539 4.699-4.75-6.197-.209-5.762-2.947 1.26-3.473-1.824 4.373-3.328.417-2.61-1.583 2.149L924 922.56l-6.59-3.533-15.905-5.84-2.57-2.885-1.639-8.41-10.043-5.385-4.707 11.182 10.889 37.379-1.758 15.031-5.842 2.801-10.017-1.098-7.979-7.261-2.4 6.232.744 10.359-6.301 3.637-14.763-12.951-8.198-1.209-2.142 3.021.472 18.715-3.212 4.938 2.111 5.875-1.582 7.58-6.975 1.924-2.06 3.455 1.625-6.508-5.803-.484-7.926-4.897-.789-3.309-4.971 1.334-6.502 7.356-4.65 14.973 1.002 3.425-3.283 5.373-20.391 3.553-22.644 16.106.642-5.784 6.428-1.752 8.922-8.31-2.961-22.672-6.654-12.236-11.002-4.983-2.741 6.926-4.605-3.129-.688-6.016-8.966-1.917 3.037 5.81-5.016 1.264-4.133 7.875-5.898 1.135-3.635-1.821-11.851 4.104-3.858 7.322.328 4.295-2.961 2.695 4.297 5.996-5.293 5.561-16.267 3.654-3.354-1.275-.982-2.565-3.157 4.385-15.519 3.311-14.422 6.808-11.361 16.494.661 13.203 2.514 1.139-5.885 5.922-2.734 11.652 1.267 4.571-9.105 7.082-2.76 6.117.088 6.549 2.948 6.164 7.814 4.851 6.251 1.653 2.771-2.498 6.894-13.487 2.86-15.384 7.133-6.166-1.902-6.288 7.119-7.044.284 3.328 1.853-1.825 1.398-4.384-4.026-.004.794-2.367 5.236-6.864 8.298-6.176 6.629-1.123 2.69 2.694 5.859.849-1.625 5.698 2.684 11.3-2.418-.625-.889 3.454 2.816 2.548 4.215-1.304 3.156-5.637 2.59 4.844 4.328 1.078 3.385-14.401 5.236-6.796 1.739 6.302 3.592 2.772-.739 2.926-3.842 1.298 1.008 4.686 3.326 2.535 4.663-3.398 2.824.304 4.787 7.86 6.881 4.078 2.074-3.145-.473-3.461-7.599-9.419.668-1.338 2.338 1.058.597-3.453 6.629-3.475.94-3.566-4.116-7.291 11.014-2.994 9.061 2.359 6.988 7.791 9.035.914 11.947 7.58 8.582 14.737 5.475.914-4.877 14.006-11.945 8.765-4.229 11.805-.75 10.479 2.488 3.646 3.045-1.074 1.487 19.463-1.772.81 1.701 8.254 11.362 17.016 29.752 15.685 1.539 2.393 27.705 10.539 8.164-.248 1.519-1.811 5.356-17.658 7.189 1.238 2.112 8.971-7.498 14.256 4.384 5.545 3.907 1.728 1.556 9.965 4.871.522 5.041-3.524 17.881-26.199 2.471-7.117.566-8.609-9.035-27.538-2.836-2.023-1.449.947-7.926-8.113.19 2.174-2.25-.051-2.162-6.727 2.011-10.843 5.967-7.991 2.268-8.064 7.246-3.078 3.162-3.502 1.853-12.447 10.731-7.416 3.584 1.193-.201 6.471 4.027 12.037 6.496 7.472-.24 6.731 3 4.264 4.41 1.912 1.234 25.879 8.141 18.195 4.412-36.375-6.586-12.535 1.582 1.617-.051-3.291 3.932.463 5.123 9.551 2.383.908.283-4.938-3.215-3.472.606-4.387 3.088-4.031 5.267 1.578 3.768-1.819.795-4.972 10.521-15.102.416-1.494-3.756-1.912M576.662 695.765c-.426-.145-.74-.32-.769-.779-.016-.242.018-.604.342-.422.213.119.799.166.705.549-.023.097-.22.672-.278.652zM572.475 698.501c-.353-.178-.159-1.369.057-1.23.2.129.092 1.312-.057 1.23z"/>
            <path d="M580.168 642.076c1.028-2.033 4.321-1.732 4.398-4.334.016-.302.114-1.377-.173-1.523-.948-.479-1.469-1.416-2.494-1.649-.507-.115-.826-.46-1.383-.43-.848.047-1.474.537-2.238.831-.979.377-2.924-.035-2.916-1.299.006-1.059.719-1.97.754-3.01.039-1.155-.31-2.299-1.322-2.92-.344-.21-.845-.493-1.253-.546-.358-.047-.865.3-1.169-.019-.308-.322-.161-.382-.634-.387-.466.03-.788.511-.937-.164-.101-.459-.557-.748-.789-1.147-.412-.706-.713-1.456-1.196-2.123-.901-1.245-2.278-2.022-3.279-3.174-.295-.34-.563-.577-.896-.874-.218-.193.442-.633.038-.902-.687-.459-1.514-.764-2.239-1.173-1.347-.759-2.186-1.77-3.203-2.897-.563-.624-1.196-1.17-1.808-1.746-.159-.149-.567-1.33-.514-1.33-.284 0-.933 1.301-1.43 1.495-.599.232-1.59.071-2.024.379-.21.544-1.002.569-.749 1.092.332.687-.12 1.525-.288 2.208-.188.771-1.227.657-1.046-.036.304-1.167 1.309-1.479.469-2.805-.388-.615-1.397-.694-2.042-.61-.381.05-.789.162-1.175.162-.329.107-.611.438-.941.487-.527.08-.872.261-1.394.286-1.115-.006-1.301-.718-1.971-1.445-.446-.485-1.045.114-1.185-.878-.076-.535-.529-.78-.965-1.062-.463-.3-.984-.678-1.303-1.136-.192-.275-.167-.731-.594-.711-1.235.062-.695-.387-1.396-1.088-.271-.271-.768-.601-.849-1.004-.07-.354.632-.143.797-.234.166-.094 1.458-1.717 1.563-1.646-.28-.19-1.605-.261-2.016-.263.117.143.958.868.896.947-.201.259-.667-.183-.864.04-.766.865-.721-.528-1.283-.547.029.001.059 1.099-.789.981-.896-.123-.735-.844-1.255-.008-.286.458-.619-.465-.84-.479-.219-.014-.656.535-.826.686-.452.401-.918.346-1.483.416-.584.071-.924.711-1.425.959-1.257.621-2.84.673-4.195.869-.571.082-.634.809-1.244.8-.766-.011-1.528.106-2.295.09-1.442-.032-2.379-1.259-3.74-1.575-1.122-.261-2.293-.615-3.454-.556-1.215.063-2.468.214-3.652-.116-.595 0-1.412-.504-1.963-.707a13.133 13.133 0 0 0-2.003-.586c-.55-.108-.7.281-1.189.453-.549.192-1.495.178-1.97-.189-.938-.723-1.388-.232-2.457-.119-.69.073-1.557.057-2.169-.32-.355-.219-.649-.522-1.004-.741-.378-.233-.81-.152-1.208-.33-.707-.316-.978-.556-1.776-.396-.645.129-1.274.321-1.9.52-1.394.44-2.501.714-3.466 1.808-.963 1.089-2.21 1.235-2.643 2.838-.093.345-.072.771-.233 1.093-.142.281-.465.473-.423.82.108.88.668 1.745 1.222 2.41.834 1.001 1.942 2.24 3.267 2.524.68.146 1.523.278 2.18-.033.486-.23.263-1.271.266-1.672.003-.499.044-.883.602-.952.854-.106 1.171-.337 1.872-.821.967-.668 3.393.152 3.629 1.413.215 1.138-.908 2.967-.093 3.921 1.004 1.174 1.104 1.868 1.109 3.442.004 1.194.004 1.744.774 2.632.544.626.669.817 1.523.879.787.057 1.012.279 1.082 1.118.053.637-.533 2.767.531 2.292 1.208-.537 2.998-.569 4.197.039 1.084.549 1.034 2.209 2.384 2.451 1.604.288 2.423.22 3.435 1.581.805 1.081 1.519 2.376 2.265 3.386.782 1.06.993 2.519 1.725 3.632.635.969 1.439 1.724 1.958 2.785.336.687.609 1.415 1.017 2.064.315.504.888.978 1.037 1.572.439 1.758.575 3.662.771 5.458.289 2.631 1.238 5.463-1.024 7.396.713.319 1.498.463 1.642 1.302.313 1.849.386 3.73.623 5.589.161 1.272.121 2.571 1.765 2.223.877-.186 1.156-.523 2.071-.176 1.146.439 1.389.459 1.644 1.717.265 1.289 1.162 2.395 2.104 3.287.935.887 1.545 1.92 2.23 3.016a18.953 18.953 0 0 1 1.437 2.799c.549 1.328-.711 2.213-1.193 3.352-.938 2.207 1.47 4.857 2.616 6.547.435.641.789 1.32 1.063 2.045.046.209-.096.479.022.648.476.68 1.297.654 2.055 1.055 1.21.637 1.587 2.23 2.19 3.346.647 1.197 2.107 1.627 3.072 2.57.418.406.867.799 1.429.988.639.215-.064-.662-.088-.902-.084-.828.686-.959 1.348-.75.478.152 1.09 1.205 1.211 1.637.124.439-.161.711-.161 1.109 0-.182.759-.225.924-.244.353-.041-.054-.691.434-.791.047-.01.703.375.727.42.289.547-.774.809-1.009.998-.384.307-1.747 1.635-1.761.338-.006-.637.301-1.162.32-1.75.007-.17-.847-.564-.92-.492-.178.18.22 2.248.105 2.701-.096.377-.334.688-.502 1.031-.193.398.331.527.207.879-.364 1.033.782.486 1.232 1.273.159.277-.416.42-.224.684.141.191.505.744.735.854.298.141.907.018 1.257.025.442.008.854-.234 1.207-.221 1.251.047 2.466.168 3.701.285.563-.201.077-.945.209-1.537.07-.316.274-2.129.583-2.129.635 0 .104 1.971.07 2.227-.104.777-.205 1.375.349 1.9.386.365.868.566 1.278.895.378.301.633.727.992 1.049.454.408.68-.482.759-.848.138-.635.521-1.307.548-1.938.012-.242-.104-1.973.448-1.375.05-.4-.099-1.324.49-1.031.444-1.486 1.327-.506 2.274-1.338.413-.363 1.187-.502 1.667-.174.649.441 1.028-1.064 1.205-1.426.314-.643 1.422-2.143 1.835-.703.132.457.043 1.211.438 1.545.444.375.688.074 1.177.293.147.066.927.984 1.127.689.151-.225-.248-1.104-.305-1.344-.066-.275-.445.031-.494-.322-.099-.709.118-1.484-.072-2.178-.107-.395-.534-.658-.43-1.102.091-.387.18-1.242.645-1.322.531-.092 1.406-.238 1.927-.047.554.203.952.58 1.568.744.212.055 1.297.434 1.297-.156 0-.375-1.017-.754-1.239-1.094-.32-.492-.429-.936-1.042-1.074-.223-.049-1.323-.549-.676-.824.638-.27-.085-2.762-.128-3.406-.033-.49-.077-.555.418-.641.724-.125.375-.961.761-1.492.123-.172.408-.666.697-.596.111.027.433.422.544.199.235-.469-.033-.451-.207-.797-.225-.443-.525-1.717-.562-2.223-.057-.781 1.316-.469 1.732-.51 1.267-.125 2.526-1.488 3.384-2.322.418-.404.895-.77.991-1.367.097-.254.097-.551.223-.799.291-.572 1.224-1.893 1.818-2.133.723-.295 1.39-.275 1.368-1.242.052-.568-.641-1.029-.636-1.568.007-.852.025-1.705.016-2.557-.009-.67-.487-.91-.69-1.523-.402-1.215-.614-2.113-1.676-2.973-1.125-.908-2-1.334-2.597-2.75-.341-.81-.412-1.703-.348-2.479.179-.934.317-1.861.544-2.788.229-.939.582-1.485.503-2.51-.035-.442-.308-.729-.404-1.133-.254-1.055-.547-2.037-.045-3.064.375-.769.964-1.508.923-2.397-.044-.919-.266-1.742-.479-2.619.102-.021-.53-2.229-.575-2.467-.229-1.211.696-2.162 1.2-3.158.188-.374-.115.229 0 0zm-28.333 61.507c-.595.383-2.847-.764-2.274-1.453.486-.586.992.223 1.345.529.09.079 1.627.477.929.924-.089.057.18-.115 0 0zM496.238 596.221c-.526-.055-1.186-.35-1.691-.524-.812-.281-1.318-1.146-2.191-1.513-.715-.298-1.632-.999-2.415-.97-.636.023-1.906-.435-1.891-1.232.925.234 2.165.272 3.02.606.247.096.287.629.625.578.48-.072.854-.275 1.272.111.299.276.336.721.81.796.6.095 1.21-.087 1.809-.131.895-.064 1.837 2.402.652 2.279zM488.19 584.413c-.258-.08-.285-.477-.533-.545-.201-.057-.375.116-.569.12-.373.004-1.046-.451-1.373-.647-.466-.272-.223-1.6-.525-1.655-.248-.047-.898.487-1.109.01-.099-.222.668-.595.832-.605.544-.033.614.491 1.149-.043.396-.396-.205-2.324 1.191-1.492.328.195.558.994.889.967.729-.061.195-.375.692.115.42.414.26-.064.533.769.171.52.537-.045.722.306.181.34-.513.36-.165.726-.077.217.063.098-.175.37-.168.19.366.54-.143.623-.316.052-.68.02-.955.217-.219.154-.24.833-.461.764zM481.268 580.717c.601.416 1.118.852 1.348 1.468.13.345-.562.599.035.807.464.16.811-.162 1.04.361.166.383.223.752.592.983.081.215.015.508.097.753.362 1.089.281.946 1.24.946.025 0-.251.853.002.953.193.078 1.182.506.396.483-.894-.026-3.421.047-2.16 1.608.349.433.983.988 1.59.834.246-.062 1.332-.649 1.332-.074 0 .288-.725.097-.484.688.155.381.7.728.15.923-.515.182-1.299-.373-1.173.53.092.653-.221.77-.515.199-.25-.485-.663-.897-.902-1.37.021.039.078-.684.098-.398-.019-.275-.412-.419-.622-.487-.721-.56-1.046-.529-1.926-.61-.431-.039-.707-.062-.736-.514-.051-.745-.727-1.19-1.378-1.431-.657-.243-1.557.025-2.077-.399-.389-.316-1.003-.715-1.095-1.227-.078-.439-.706-.763-1.137-.763-.881 0-1.231-.257-1.755-1.037-.359-.535-.482.005-.877-.189-.409-.201-.73-1.371-.916-1.793-.228-.519-.4-1.817.035-2.241.713-.694-2.192-.573-.749-2.01.732-.729 2.461-.584 3.339-.101.546.301 1.29.476 1.771.864.572.462.799 1.052 1.274 1.589.33.371.999-.094 1.363-.013.647.312.936.449 1.106 1.117.087.337.856.219.965-.065.161-.428.096-.822.729-.384.226.157-.129-.089 0 0zM467.565 576.876c-.264-.021-.401-.313-.554-.488-.321-.367-.771-.343-1.141-.604-1.083-.759.22-1.245.859-1.33.884-.117 1.077.344 1.44 1.019.112.211.685.612.646.823-.065.359-.965.603-1.25.58zM550.682 713.138c-.257-.406-.708-.764-1.056-1.119-.498-.514-1.105-.008-1.266-.93-.147-.854-.091-1.605-.711-2.27-.179-.191-.566-.756-.88-.738-.272.014-.326.057-.587-.084-.331-.18-2.095-.652-2.093-1.082.003-.289.275-.58.147-.875-.166-.385-.285-.521-.295-.979-.034-1.613 1.222-4.811 3.313-3.174.601.469.627 1.279.822 1.947.244.826.674 1.611 1.016 2.402.196.451.488.814.249 1.258-.19.354-.128 1.27.096 1.596.449.66 1.03.197 1.278 1.129.199.746.5 1.168 1.041 1.705.286.283.235.832-.084 1.086-.048.04-1.022.079-.99.128zM543.523 710.974c-.242-.096-1.177-.938-1.332-1.131-.177-.225 1.414-.869.657-1.109-.644-.203-1.069.518-1.35-.281-.174-.498-.205-1.947.651-1.785.926.178.513.848.971 1.307.278.277 1.538.656 1.265 1.385-.298.787-.981-.414-1.35.135-.234.348.601 1.522.488 1.479zM510.701 544.931c-.171-.238-.19-.441.03-.708.049.096.018.775-.03.708zM509.046 547.459c-.114-.005-.519-.339-.538-.455-.101-.619 1.076.481.538.455zM534.557 596.71c-.624-.262-1.318-.11-1.89-.483-.363-.236-.338-.451-.5-.856-.194-.478-.563-.051-.875-.051-.456 0-1.609-.982-1.724-1.357-.446-1.466 1.649-.674 2.361-.386.391.158.968.628 1.373.659.228.019.408-.17.615-.18.918-.041 1.839.08 2.758.061.518-.011 1.433 1.267 1.035 1.762-.363.45-2.606 1.068-3.153.831zM529.259 592.722c-.22-.033-.455-.555-.183-.683.169-.083.408.716.183.683zM529.895 592.446c-.246-.188-.291-.979.148-.844.202.062-.1.881-.148.844-.015-.009.008.008 0 0zM548.031 604.683c-.425-.154-.322-.425-.534-.698-.415-.53-.952-.865-1.422-1.346-.068-.069-1.183-1.363-.82-1.501.246-.09 1.255.576 1.731.495.411-.07 1.269-.724 1.632-.634.516.134.677 1.996.736 2.371.112.707-.422 1.636-1.323 1.313zM602.962 576.77c-.441-.373.021-.727.19-1.168.119-.313.184-1.438-.423-1.16-.456.211-.702.979-1.168 1.28-.446.286-.709.297-1.104.692-.048.046-.665-.352-.711-.432-.182-.329-.055-.907-.056-1.275 0-.15.143-.332.124-.466-.027-.196-.284-.277-.271-.467.02-.3.62-.431.758-.773.177-.447-.669-1.327.264-1.132.558.115 1.095.2 1.666.228.882.043.872-.119 1.029.746.044.245-.128 1.393-.079 1.413.51.227.616.096.841.78.115.348-.262 2.402-1.06 1.734z"/>
            <path d="M788.638 644.517l-.094-2.876-5.293-1.347-2.686 5.114-6.904-6.471-8.469-4.29-6.604 7.163-4.02-.709 1.889-3.675-1.6-3.462 1.398-5.483 6.818-.343-8.689-8.799-1.398-5.482-4.5-5.964-8.24-6.749-1.896.625-.75-3.367 3.396-9.215 17.566 2.758 4.801-4.307h6.049l2.168 2.203-2.148-5.464-10.352-4.226-7.152-7.625-2.344 3.918-14.625-2.841-3.705-3.226-2.117 4.352-1.631-8.167h-1.582l1.109-2.148-3.385 1.658 1.217-2.152-2.35-4.405.283 2.206h-2.684l1.045 1.609-4.801-1.34.15 4.283-2.797 1.655 5.57 4.585 3.516-3.752-.77 3.322-3.502 2.646 2.684 6.769-1.021 2.449-5.947 4.595-9.035.712-4.525-4.232.473-6.736 2.516-3.162-.529-6.896-3.744-2.693.699-5.903-10.773-8.92-2.307-4.252-14.977-6.724.838 4.672-3.592.513-9.016-5.04-1.765.222 1.103 1.664-2.798-1.726-5.179 1.726-3.875 4.989-.832 5.232-1.871-.41 1.115 5.432-3.528 3.097-3.163-7.58.34-4.661-1.493 4.046-3.78.965-.939 2.925-1.588-1.664 3.542 6.316 8.134 5.621-1.581 3.639-8.507-1.484 3.756 6.503-.161.062c-.856.027-2.402-.734-3.085-1.152-1.485-.907-1.88.073-3.308.073-.821 0-2.915-.598-3.399-1.324.043.064-3.797-1.168-4.046-1.147-.855.072-2.513-.957-3.107-1.531-1.329-1.276-3.428-1.21-5.034-2.396-1.683-1.243-3.195-1.761-4.666-3.446-3.317-3.799-8.277-5.801-11.149-10.017-1.052-1.543.049-3.796.988-5.036 1.985-2.609-1.872-2.592-2.04-4.279-.209-2.162.895-3.113-1.309-5.205-6.004-5.7-5.546-14.23-7.979-21.634l.448-4.704 8.594-3.222-10.1-10.119 1.587-1.078-8.272-14.967-2.066-9.434-6.994-6.599-.095-8.795 2.816.324 3.61-5.037 1.758-7.468 10.34-10.139-2.684-1.074 3.698-4.896-5.242-2.953-1.525-4.299.971-6.84 14.315-12.7 23.093-8.192 2.854-5.868 3.705-.426-10.636 18.097 4.75-3.681 1.374-4.329 9.823-8.179 2.174-6.502-2.697 2.155 2.697-9.738-1.109 1.616-1.033-3.152 16.912-28.334 3.888-15.394 4.347-7.946-2.174-3.883-3.868 2.02-2.646-2.495-.573-10.196 2.646.756-2.25-4.213-1.298-.789.372 1.821-2.88-3.764-4.001 1.077-4.845-1.584-6.831-18.372-2.104-11.344 3.692-19.469-1.059-9.151 10.624-11.883 1.393-6.724-2.149-5.3-3.521-3.087-1.267-5.698-6.39-.27-2.596 9.122-10.258 8.872-10.378.192-16.086-6.419.359 4.374-4.461-5.576-37.572-20.332-13.925 6.028-5.892-5.723-2.93-.446-2.634 1.789-.63 4.755-12.369 1.805-3.169 2.898.693 13.919-8.443 18.449.555 6.791-6.654 17.603 1.639 5.406-4.587 2.735-1.5 9.593 5.286 2.957 3.22 10.273-2.747 5.185-.473 9.142 2.646 15.657-.699 3.633-8.336 11.235-1.002 16.186-2.363.16 2.363 5.271 2.294 19.921 4.738 4.979.358 5.005-5.633 6.775 2.628 1.892-2.281-.275-2.69 3.276-.529-3.011-6.483 1.809-5.394-1.062-2.571-1.854-1.386-6.899-14.392-7.375 1.122-10.248-8.859 1.812-3.579 12.168 1.752 5.169-1.739 15.229 1.159 2.331 6.439-2.693 3.176 5.923-.075 8.676-2.079 1.642 4.063 4.156-1.19 7.349 4.612 6.519-1.777 3.039-3.024-.567-1.059 4.252 9.055 12.575 3.705 16.311.283 13.332 1.802 5.91 1.588-.584-1.588 1.712 7.404 3.668 2.614-9.663 6.421 4.283-3.743 4.62 2.225 1.574-2.344 1.373 3.333 5.979 6.345 2.601 2.69 13.002 5.028 2.734 9.395-3.62-.479-14.284-3.541-5.906.674-8.955 2.192-.15.945-5.047 1.55 1.417-.913 5.246 2.117-1.071v-3.232l1.613 6.766 15.367 2.033 7.939 8.487c2.237 1.067 1.834.646.672 2.814 1.362-.651 2.889 2.142 3.083 2.596.118.273-.459 2.809-.459 3.54 0 .795 1.009 1.716.266 2.162-1.475.874-1.815 2.373-3.972 2.516.03-.002-.767-.106-1.061-.462-.2.324.075 1.067-.332 1.391.201-.16-2.347-.614-2.404-.768-.752-2.002 2.499-1.657 2.948-2.108.224-.227-1.298-.199-1.348-.255-.684-.359 1.036-1.116 1.215-1.218-3.083-.355-3.241 2.58-4.042 5.516-.371 1.359-1.781 1.352-2.442 2.625-1.109 2.137-5.11 4.501-6.926 6.042-2.654 2.252-6.276 4.822-8.304 3.542-.089-.055-2.415 1.681-2.321 2.172.514 2.725-.369 2.888-2.091 3.081-.135.015-.41-1.27-.896-.75-.157.173 1.187 2.685 1.152 3.534-.042 1.219 1.69.733 1.814 1.229.205.808-2.781.448-2.338.859 5.37 1.093-.724 2.76-.705 2.799.118.251 2.879 1.198 3.274 1.306.702.191.906 3.824.924 4.668.022 1.157-1.349 3.073-.589 4.203 1.493 2.218.847 2.08-1.079 2.398-.092 1.157 1.302.976.826 2.135-.279.681.673 1.852.727 2.697.083 1.315-.435 3.196-.688 4.5-.301 1.547 1.072 1.909 1.104 2.538-.122.355-.368.552-.738.591.089-.139 2.492 4.314 3.368 3.249.841-1.015.902-3.375-.582-4.114-1.921-.97.947-3.105 2.861-1.974 3.541 2.089 1.099-1.648.724-2.609-2.098-5.458 7.213-3.274 9.076-2.407 2.291 1.069 5.25.532 6.71 3.027.53 1.009 1.581 4.253-.527 4.253.678 0 1.519 2.566 1.998 3.078 1.618 1.731-1.872 2.304-2.441 3.086-.581.797-3.107 4.424-.002 4.37 1.258-.022 4.284-3.834 4.512-4.932.685-3.269 7.142-3.103 7.374-.558.118 1.283.493 1.596.969 2.825.435 1.124-1.185 1.805-.87 3.03.255 1-1.208 3.746-.999 4.105 1.337 2.301 7.856-.406 9.74-.537 1.66-.116 9.871 6.218 11.302 1.991 1.145-3.381 5.222-4.358 7.772-3.064.812.412 4.314-2.238 3.89-3.152-.722-1.553-1.687.561-2.039-.099-.127-.235.632-1.377.62-1.799-.031-1.02-1.009-1.743-1.166-2.842-.129-.911-.008-3.48.793-3.539 1.091-.08 2.651-3.068 3.565-3.746 1.795-1.325 4.518-1.68 6.539-2.785 1.784-.976 2.086-.507 3.409-.488 1.16.018-.099-1.147.726-1.502 1.2-.514 3.098-.72 4.399-1.034 3.22-.776.369-4.719 5.75-3.922 1.707.253 1.516 1.669 3.553 1.533 2.205-.148.821 2.859 1.619 3.817.758.905 4.59.407 4.801.915.822 1.985 1.819 3.262 4.196 3.137 1.159-.061 3.56.981 3.444 2.207-.329 3.469 2.549 1.168 3.832 1.701.557.241.183 2.033 1.339 2.02.998-.012.752.499 2.146.419a2.155 2.155 0 0 1 .075-1.4c1.212-1.167 5.22 6.216 5.595 6.479l3.509 6.589 9.679 2.407 3.906 3.345 10.194 14.319 1.405 4.527-1.103 5.627 6.434 5.137 7.939-4.306-1.393-11.87-8.172-14.544 5.047 3.401.283-1.292-10.718-9.058-.932-5.483 2.085-1.115-.221-6.638-7.473-10.09 7.958 1.077 1.626-2.106 8.991 7.781.014 2.86 7.736 1.229 1.424 1.539-1.455.58 8.506 6.999-3.705 3.229 3.441 3.758 8.738 6.191 15.236 6.172 1.713 7.105 8.508 9.734-1.689 9.087 2.406 8.497 5.805-2.501 4.354.57 12.689 11.345 3.391.52 3.818-3.515-1.627 3.681 1.607 1.517-.611-1.875 3.295-.09-1.625 1.378 1.059 2.148 2.93-2.639 1.607 1.077 4.291-1.831 4.184-6.826 10.201 1.536.32 3.431-2.078 2.527-3.379-.026-4.031 3.027-3.385-2.425-1.883 2.607-3.49.618 3.748 2.383.037 6.698 2.793 5.596 4.24 1.811 3.855 5.945 5.557.75 3.119-1.561-.529-5.654 3.176-3.811 1.041-10.813-2.061-8.041 2.848-6.686 2.542-1.537z"/>
        </g>
        <g class="svg-text full-labels">
            <!-- <text transform="translate(275.674 183.06)" style="font-weight: 600;" font-size="120">The Philippines
            </text> -->
            <text transform="translate(565 540)" font-size="60">Manila</text>
            <!-- <text transform="translate(357.536 634.058)" font-size="60">LMP</text> -->
            <text transform="translate(525 634)" font-size="60">LMP</text>
            <circle cx="541.768" cy="522.569" r="8.071"/>
            <circle cx="500.493" cy="615.837" r="8.071"/>
        </g>
        <g class="svg-text-alt zoomed-labels">
            <text transform="translate(535 648)">Mindoro</text>
            <text transform="translate(508 631)" text-anchor="end">Mamburao</text>
            <circle cx="510.043" cy="628.445" r=".927"/>
        </g>
        <g class="svg-text zoomed-labels">
            <!-- <a class="svg-link" xlink:href="https://www.lmphilippines.org" onmouseover="showImg('svgKauImg')" onmouseout="hideImg('svgKauImg')"> -->
            <a class="svg-link" onmouseover="showImg('svgKauImg')" onmouseout="hideImg('svgKauImg')">
                <text transform="translate(503 637)" text-anchor="middle">
                    <tspan x="0" y="0">Kaupawan</tspan>
                    <tspan x="-1" y="5.5">Academy</tspan>
                </text>
                <circle cx="516.62" cy="630.82" r=".927"/>
            </a>
            <a class="svg-link" onmouseover="showImg('svgSulImg')" onmouseout="hideImg('svgSulImg')">
                <text transform="translate(520 627.517)">Sulung Ipil</text>
                <circle cx="517.195" cy="628.908" r=".927"/>
            </a>
            <a class="svg-link" onmouseover="showImg('svgBinImg')" onmouseout="hideImg('svgBinImg')">
                <text transform="translate(486 610.2)" text-anchor="end">Binuangan</text>
                <circle cx="488.245" cy="609.039" r=".927"/>
            </a>
            <a class="svg-link" onmouseover="showImg('svgAgbImg')" onmouseout="hideImg('svgAgbImg')">
                <text transform="translate(501.92 602.971)">Agbalite</text>
                <circle cx="499.53" cy="604.899" r=".927"/>
            </a>
            <a class="svg-link" onmouseover="showImg('svgPinImg')" onmouseout="hideImg('svgPinImg')">
                <text transform="translate(495 601.78)" text-anchor="end">Pinagbayanan</text>
                <circle cx="496.62" cy="603.971" r=".927"/>
            </a>
            <a class="svg-link" onmouseover="showImg('svgPriImg')" onmouseout="hideImg('svgPriImg')">
                <text transform="translate(524 666)" text-anchor="end">Prision Ministry</text>
                <circle cx="529" cy="665" r=".927"/>
            </a>
        </g>
    </g>
    <g class="svg-ui" transform="translate(100 800)">
        <g class="svg-btn svg-btn--plus" transform="translate(60 400)">
            <rect width="80" height="80" rx="3" ry="3" fill="#000"/>
            <path fill="#FFFFFF" d="M52.346,47.439l16.258,16.257l-4.908,4.908L47.439,52.346v-2.607l-0.92-0.92 c-3.887,3.374-8.489,5.061-13.804,5.061c-5.931,0-10.966-2.044-15.107-6.135c-4.141-4.088-6.211-9.1-6.211-15.031 c0-5.929,2.071-10.966,6.211-15.108c4.141-4.14,9.176-6.211,15.107-6.211c5.929,0,10.94,2.071,15.031,6.211 c4.088,4.142,6.135,9.179,6.135,15.108c0,5.318-1.687,9.919-5.061,13.805l0.92,0.919H52.346z M22.285,43.145 c2.862,2.863,6.339,4.294,10.43,4.294c4.088,0,7.566-1.431,10.429-4.294c2.862-2.861,4.295-6.339,4.295-10.43 c0-4.088-1.433-7.565-4.295-10.43c-2.863-2.86-6.341-4.294-10.429-4.294c-4.091,0-7.568,1.434-10.43,4.294 c-2.864,2.865-4.294,6.341-4.294,10.43C17.991,36.806,19.421,40.283,22.285,43.145z M40.844,34.249h-6.595v6.595h-3.221v-6.595 h-6.595v-3.221h6.595v-6.596h3.221v6.596h6.595V34.249z"/>
        </g>
        <g class="svg-btn svg-btn--minus" transform="translate(160 400)">
            <rect width="80" height="80" rx="3" ry="3" fill="#000"/>
            <path fill="#FFFFFF" d="M52.348,47.438l16.256,16.257l-4.908,4.908L47.438,52.346v-2.607l-0.92-0.92 c-3.887,3.374-8.488,5.061-13.803,5.061c-5.932,0-10.966-2.044-15.107-6.135c-4.141-4.088-6.211-9.1-6.211-15.031 c0-5.929,2.07-10.966,6.211-15.108c4.142-4.14,9.177-6.211,15.107-6.211c5.93,0,10.939,2.071,15.031,6.211 c4.088,4.142,6.135,9.179,6.135,15.108c0,5.318-1.688,9.919-5.062,13.805l0.92,0.919L52.348,47.438L52.348,47.438z M22.286,43.145 c2.86,2.863,6.338,4.294,10.429,4.294c4.088,0,7.564-1.431,10.43-4.294c2.861-2.861,4.293-6.339,4.293-10.43 c0-4.088-1.433-7.565-4.293-10.43c-2.865-2.86-6.34-4.294-10.43-4.294c-4.091,0-7.568,1.434-10.429,4.294 c-2.864,2.865-4.294,6.341-4.294,10.43C17.992,36.806,19.422,40.283,22.286,43.145z M24.434,31.027h16.41v3.221h-16.41V31.027z"/>
        </g>
        <g transform="translate(401 0)">
            <image id="svgPinImg" class="is-hidden" xlink:href="/assets/img/pinagbayanan-satelite-600.jpg" width="800" height="600"/>
            <image id="svgAgbImg" class="is-hidden" xlink:href="/assets/img/agbalite-satelite-600.jpg" width="800" height="600"/>
            <image id="svgBinImg" class="is-hidden" xlink:href="/assets/img/binuangan-satelite-600.jpg" width="800" height="600"/>
            <image id="svgSulImg" class="is-hidden" xlink:href="/assets/img/sulung-ipil-satelite-600.jpg" width="800" height="600"/>
            <image id="svgKauImg" class="is-hidden" xlink:href="/assets/img/kaupawan-arial-600.jpg" width="800" height="600"/>
            <image id="svgPriImg" y="-420" class="is-hidden" xlink:href="/assets/img/prison-ministry-600.jpg" width="800" height="600"/>
        </g>
    </g>
</svg>
