<svg id="lmpMap" class="is-full" xmlns="http://www.w3.org/2000/svg" width="100%" viewBox="0 0 1200 1200" xmlns:xlink="http://www.w3.org/1999/xlink">
<!-- <svg id="lmpMap" class="is-full" xmlns="http://www.w3.org/2000/svg" width="1200px" height="1200px" viewBox="0 0 1200px 1200px" xmlns:xlink="http://www.w3.org/1999/xlink"> -->
    <script>
        var svg = document.getElementById("lmpMap");
        svg.onclick=function(event){
            if( svg.getAttribute("class") == "is-full" ) {
                svg.setAttribute("class", "is-zoomed");
            } else {
                svg.setAttribute("class", "is-full");
            }
        }
    </script>
    <style>
        #lmpMap {
            font-size: 16px;
            font-weight: 400;
            font-family: "Raleway","Helvetica Neue",Helvetica,Arial,sans-serif;
        }
        circle {
            fill: #1C557A;
            stroke: #f0ede5;
            stroke-width: .5;
        }
        .is-full {
            cursor: zoom-in;
        }
        .is-zoomed {
            cursor: default;
        }
        .svg-map {
            transform: translate(0, 0) scale(1);
            transition: transform .75s ease-in-out;
        }
        .is-zoomed .svg-map {
            transform: translate(-5450px, -5400px) scale(12);
        }
        .svg-land {
            fill: #f0ede5;
        }
        .svg-text {
            fill: #f0ede5;
            font-size: .3em;
            font-weight: 800;
        }
        .svg-text .inverse {
            fill: #12476b;
        }
        .svg-text .faded {
            opacity: .4;
            font-size: 50%;
        }
        .full-labels circle {
            stroke-width: 4;
        }
        .svg-text-alt {
            fill: #ccc;
            font-size: .25em;
        }
        .svg-text-alt circle {
            fill: #bbb;
        }
        .full-labels,
        .zoomed-labels {
            transition: .75s;
            visibility: visible;
        }
        .is-zoomed .full-labels {
            opacity: 0;
            visibility: hidden;
        }
        .is-full .zoomed-labels {
            opacity: 0;
            visibility: hidden;
        }
        .svg-btn {
            opacity: .4;
            cursor: pointer;
        }
        .svg-btn:hover { opacity: .6; }
        .is-full .svg-btn--minus,
        .is-zoomed .svg-btn--plus {
            opacity: .2;
            cursor: default;
        }
    </style>
    <defs>
        <path id="arrow" x="0" y="0" width="50" height="50" d="M57.654,13.785l-0.008-0.003l-0.031-0.011l-0.983-0.347l-1.893-0.672c-2.432-0.874-4.488-1.646-5.742-2.149
        c-5.004-2.021-10.97-1.062-10.97-1.062c-1.522,3.728,0.169,2.191,4.437,4.918c1.066,0.682,3.522,1.612,6.661,2.629
        c0.734,0.237,1.508,0.48,2.308,0.724c-2.588,0.495-7.001,0.929-14.856,3.513c-9.29,3.055-15.6,7.079-22.631,15.275
        c-3.017,3.518-9.166,14.996-9.6,15.562c-1.742,2.28,3.003,3.507,4.832,1.546c2.94-3.153,4.266-7.963,8.464-12.679
        c6.066-6.816,11.671-11.656,19.979-14.314c7.403-2.37,12.917-3.323,14.149-3.603c-2.873,4.61-5.157,8.537-5.682,9.831
        c-1.428,3.534,4.296,2.95,5.438-0.133c0.569-1.542,3.723-6.09,7.17-10.77l0.646-0.879l0.327-0.439l0.042-0.054l0.01-0.014
        l0.005-0.008c0.408-0.524,0.31-1.982,0.255-1.633l-0.008-0.033l-0.026-0.135l-0.049-0.268l-0.392-2.133l-0.094-0.526l-0.05-0.261
        l-0.023-0.131l-0.01-0.065l-0.003-0.016C55.998,12.13,58.399,14.526,57.654,13.785z"/>
    </defs>
    <!-- <rect width="1200" height="1200" x="0" y="0" fill="#12476B" /> -->
    <g class="svg-map">
        <g class="svg-land">
            <path d="M748.224,430.132l0.341,1.998l-5.033,1.799l-0.045-3.402l3.875,0.526l-0.808-2.283L748.224,430.132 M141.733,684.669
                l-1.235,0.889L141.733,684.669 M790.22,578.554l-3.164,0.459l-1.172,2.488l6.119-1.558L790.22,578.554 M578.688,595.449
                l-4.765,2.093l6.408,0.981l2.375-1.478L578.688,595.449 M451.459,1150.664l-0.895,1.345l2.968,0.418L451.459,1150.664
                 M451.925,1147.361l0.441-3.31l-3.831-1.34l0.423,3.315L451.925,1147.361 M448.8,1132.015l0.138-4.998l-4.069,6.068
                L448.8,1132.015 M884.097,1103.027l-3.246-0.453l-3.295,3.431l6.541,1.515V1103.027 M531.146,1081.091l-4.084,0.642l-0.623,2.213
                l6.452-1.392L531.146,1081.091 M534.567,1076.738l-1.039,3.885l1.474,0.77l1.506-2.615L534.567,1076.738 M761.966,770.734
                l-8.834,4.034l1.752,2.921l7.31-2.734l1.864-2.495L761.966,770.734 M821.246,731.498l-6.592,2.228l0.599,3.429l5.274-2.021
                L821.246,731.498 M787.308,553.583l0.617-2.722l-3.332-3L787.308,553.583 M785.759,491.518l3.729,0.981l0.996-1.771l-5.483-3.026
                l-5.669,1.847L785.759,491.518 M780.931,485.634l-13.457-2.222l2.078,3.482l6.666,1.77L780.931,485.634"/>
            <path d="M765.759,484.561l2.463-4.406l-5.67-1.904l-0.226,6.611l2.136,3.201l2.192-0.688L765.759,484.561 M758.884,477.312
                l3.41-0.14l-5.72-2.812L758.884,477.312 M651.285,370.163l-5.438,1.042l-1.721,2.293l6.074-0.186L651.285,370.163
                 M464.943,248.591l-1.626-6.31l-4.776,3.539l5.463,5.801L464.943,248.591 M598.03,512.938l-0.441-2.63l-2.293,0.013l0.806,3.296
                L598.03,512.938 M486.631,590.46l-1.336-2.988l-5.003,1.615l5.003,10.351l-0.347-7.875L486.631,590.46 M549.293,671.966
                l-4.833,1.994l-1.121,2.866l5.388,0.841L549.293,671.966 M573.444,580.037l-3.699-4.118l1.985,8.965l2.287-1.073L573.444,580.037
                 M424.542,1148.304l-1.122-3.373l-2.583-0.717l2.117,10.008l-0.479,9.463l3.643-8.553L424.542,1148.304 M571.521,1057.306
                l-8.543-1.614l-4.14,2.147l-2.999-5.097l-10.592-2.642l-10.586,6.47l-2.608,4.258l4.82,5.935l5.746-3.002l5.633,2.806l11.36-4.25
                l2.628,5.526l2.382,1.035l9.829-7.024l0.139-3.084L571.521,1057.306 M558.812,1071.88l-4.227-2.151l-2.155,3.229l2.098,1.537
                l5.344-1.053L558.812,1071.88 M590.671,1005.951l-0.945-1.17l-2.646,3.199l2.621,5.534L590.671,1005.951 M439.147,699.015
                l-2.898-7.849h2.634l-1.154-1.809l-4.857,0.211l0.92-11.976l-5.507,0.362l-2.092-5.133l1.008-10l4.247-0.274l-4.341-8.05
                l3.925-14.493l-1.134-2.836l-2.281-0.197l-1.625-6.573l-5.917,8.649l0.265,6.78l-3.176,3.224l3.422,5.073l-1.305,5.201h-2.942
                l-3.275-3.68l-0.587,3.032l2.57,5.003l-2.684-1.72l-0.46,1.726l0.365,5.311l2.778,0.062l-0.416,4.33l7.864,3.688l-1.323,2.75
                l2.154,4.996l-1.738,0.406l-8.658-7.563l-1.581-4.306l-2.69,0.25l1.052-4.551l-5.354-0.712l2.715,3.988l-2.646,3.174l3.308,1.908
                l0.605,4.329l3.327-0.081l2.173,3.872l-2.003,10.519l-2.193,2.554l-3.1,0.135l2.117,3.763l-11.059,9.463l-1.152-7.849
                l-2.685,1.664l1.626,3.232l-2.685,2.686l-5.425-0.475l-1.979,3.166l4.455,0.631l-0.713,3.137l-5.809,2.154l0.668,3.698
                l-1.916,2.019l-9.124,1.634l1.286,8.295l-2.419,2.729l-1.677-0.574l-0.605-5.869l-3.805,7.482l-5.11,3.127l0.888,1.719
                l-10.642,15.767l-13.194,9.127l-2.117,5.675l-9.017,8.545l-1.814,4.426l-4.594,2.924v3.273l-10.094,8.657l-1.059-2.687
                l-6.583,0.486l-2.943,4.541l-6.383,4.116l-1.713,5.783l-8.236,1.579l-17.031,22.441l-4.612,2.073l-8.677,10.774l-5.664,21.416
                l11.94-10.475l12.999-2.802l4.083-12.157l14.693-2.293l12.004-10.996l7.996-4.562l9.546-19.168l17.654-4.901l10.29-9.505
                l13.263-20.194l2.022-0.64l2.685-6.87l2.041-0.189l-1.039-2.299l-2.061,0.336l-1.19-6.537l2.224-0.385l0.46,2.91l3.271,0.731
                l0.529-4.257l-2.646-7.825l1.834-3.673l32.682-9.629l6.945-16.159l7.144-6.521l6.566-2.705l8.732-0.16l11.575-10.883
                L439.147,699.015 M257.474,874.724l-3.548,0.916l0.782,9.992l5.406-2.738l-0.328-6.594L257.474,874.724 M251.078,875.314v-2.203
                l-4.757,4.351l0.675,2.045l5.714-3.072L251.078,875.314 M238.854,895.597l-5.557-0.327l-2.401,2.735l-1.587-2.735l-0.454,11.104
                l4.19,9.521l5.948-5.664L238.854,895.597 M245.263,886.119l-0.46,1.687l3.402,0.097L245.263,886.119 M234.639,894.777l2.911-1.418
                l-1.758-3.906l-3.837,2.586L234.639,894.777 M460.696,694.982l-8.695-2.662l-6.604,7.701l1.991,0.34l0.794,6.185l9.779-1.882
                l-0.479-5.918l2.634,3.224l0.58-1.608l2.627,0.328l2.099-2.675L460.696,694.982 M454.27,623.13l-3.188,0.537l0.529,3.813
                l-3.692-2.687l-1.109,4.258l-3.264-2.963l-0.97,1.392l4.233,4.258l1.903-2.103l2.898,0.537v3.769l2.86-4.904L454.27,623.13
                 M491.457,582.632l-2.502,0.498l2.086-4.537l-4.316-4.308l-2.174,0.287l-2.211-6.847l-0.447,7.328l-2.161,1.076l-7.883-4.306
                l1.537-2.155l-17.736-10.14l-0.334,4.228l3.226-0.59l-3.875,1.956l-1.909,6.695l3.667-3.226l8.217,15.483l6.282,0.759l2.463,2.688
                l2.168-4.891l7.397,3.276l6.874-0.582L491.457,582.632 M466.468,593.39l-1.676-1.346l2.192-1.134l-5.583-0.438l-3.068-4.058
                l-2.174,3.261l-2.911-1.127l5.293,9.198l-1.588,1.076l2.117,3.817l2.325,0.769l1.38-2.383l2.155,1.067l-1.588,5.388l-2.168-1.617
                l0.819,5.541l6.2-3.513l2.545-6.327l-3.163-2.154l0.852-2.973l2.57-0.48L466.468,593.39 M710.021,625.871l-2.324,0.115
                l0.735-1.192l-2.153-1.127l3.276-2.304l-0.063-4.737l-5.728,5.391l-14.625,7.231l-1.928-2.185l5.319-4.473l-5.396-2.011
                l-3.444-4.521l-8.173-0.51l-1.588,5.428l-3.396-2.039l-0.461,3.363l-2.489,1.365l-2.646-4.304l-5.86-2.737l-10.472-10.648
                l-21.896-7.992l-10.119-7.819l-5.18,3.16l-0.604,5.87l-2.723,3.929l17.857,3.526l1.758,5.259l-5.066,28.172l0.259,22.302
                l-8.368,19.047l3.704,10.119l-4.057,10.92l1.336,5.951l5.116-0.966l6.66-9.763l9.659-5.744l28.127-4.45l3.156-5.961l4.914-2.255
                l3.927,0.576l4.12-6.287l-0.674-7.93l5.67-4.168h4.804l1.058-2.734l0.963,2.195l6.012-5.834l1.002-4.221l5.186,0.914l1.79-2.434
                l-1.381-6.617L710.021,625.871"/>
            <path d="M674.46,684.664l-3.169-2.157l-10.341,12.178l-0.718,2.945l2.022,1.655l-5.501,3.606l4.196,6.613l4.48-3.173l0.038,2.099
                l3.057-0.881l4.057-4.867l3.888-10.562L674.46,684.664 M741.306,677.078l-4.075-7.01l-5.898-1.765l-3.114,1.771l-0.144-2.629
                l-4.782,0.539l-6.351-3.818l-3.58-0.125l-9.74,5.552l-7.272,1.515l-3.226,4.647l1.511,9.979l-4.744,9.733l-7.409,6.502
                l4.233,12.966l0.267,19.709l-12.779,8.983l-5.028,1.532l-6.389-1.616l-6.635,1.034L650,754.941l0.573,11.301l2.155-1.125
                l-0.567,4.354l1.588-1.129l1.38,1.379l6.994,12.947l8.166,7.053l14.529,4.285l2.76,3.248l0.933,6.685l5.041,11.014l5.847,3.621
                l15.248-5.698l6.772-11.765l0.272-6.798l-10.856-15.307l-3.517-1.203l3.246-2.933l-3.253-2.241l2.709-6.119l-1.059-13.522
                l10.348-17.806l4.209-20.047l10.912-15.851L741.306,677.078"/>
            <path d="M777.919,676.833l1.639-3.472l-1.053-14.621l-2.929,0.586l-1.362-1.664l3.233-4.159l2.08-8.134l0.51-2.819l-2.248-0.634
                l-6.731,7.979l1.099,7.768L770,656.046l-2.118,5.429l1.306,4.61l-6.604,17.165l-10.082,16.035l0.317,4.328l-9.111,12.69
                l-7.549,16.621l-6.616,6.677l-0.919,4.977l-1.829,0.045l1.715,5.996l-3.401,8.851l-3.945,21.886l1.033,7.838l11.758-11.065
                l9.47-25.14l2.11-1.569l1.822-13.877l10.92-12.832l5.808-1.712l8.073-6.178l0.521-3.987l1.022,1.563l1.707-1.189l1.469-16.079
                l1.63-1.069l-2.646-12.425L777.919,676.833 M758.847,649.64l-4.276-8.93l-3.17,4.04l2.229,6.849l6.295,0.494L758.847,649.64
                 M818.019,752.74l1.5-0.545l-2.204-3.783l0.969-4.868l1.205,0.514l-0.513-4.176l-12.272-5.738l-1.728-3.559l-3.161,3.28
                l-1.91-4.037l-8.412,0.757l-8.241,4.894l-5.066,8.706l-12.754,5.08l-4.467,5.677l-2.117,6.703l4.802,1.856l0.676,7.028l5.09,2.168
                l9.886,1.74l17.731-0.896l9.004-4.07l1.468-4.461l5.45-4.196l1.588,2.198l5.873,0.244l2.154-5.086l-5.746-4.707L818.019,752.74
                 M834.968,805.613l-5.858-3.974l-4.783,2.468l-0.793,2.879l2.759,4.487l7.592,3.783l2.408-1.486l0.547-4.771L834.968,805.613
                 M750.871,808.351l-1.104-2.729l1.558-2.649l-4.782-4.756l-13.232,8.526l6.97,5.611l5.508,1.254l5.494-2.367l1.479-1.635
                L750.871,808.351 M351.325,978.458l-2.117-3.222l-6.427,2.282l1.387,2.828l4.486,0.86l2.142-0.594l-0.794-2.711L351.325,978.458
                 M484.06,1115.554l-2.457-0.244l-0.454-5.565l-2.054-0.385l-7,4.342l-0.813,2.444l-9.451,2.867l-11.077,7.252l-0.188,5.576
                l10.434-1.236l5.52-6.7l5.81,0.306l1.588-4.835l1.903,2.736l2.854-1.664l0.17,5.353l2.477,1.694L484.06,1115.554 M510.089,1027.75
                l-7.24,10.357l6.402-0.174l2.092-6.156L510.089,1027.75 M642.376,1007.855l-17.813-8.47l-9.791,4.996l-9.148,1.289l-1.179,3.284
                l0.593,2.078l4.688,1.424l0.391,5.642l5.419,4.627l0.944,3.127l17.529-3.643l3.617-9.464l7.731-2.534L642.376,1007.855
                 M941.945,756.017l-4.279-2.198l2.117-3.533l-5.147-12.383l-6.817,12.392l2.399,2.94l-3.748,1.123l6.396,7.534l-0.535-1.616
                l6.074,1.276l4.498-2.276L941.945,756.017 M907.39,749.515l-2.946-3.655l1.938-8.767l-2.306-4.597l0.662-3.522l-2.231-0.312
                l0.901-3.022l-2.356-2.635l3.649-11.961l-3.649-4.767l-2.117,7.045l-3.705-0.59v3.758l-3.125,1.09l1.537,9.24l-2.153-0.584
                l-1.463,7.754l1.991,3.636l5.859-2.147l1.588,2.424l-2.634,3.889l5.796,5.57l0.43,3.93l2.777,1.173L907.39,749.515
                 M872.886,717.089l-1.146-4.729l-4.674-3.929l-0.359-13.389l-5.715-7.888l-8.242-4.06l-0.077-7.099l3.114-9.735l-1.974-16.375
                l1.099-5.674l-1.418,1.582l-3.832-3.873l0.183-9.056l-10.112-3.229l-7.845,8.231l-8.867,1.899l-2.76-1.188l-7.043-9.795
                l-1.789,4.619l-10.844-13.065l-3.056,0.642l2.64,11.887l2.752,1.345l-1.203,3.647l3.838,2.049l1.06,13.719l-2.287,4.941
                l2.287,5.114l-1.701,5.272l3.162-0.09l0.781,2.524l5.229,2.322l3.737-4.552l-1.022-4.086l5.633-1.476l12.117,14.231l1.715,11.279
                l-5.06,20.327l4.384,7.459l-2.047,11.011l1.135,2.681l7.927,1.336l11.53,9.039l-3.158-28.453l3.935,1.351l3.623,10.653
                l4.838,3.433l-0.788-7.356l9.225,1.399L872.886,717.089"/>
            <path d="M906.861,652.035l-1.481-3.453l-5.009-3.448l0.152,2.842l-2.457,0.88l-3.416-1.794l0.862-4.434l5.33-4.599l0.209-3.31
                l-6.125-4.437l-0.756-2.804h-2.154l0.769-2.461l-5.002-9.469l2.646-7.041l-1.463-4.429l-2.431,0.543l0.541-2.78l2.824-0.356
                l-2.647-3.154l-1.058-9.225l6.142-8.64l-5.084-5.414l3.705-1.617l-2.167-1.612l4.562-1.326l-2.925-5.131l-8.985-2.867l0.479-1.487
                l-3.175,1.129l0.529-2.206l-3.228,1.668l-0.151-5.541l2.85-2.578l-6-7.851l-8.198-6.231l-4.422-0.094l-4.613,3.936l-5.896-3.702
                l-3.498,1.519l-3.989-2.693l1.455,2.914l-1.418,1.644l-15.33,1.375l-21.037-3.239l-3.44,1.061l-4.492-3.104l-1.67,0.976
                l-0.562,2.942l8.871,24.539l7.929,9.776l5.896,3.701l8.557,1.664l6.289,10.119l4.871-0.358l-2.312,3.758l3.049,1.008l4.562,6.611
                l2.772,1.579l5.834-2.692l3.107,1.404l0.907,3.437l-1.627-1.078l-2.916,3.502l-1.469,7.142l-6.773,1.778l0.757,1.688l-5.558,3.154
                l4.58,3.407l1.86-2.867l7.396,5.966l-0.467,10.748l13.271,1.938l5.766,13.633l5.437-4.522l6.228,3.537l1.472-0.938l0.631,2.063
                l3.49-3.007l4.5,3.007l0.813-4.353l1.973-0.879l2.808,3.032l3.983-2.448l4.222,2.569l1.045,5.306l3.17,2.103l1.481-2.334
                L906.861,652.035 M627.267,473.322l1.059-3.807l-5.532-1.604l-3.554-5.155l-2.312,2.129l-2.968-1.645l-1.588,1.712l-3.913-3.357
                l-3.207,7.933l-0.272,8.872l4.746,5.974l10.358,5.646l8.633-11.966l0.667-2.338L627.267,473.322 M628.325,532.451l-9.244,5.8
                l-0.208,11.893l-5.349,8.072l-0.259,2.873l6.301,4.612l-1.159,3.488l-1.814-2.205l-0.366,3.963l4.121,5.771l0.819-4.592
                l1.865-1.918l1.008,1.129l-1.814-3.248l4.833-13.58l2.324-18.834l2.117-0.531L628.325,532.451 M641.053,537.248l-2.634,2.734
                l2.634,7.584l2.451-4.9L641.053,537.248 M672.632,553.214l-4.291-6.437l-11.688-0.695l-4.499,2.4l0.688,4.187l6.2,2.53
                l7.731,7.968l4.518-3.231L672.632,553.214 M718.529,516.8l-1.418-2.594l-7.884-3.129l-9.317-15.013l-3.688-2.007l-0.252,1.937
                l-3.438,1.392l2.274,7.298l6.709,2.381l9.66,10.245l5.16,2.03l9.59,10.962l-6.906-9.567L718.529,516.8 M757.789,555.363
                l-4.235-16.996l-9.558-7.58l-2.016,5.004l16.055,22.535L757.789,555.363 M778.505,600.734l0.26-5.942l-4.551-10.496l4.291,4.252
                l-0.356-1.315l-12.44-18.64l-3.162,0.537l-4.171-3.629l-0.1,4.707l-8.16-11.869l-3.971-2.558l-3.779,1.515l1.631-2.733
                l-4.397-5.587l-9.161-4.887l-3.687,0.481l-4.649,5.869l2.286-4.535l-1.36-4.047l1.397-0.183L715,538.248l0.599,10.099l2.401,3.228
                l-4.286,15.41l5.873-0.588l0.049,1.442l-2.694,1.83l1.348,2.342l-4.739,2.427l-2.004,9.6l-2.563,2.945l0.209,4.452l15.877-14.834
                l4.599-7.471l4.739-1.358l4.726,2.366l5.293,8.567l4.328,0.654l-0.869,2.213l4.617,3.754l1.053-1.03l1.017,2.149l-2.642,2.103
                l2.42,2.164l8.728,1.069l11.795,9.194l3.629,5.606l1.367-1.459L778.505,600.734 M806.615,437.369l-6.83-4.739l-1.676,2.101
                l-7.158-14.188l-5.11,1.911l-0.99-1.27l-1.6,7.045l1.021,13.446l-1.701,5.769l-6.302,5.947l1.65,5.012l10.87,6.551l4.947-6.012
                l3.237-0.385l3.195,3.661l1.594-8.038l4.134-0.605l-1.449-9.696l2.168-0.587l-2.168-3.77L806.615,437.369 M627.512,419.271
                l-10.894-9.734l-2.898,0.385l2.986,6.17l16.401,10.709l-0.334-3.662L627.512,419.271 M637.625,364.494l-2.962-0.487l0.524-2.744
                l-7.6-0.407l1.203,2.921l9.363,5.56l1.146-2.421L637.625,364.494 M619.818,347.716l-0.019-2.203l-5.974-1.071l-2.652,2.181
                l-3.831-1.642l-1.38,2.62l-0.624,5.21l4.574,4.065l0.479,4.572l3.888,5.631l-1.947,7.406l2.438,2.434l4.953-2.646l1.513-3.856
                l-4.304-14.182l3.466-2.393l-0.58-4.511l3.692,2.202l0.372-1.661L619.818,347.716 M617.172,34.547l-1.902-2.149l-4.184,1.238
                l-4.523,12.781l2.443,0.975l9.553-10.024L617.172,34.547 M558.31,19.435l-1.601,7.041l4.234,5.429l0.561-4.951L558.31,19.435
                 M572.052,41.004l-8.393,1.767l-0.069,1.462l9.88,0.882l5.5-2.45L572.052,41.004 M582.713,8.088l-0.737-5.74l-9.357-0.766
                l-3.478,2.155l3.724,5.717l7.693,3.475l3.749-1.859L582.713,8.088 M617.645-12.138l-5.967,1.43l-0.156,1.77l6.18,2.988
                l1.538-4.842L617.645-12.138 M620.159-83.932l-3.391,2.193l-3.396,8.391l3.799-1.128l-0.579-3.008l5.317-4.524L620.159-83.932
                 M609.895-106.142l-1.657-5.358l-5.374,10.658l3.364,0.324L609.895-106.142 M607.142-72.706l1.562,5.694l2.432-3.145
                L607.142-72.706 M436.066,658.25l-4.052-2.204v4.088l2.583,2.957l2.697-0.539L436.066,658.25 M434.598,647.976l-3.112,1.664
                l-0.221,2.74l4.461-2.259L434.598,647.976 M803.654,688.082l-4.033-1.002l-3.353,7.894l1.261,1.084l6.022-3.014L803.654,688.082
                 M810.32,686.324l-4.444,2.347l0.057,2.803l7.714,0.527l0.92-1.906L810.32,686.324 M874.525,744.869l-5.099-11.86l-7.106-3.496
                l0.642,7.472l4.104,2.748l5.819,9.194l2.403-1.075L874.525,744.869 M531.19,1091.294l-2.86,3.209l5.732,2.768l0.524-3.112
                L531.19,1091.294 M611.842,1055.104l-9.736-3.445l6.277,5.918l6.622-2.473H611.842 M694.634,948.726l-5.16-4.264l-1.707,3.188
                l-4.228-2.644l-2.647,3.694l0.492,4.963l3.213,2.103l8.412-4.842l-0.478-2.688L694.634,948.726 M912.941,983.039l-0.726-14.737
                l-5.115-4.789l-3.231,9.908l3.371,1.418l4.586,12.467L912.941,983.039 M928.347,767.32L927,761.892l-2.944-0.418l-1.491,11.108
                l2.432,4.156l2.879-1.834L928.347,767.32 M915.324,684.664l-4.765-0.495l-2.25-5.287l-3.42,0.228l-0.245,4.131l6.604,4.127
                l4.453-0.674L915.324,684.664 M820.677,619.363l-5.916-9.685l-13.476,0.487l9.563,16.244l10.567-0.994l1.229-3.637
                L820.677,619.363"/>
            <path d="M837.369,613.933l-1.996-4.144l-4.393-2.897l0.61,5.597l7.045,9.006l1.908-5.407L837.369,613.933 M973.171,955.229
                l1.588-6.992l-1.801-2.851l3.271-3.097l-3.058-12.692l1.06-7.332l-7.386-2.151l-8.084-10.949l0.966-3.756l4.461-3.688
                l-1.677-5.157l2.685-3.935l-0.529-11.397l-7.567,4.178l-1.776-2.162l3.854-6.172l-4.328-4.268l3.681-3.822l-0.771-4.728
                l3.215-0.834l-0.491-2.086l-2.724-3.877l-11.586-1.078l0.644,2.683l-5.445-0.481l-3.711-6.269l6.756-6.397l4.396,0.245
                l-1.58-3.816l5.103-2.73l3.516-6.696l-2.532-8.114l-10.36-10.777l3.17-16.756l-12.539,4.699l-4.75-6.197l-0.209-5.762l-2.947,1.26
                l-3.473-1.824l4.373-3.328L927,783.51l-1.583,2.148L924,782.56l-6.59-3.532l-15.905-5.841l-2.57-2.885l-1.639-8.41l-10.043-5.385
                l-4.707,11.183l10.889,37.379l-1.758,15.03l-5.842,2.802l-10.017-1.099l-7.979-7.261l-2.4,6.232l0.744,10.358l-6.301,3.638
                l-14.763-12.951l-8.198-1.209l-2.142,3.021l0.472,18.715l-3.212,4.938l2.111,5.875l-1.582,7.58l-6.976,1.924l-2.06,3.455
                l1.625-6.508l-5.803-0.484l-7.927-4.896l-0.789-3.31l-4.971,1.334l-6.502,7.356l-4.65,14.973l1.002,3.425l-3.282,5.373
                l-20.392,3.554l-22.644,16.105l0.642-5.784l6.428-1.752l8.923-8.31l-2.961-22.672l-6.654-12.236l-11.002-4.983l-2.741,6.927
                l-4.605-3.13l-0.688-6.016l-8.966-1.917l3.037,5.81l-5.017,1.265l-4.133,7.875l-5.897,1.135l-3.636-1.821l-11.851,4.104
                l-3.858,7.322l0.328,4.295l-2.961,2.694l4.297,5.996l-5.293,5.562l-16.267,3.653l-3.354-1.274l-0.981-2.565l-3.157,4.386
                l-15.52,3.311l-14.422,6.808l-11.36,16.494l0.66,13.203l2.515,1.14l-5.885,5.922l-2.734,11.651l1.267,4.571l-9.104,7.082
                l-2.76,6.117l0.088,6.549l2.948,6.164l7.813,4.851l6.251,1.653l2.771-2.498l6.894-13.487l2.86-15.384l7.133-6.166l-1.902-6.288
                l7.119-7.044l0.284,3.328l1.853-1.825l1.398-4.384l-4.026-0.004l0.794-2.367l5.236-6.864l8.298-6.176l6.629-1.123l2.69,2.694
                l5.859,0.849l-1.625,5.698l2.684,11.3l-2.418-0.625l-0.889,3.454l2.815,2.548l4.215-1.304l3.156-5.638l2.59,4.845l4.328,1.078
                l3.385-14.401l5.236-6.796l1.739,6.302l3.592,2.772l-0.739,2.926l-3.842,1.298l1.008,4.686l3.326,2.535l4.663-3.397l2.824,0.304
                l4.787,7.86l6.881,4.078l2.074-3.146l-0.474-3.461l-7.599-9.419l0.668-1.338l2.338,1.058l0.597-3.453l6.629-3.475l0.94-3.566
                l-4.116-7.291l11.014-2.994l9.062,2.359l6.988,7.791l9.034,0.914l11.947,7.58l8.582,14.737l5.475,0.913l-4.877,14.007
                l-11.944,8.765l-4.229,11.805l-0.75,10.479l2.488,3.646l3.045-1.073l1.487,19.463l-1.772,0.81l1.701,8.254l11.362,17.017
                l29.752,15.685l1.539,2.394l27.705,10.538l8.164-0.248l1.519-1.811l5.356-17.658l7.188,1.238l2.112,8.971l-7.498,14.256
                l4.384,5.545l3.907,1.729l1.556,9.965l4.871,0.522l5.041-3.524l17.881-26.199l2.471-7.117l0.566-8.608l-9.035-27.538l-2.836-2.023
                l-1.449,0.947l-7.926-8.113l0.19,2.175l-2.25-0.052l-2.162-6.727l2.011-10.843l5.967-7.991l2.269-8.064l7.246-3.078l3.161-3.502
                l1.854-12.446l10.731-7.416l3.584,1.192l-0.201,6.472l4.026,12.036l6.496,7.473l-0.24,6.73l3,4.265l4.41,1.912l1.234,25.879
                l8.141,18.194l4.412-36.375l-6.586-12.535l1.582,1.617l-0.051-3.291l3.932,0.463l5.123,9.552l2.383,0.907l0.283-4.938
                l-3.215-3.473l0.605-4.387l3.089-4.031l5.267,1.578l3.768-1.818l0.796-4.973l10.521-15.102l0.416-1.494L973.171,955.229
                 M576.662,555.765c-0.426-0.145-0.74-0.319-0.77-0.778c-0.016-0.242,0.019-0.604,0.343-0.422c0.213,0.118,0.799,0.166,0.705,0.549
                C576.917,555.21,576.72,555.785,576.662,555.765z M572.475,558.501c-0.353-0.178-0.158-1.369,0.058-1.229
                C572.732,557.4,572.624,558.583,572.475,558.501z"/>
            <path d="M580.168,502.076c1.028-2.033,4.321-1.732,4.398-4.334c0.016-0.302,0.113-1.377-0.174-1.523
                c-0.947-0.479-1.469-1.416-2.493-1.648c-0.508-0.115-0.826-0.46-1.384-0.431c-0.848,0.048-1.474,0.537-2.237,0.831
                c-0.979,0.377-2.924-0.035-2.916-1.299c0.006-1.059,0.719-1.97,0.754-3.01c0.039-1.155-0.311-2.299-1.322-2.92
                c-0.344-0.21-0.845-0.493-1.253-0.546c-0.357-0.047-0.865,0.3-1.169-0.02c-0.308-0.321-0.161-0.382-0.634-0.387
                c-0.466,0.03-0.788,0.511-0.938-0.164c-0.101-0.459-0.557-0.748-0.789-1.147c-0.412-0.705-0.713-1.455-1.195-2.122
                c-0.901-1.245-2.278-2.022-3.279-3.175c-0.295-0.34-0.562-0.576-0.896-0.874c-0.218-0.192,0.442-0.633,0.038-0.901
                c-0.687-0.459-1.514-0.765-2.238-1.173c-1.348-0.76-2.187-1.771-3.203-2.897c-0.563-0.624-1.196-1.17-1.809-1.746
                c-0.158-0.148-0.566-1.33-0.514-1.33c-0.284,0-0.933,1.302-1.43,1.495c-0.6,0.232-1.59,0.071-2.024,0.379
                c-0.21,0.544-1.002,0.569-0.749,1.093c0.332,0.687-0.12,1.524-0.288,2.207c-0.188,0.771-1.227,0.657-1.046-0.035
                c0.304-1.167,1.31-1.479,0.469-2.806c-0.388-0.614-1.396-0.693-2.042-0.609c-0.381,0.05-0.789,0.162-1.175,0.162
                c-0.329,0.106-0.61,0.438-0.94,0.486c-0.527,0.08-0.872,0.261-1.395,0.286c-1.115-0.006-1.301-0.718-1.971-1.445
                c-0.446-0.484-1.045,0.114-1.186-0.878c-0.075-0.534-0.528-0.779-0.965-1.062c-0.463-0.3-0.983-0.678-1.303-1.136
                c-0.192-0.275-0.167-0.731-0.594-0.711c-1.235,0.062-0.695-0.388-1.396-1.089c-0.271-0.271-0.768-0.601-0.849-1.004
                c-0.07-0.354,0.632-0.143,0.797-0.233c0.166-0.095,1.458-1.718,1.563-1.646c-0.28-0.189-1.605-0.261-2.017-0.263
                c0.117,0.143,0.958,0.868,0.896,0.947c-0.201,0.259-0.667-0.184-0.864,0.04c-0.766,0.864-0.721-0.528-1.283-0.548
                c0.029,0.001,0.06,1.1-0.789,0.981c-0.896-0.123-0.734-0.844-1.255-0.008c-0.286,0.458-0.619-0.465-0.84-0.479
                c-0.219-0.014-0.656,0.535-0.826,0.687c-0.452,0.4-0.918,0.346-1.483,0.416c-0.584,0.07-0.924,0.711-1.425,0.959
                c-1.257,0.621-2.84,0.673-4.194,0.869c-0.571,0.082-0.635,0.809-1.244,0.8c-0.767-0.011-1.528,0.105-2.295,0.09
                c-1.442-0.032-2.379-1.259-3.74-1.575c-1.122-0.261-2.293-0.615-3.454-0.556c-1.215,0.062-2.468,0.214-3.652-0.116
                c-0.595,0-1.411-0.504-1.963-0.707c-0.65-0.248-1.32-0.444-2.003-0.586c-0.55-0.108-0.7,0.281-1.188,0.453
                c-0.55,0.192-1.495,0.178-1.971-0.189c-0.938-0.723-1.388-0.231-2.457-0.119c-0.689,0.073-1.557,0.058-2.169-0.319
                c-0.354-0.219-0.648-0.522-1.004-0.741c-0.378-0.233-0.81-0.152-1.208-0.33c-0.707-0.316-0.978-0.556-1.775-0.396
                c-0.646,0.129-1.274,0.32-1.9,0.52c-1.394,0.44-2.501,0.714-3.466,1.808c-0.963,1.089-2.21,1.235-2.644,2.839
                c-0.093,0.345-0.071,0.771-0.232,1.093c-0.143,0.28-0.465,0.473-0.423,0.819c0.107,0.881,0.668,1.745,1.222,2.41
                c0.834,1.001,1.942,2.24,3.267,2.524c0.681,0.146,1.523,0.278,2.181-0.033c0.485-0.229,0.263-1.271,0.266-1.672
                c0.003-0.499,0.044-0.883,0.603-0.952c0.854-0.106,1.171-0.337,1.871-0.821c0.968-0.668,3.394,0.152,3.63,1.413
                c0.215,1.139-0.908,2.967-0.094,3.921c1.004,1.175,1.104,1.868,1.109,3.442c0.004,1.194,0.004,1.744,0.774,2.632
                c0.544,0.626,0.669,0.817,1.522,0.879c0.787,0.058,1.012,0.279,1.082,1.118c0.053,0.637-0.533,2.768,0.531,2.292
                c1.208-0.537,2.998-0.569,4.197,0.039c1.084,0.549,1.033,2.209,2.384,2.451c1.604,0.288,2.423,0.22,3.435,1.581
                c0.806,1.081,1.52,2.376,2.266,3.386c0.781,1.06,0.992,2.519,1.725,3.632c0.635,0.969,1.438,1.725,1.958,2.785
                c0.336,0.688,0.609,1.415,1.017,2.064c0.315,0.504,0.889,0.978,1.037,1.571c0.439,1.759,0.575,3.662,0.771,5.458
                c0.289,2.631,1.237,5.463-1.024,7.396c0.713,0.318,1.498,0.463,1.643,1.302c0.312,1.849,0.386,3.73,0.623,5.589
                c0.16,1.272,0.12,2.571,1.765,2.224c0.877-0.187,1.156-0.523,2.071-0.177c1.146,0.439,1.389,0.459,1.644,1.718
                c0.265,1.288,1.162,2.395,2.104,3.286c0.935,0.888,1.545,1.92,2.229,3.017c0.556,0.892,1.036,1.827,1.438,2.799
                c0.549,1.328-0.712,2.213-1.193,3.352c-0.938,2.207,1.47,4.857,2.616,6.548c0.435,0.641,0.789,1.319,1.062,2.045
                c0.046,0.209-0.096,0.479,0.022,0.647c0.476,0.681,1.297,0.654,2.055,1.056c1.21,0.637,1.587,2.229,2.19,3.346
                c0.646,1.197,2.106,1.627,3.071,2.57c0.418,0.405,0.867,0.799,1.43,0.987c0.639,0.215-0.064-0.662-0.088-0.901
                c-0.084-0.828,0.686-0.959,1.348-0.75c0.478,0.151,1.09,1.205,1.211,1.637c0.124,0.438-0.161,0.711-0.161,1.109
                c0-0.183,0.759-0.226,0.924-0.244c0.354-0.041-0.054-0.691,0.435-0.791c0.047-0.011,0.703,0.375,0.727,0.42
                c0.289,0.547-0.773,0.809-1.009,0.998c-0.384,0.307-1.747,1.635-1.761,0.338c-0.006-0.638,0.301-1.162,0.319-1.75
                c0.008-0.17-0.847-0.564-0.92-0.492c-0.178,0.18,0.221,2.248,0.105,2.701c-0.096,0.377-0.334,0.688-0.502,1.031
                c-0.193,0.397,0.331,0.526,0.207,0.879c-0.364,1.032,0.781,0.485,1.231,1.272c0.159,0.277-0.416,0.42-0.224,0.685
                c0.141,0.19,0.505,0.744,0.735,0.854c0.298,0.141,0.906,0.019,1.257,0.025c0.441,0.008,0.854-0.234,1.207-0.222
                c1.251,0.048,2.466,0.169,3.701,0.285c0.562-0.201,0.076-0.944,0.209-1.537c0.069-0.315,0.273-2.129,0.582-2.129
                c0.636,0,0.104,1.972,0.07,2.228c-0.104,0.776-0.205,1.375,0.35,1.899c0.386,0.365,0.867,0.566,1.277,0.896
                c0.378,0.301,0.633,0.727,0.992,1.049c0.454,0.408,0.68-0.482,0.759-0.848c0.139-0.636,0.521-1.308,0.548-1.938
                c0.013-0.242-0.104-1.973,0.448-1.375c0.05-0.399-0.099-1.324,0.49-1.031c0.444-1.485,1.327-0.506,2.273-1.338
                c0.413-0.362,1.188-0.502,1.667-0.174c0.649,0.441,1.028-1.063,1.205-1.426c0.314-0.644,1.422-2.144,1.835-0.703
                c0.133,0.457,0.044,1.211,0.438,1.545c0.444,0.375,0.688,0.074,1.177,0.293c0.147,0.066,0.927,0.984,1.127,0.689
                c0.151-0.226-0.248-1.104-0.305-1.345c-0.066-0.274-0.445,0.031-0.494-0.321c-0.099-0.709,0.118-1.484-0.072-2.179
                c-0.106-0.395-0.534-0.657-0.43-1.102c0.091-0.387,0.18-1.242,0.646-1.322c0.53-0.092,1.405-0.238,1.927-0.047
                c0.554,0.203,0.952,0.58,1.567,0.744c0.212,0.055,1.297,0.434,1.297-0.156c0-0.375-1.017-0.754-1.238-1.094
                c-0.32-0.492-0.43-0.936-1.042-1.074c-0.224-0.049-1.323-0.549-0.677-0.824c0.639-0.27-0.085-2.762-0.128-3.405
                c-0.032-0.49-0.076-0.556,0.419-0.642c0.724-0.125,0.375-0.961,0.761-1.492c0.123-0.172,0.408-0.666,0.696-0.596
                c0.111,0.027,0.434,0.422,0.545,0.199c0.234-0.469-0.033-0.451-0.207-0.797c-0.226-0.443-0.525-1.717-0.562-2.224
                c-0.057-0.78,1.316-0.469,1.732-0.51c1.267-0.125,2.525-1.487,3.384-2.322c0.418-0.403,0.895-0.77,0.991-1.366
                c0.097-0.254,0.097-0.552,0.223-0.8c0.291-0.571,1.224-1.893,1.818-2.133c0.723-0.295,1.39-0.274,1.367-1.242
                c0.053-0.567-0.641-1.028-0.636-1.567c0.007-0.853,0.025-1.705,0.017-2.558c-0.01-0.67-0.487-0.909-0.69-1.522
                c-0.402-1.215-0.614-2.113-1.676-2.973c-1.125-0.908-2-1.334-2.597-2.75c-0.342-0.811-0.412-1.703-0.349-2.479
                c0.179-0.934,0.317-1.861,0.544-2.788c0.229-0.939,0.582-1.485,0.503-2.51c-0.035-0.442-0.308-0.729-0.403-1.133
                c-0.255-1.056-0.548-2.037-0.045-3.064c0.375-0.769,0.964-1.508,0.923-2.396c-0.044-0.92-0.267-1.742-0.479-2.619
                c0.103-0.021-0.53-2.229-0.575-2.467C578.739,504.022,579.664,503.072,580.168,502.076
                C580.356,501.702,580.053,502.305,580.168,502.076L580.168,502.076z M551.835,563.583c-0.595,0.383-2.847-0.764-2.274-1.453
                c0.486-0.586,0.992,0.224,1.346,0.529C550.996,562.738,552.533,563.136,551.835,563.583
                C551.746,563.64,552.015,563.468,551.835,563.583z M496.238,456.221c-0.526-0.055-1.187-0.35-1.691-0.523
                c-0.812-0.281-1.318-1.146-2.19-1.514c-0.716-0.298-1.633-0.999-2.415-0.97c-0.637,0.023-1.906-0.435-1.892-1.231
                c0.925,0.233,2.165,0.271,3.021,0.605c0.247,0.096,0.287,0.629,0.625,0.578c0.479-0.072,0.854-0.275,1.271,0.111
                c0.299,0.275,0.336,0.721,0.811,0.796c0.6,0.095,1.21-0.087,1.809-0.131C496.48,453.878,497.423,456.344,496.238,456.221
                L496.238,456.221z M488.19,444.413c-0.259-0.08-0.285-0.478-0.533-0.545c-0.201-0.058-0.375,0.116-0.569,0.12
                c-0.373,0.004-1.046-0.451-1.373-0.647c-0.466-0.271-0.223-1.6-0.524-1.655c-0.248-0.047-0.898,0.487-1.109,0.011
                c-0.099-0.223,0.668-0.595,0.832-0.605c0.544-0.033,0.614,0.491,1.149-0.043c0.396-0.396-0.205-2.324,1.19-1.492
                c0.328,0.195,0.558,0.994,0.889,0.968c0.729-0.062,0.195-0.375,0.692,0.114c0.42,0.414,0.26-0.063,0.533,0.77
                c0.171,0.52,0.537-0.045,0.722,0.306c0.181,0.34-0.513,0.36-0.165,0.727c-0.077,0.217,0.063,0.098-0.175,0.369
                c-0.168,0.19,0.366,0.54-0.143,0.623c-0.316,0.053-0.681,0.021-0.955,0.218C488.432,443.803,488.411,444.482,488.19,444.413
                L488.19,444.413z M481.268,440.717c0.602,0.416,1.118,0.853,1.349,1.468c0.13,0.346-0.562,0.6,0.035,0.808
                c0.464,0.16,0.811-0.162,1.04,0.361c0.166,0.383,0.223,0.752,0.592,0.982c0.081,0.215,0.015,0.508,0.097,0.753
                c0.362,1.089,0.281,0.946,1.24,0.946c0.024,0-0.251,0.853,0.002,0.953c0.193,0.078,1.182,0.506,0.396,0.482
                c-0.894-0.025-3.421,0.047-2.159,1.608c0.349,0.433,0.982,0.987,1.59,0.834c0.246-0.062,1.332-0.649,1.332-0.074
                c0,0.288-0.726,0.097-0.484,0.688c0.155,0.381,0.7,0.728,0.15,0.923c-0.516,0.182-1.3-0.373-1.173,0.529
                c0.092,0.653-0.222,0.771-0.516,0.199c-0.25-0.484-0.663-0.896-0.902-1.37c0.021,0.039,0.078-0.684,0.099-0.397
                c-0.02-0.275-0.412-0.419-0.622-0.487c-0.721-0.56-1.046-0.529-1.926-0.61c-0.432-0.038-0.707-0.062-0.736-0.514
                c-0.051-0.745-0.727-1.189-1.378-1.431c-0.657-0.243-1.557,0.024-2.077-0.399c-0.389-0.315-1.003-0.715-1.095-1.227
                c-0.078-0.439-0.706-0.764-1.137-0.764c-0.882,0-1.231-0.257-1.756-1.036c-0.358-0.535-0.481,0.005-0.877-0.189
                c-0.408-0.201-0.729-1.371-0.916-1.793c-0.228-0.52-0.399-1.817,0.035-2.241c0.713-0.694-2.191-0.573-0.749-2.01
                c0.732-0.729,2.461-0.584,3.339-0.102c0.546,0.302,1.29,0.477,1.771,0.864c0.572,0.462,0.799,1.052,1.273,1.589
                c0.33,0.371,0.999-0.094,1.363-0.013c0.647,0.312,0.937,0.449,1.106,1.117c0.087,0.337,0.855,0.219,0.965-0.065
                C480.7,440.673,480.635,440.279,481.268,440.717C481.494,440.874,481.139,440.628,481.268,440.717L481.268,440.717z
                 M467.565,436.876c-0.265-0.021-0.401-0.313-0.555-0.488c-0.32-0.366-0.771-0.343-1.141-0.604c-1.083-0.759,0.22-1.245,0.859-1.33
                c0.884-0.117,1.076,0.344,1.439,1.019c0.112,0.211,0.686,0.612,0.646,0.823C468.75,436.655,467.85,436.899,467.565,436.876
                L467.565,436.876z M550.682,573.138c-0.257-0.405-0.708-0.764-1.056-1.119c-0.498-0.514-1.104-0.008-1.266-0.93
                c-0.147-0.854-0.092-1.604-0.711-2.27c-0.18-0.191-0.566-0.757-0.881-0.738c-0.271,0.014-0.325,0.057-0.587-0.084
                c-0.331-0.18-2.095-0.652-2.093-1.082c0.003-0.289,0.275-0.58,0.147-0.875c-0.166-0.385-0.285-0.521-0.295-0.979
                c-0.034-1.612,1.222-4.811,3.312-3.174c0.602,0.47,0.627,1.279,0.822,1.947c0.244,0.826,0.674,1.611,1.016,2.402
                c0.196,0.451,0.488,0.813,0.249,1.258c-0.189,0.354-0.128,1.27,0.097,1.596c0.448,0.66,1.029,0.197,1.277,1.129
                c0.199,0.746,0.5,1.168,1.041,1.705c0.286,0.283,0.235,0.832-0.084,1.086C551.624,573.05,550.65,573.089,550.682,573.138
                L550.682,573.138z M543.523,570.974c-0.242-0.096-1.178-0.938-1.332-1.131c-0.178-0.225,1.414-0.869,0.656-1.108
                c-0.644-0.203-1.068,0.518-1.35-0.281c-0.174-0.498-0.205-1.947,0.651-1.785c0.926,0.178,0.513,0.848,0.971,1.307
                c0.278,0.277,1.538,0.656,1.265,1.386c-0.298,0.787-0.98-0.414-1.35,0.135C542.801,569.843,543.636,571.017,543.523,570.974
                L543.523,570.974z M510.701,404.931c-0.171-0.237-0.19-0.44,0.03-0.708C510.78,404.319,510.749,404.998,510.701,404.931z
                 M509.046,407.459c-0.114-0.005-0.519-0.339-0.538-0.455C508.407,406.385,509.584,407.485,509.046,407.459z M534.557,456.71
                c-0.624-0.262-1.317-0.11-1.89-0.483c-0.363-0.235-0.338-0.45-0.5-0.855c-0.194-0.479-0.563-0.051-0.875-0.051
                c-0.456,0-1.609-0.982-1.724-1.357c-0.446-1.466,1.648-0.674,2.36-0.386c0.392,0.158,0.969,0.628,1.373,0.659
                c0.229,0.019,0.408-0.17,0.615-0.181c0.918-0.041,1.839,0.08,2.758,0.062c0.519-0.011,1.434,1.267,1.035,1.762
                C537.347,456.329,535.104,456.947,534.557,456.71L534.557,456.71z M529.259,452.722c-0.22-0.032-0.455-0.555-0.183-0.683
                C529.245,451.956,529.484,452.755,529.259,452.722z M529.895,452.446c-0.245-0.188-0.291-0.979,0.148-0.845
                C530.245,451.664,529.943,452.483,529.895,452.446C529.88,452.438,529.903,452.454,529.895,452.446z M548.031,464.683
                c-0.425-0.153-0.322-0.425-0.534-0.697c-0.415-0.53-0.952-0.865-1.422-1.347c-0.068-0.068-1.184-1.362-0.82-1.501
                c0.246-0.09,1.255,0.576,1.731,0.495c0.411-0.07,1.269-0.724,1.632-0.634c0.516,0.134,0.677,1.996,0.736,2.371
                C549.466,464.077,548.932,465.006,548.031,464.683L548.031,464.683z M602.962,436.77c-0.44-0.372,0.021-0.727,0.19-1.168
                c0.119-0.312,0.184-1.438-0.424-1.159c-0.455,0.211-0.701,0.979-1.168,1.279c-0.445,0.286-0.709,0.298-1.104,0.692
                c-0.048,0.046-0.665-0.352-0.711-0.432c-0.182-0.329-0.055-0.907-0.057-1.275c0-0.15,0.144-0.332,0.125-0.466
                c-0.027-0.196-0.284-0.277-0.271-0.467c0.02-0.301,0.62-0.432,0.758-0.773c0.177-0.447-0.669-1.327,0.264-1.132
                c0.559,0.115,1.096,0.2,1.666,0.228c0.883,0.043,0.872-0.118,1.029,0.746c0.044,0.245-0.128,1.394-0.079,1.413
                c0.511,0.228,0.616,0.096,0.841,0.78C604.137,435.384,603.76,437.438,602.962,436.77L602.962,436.77z"/>
            <path d="M788.638,504.517l-0.094-2.876l-5.293-1.347l-2.686,5.114l-6.904-6.471l-8.469-4.29l-6.604,7.163l-4.02-0.709l1.889-3.676
                l-1.6-3.462l1.397-5.482l6.818-0.343l-8.689-8.8l-1.397-5.481l-4.5-5.964l-8.24-6.749l-1.896,0.625l-0.75-3.367l3.396-9.215
                l17.565,2.758l4.802-4.308h6.049l2.168,2.203l-2.148-5.464l-10.352-4.226l-7.152-7.625l-2.344,3.918l-14.625-2.841l-3.705-3.227
                l-2.117,4.353l-1.631-8.167h-1.582l1.109-2.148l-3.385,1.658l1.217-2.152l-2.351-4.404l0.283,2.205h-2.684l1.045,1.609
                l-4.801-1.34l0.149,4.283l-2.797,1.654l5.57,4.586l3.516-3.753l-0.77,3.322l-3.502,2.646l2.684,6.769l-1.021,2.449l-5.947,4.595
                l-9.035,0.712l-4.525-4.231l0.474-6.736l2.516-3.162l-0.529-6.896l-3.743-2.693l0.698-5.903l-10.772-8.92l-2.308-4.252
                l-14.977-6.724l0.838,4.672l-3.592,0.513l-9.016-5.04l-1.766,0.223l1.104,1.664l-2.799-1.727l-5.179,1.727l-3.875,4.988
                l-0.832,5.232l-1.871-0.41l1.115,5.432l-3.528,3.098l-3.162-7.58l0.34-4.661l-1.493,4.046l-3.78,0.965l-0.938,2.925l-1.589-1.664
                l3.542,6.316l8.135,5.621l-1.581,3.639l-8.508-1.483l3.757,6.503l-0.161,0.062c-0.856,0.027-2.402-0.734-3.085-1.152
                c-1.485-0.906-1.88,0.073-3.309,0.073c-0.82,0-2.915-0.598-3.398-1.323c0.043,0.063-3.797-1.169-4.046-1.147
                c-0.855,0.072-2.514-0.957-3.107-1.531c-1.329-1.275-3.428-1.21-5.034-2.396c-1.683-1.243-3.194-1.762-4.666-3.446
                c-3.316-3.799-8.276-5.801-11.148-10.017c-1.053-1.543,0.049-3.797,0.987-5.036c1.985-2.609-1.872-2.592-2.04-4.279
                c-0.209-2.162,0.896-3.113-1.309-5.205c-6.004-5.7-5.546-14.229-7.979-21.634l0.448-4.704l8.595-3.222l-10.101-10.119l1.587-1.078
                l-8.271-14.967l-2.066-9.435l-6.994-6.599l-0.095-8.795l2.816,0.324l3.609-5.037l1.758-7.468l10.341-10.14l-2.685-1.074
                l3.698-4.896l-5.242-2.953l-1.525-4.299l0.972-6.84l14.314-12.7l23.094-8.192l2.854-5.868l3.705-0.426l-10.636,18.097l4.75-3.682
                l1.374-4.329l9.823-8.179l2.174-6.502l-2.697,2.155l2.697-9.738l-1.109,1.616l-1.033-3.152l16.912-28.334l3.888-15.394
                l4.348-7.946l-2.174-3.883l-3.868,2.02l-2.646-2.495l-0.572-10.196l2.646,0.756l-2.25-4.213l-1.298-0.789l0.372,1.821l-2.88-3.764
                l-4.001,1.077l-4.846-1.584l-6.831-18.372l-2.104-11.344l3.692-19.469l-1.06-9.151l10.624-11.883l1.394-6.724l-2.149-5.3
                l-3.521-3.087l-1.268-5.698l-6.39-0.27l-2.597,9.122l-10.258,8.872l-10.378,0.192l-16.086-6.419l0.359,4.374l-4.461-5.576
                l-37.572-20.332l-13.925,6.028l-5.893-5.723l-2.93-0.446l-2.634,1.789l-0.63,4.755l-12.369,1.805l-3.169,2.898l0.692,13.919
                l-8.442,18.449l0.555,6.791l-6.654,17.603l1.64,5.406l-4.587,2.735l-1.5,9.593l5.286,2.957l3.22,10.273l-2.747,5.185l-0.473,9.142
                l2.646,15.657l-0.699,3.633l-8.336,11.235l-1.002,16.186l-2.363,0.16l2.363,5.271l2.294,19.921l4.738,4.979l0.357,5.005
                l-5.633,6.775l2.628,1.892l-2.28-0.274l-2.69,3.275l-0.529-3.011l-6.482,1.809l-5.395-1.062l-2.57-1.854l-1.387-6.898
                l-14.392-7.375l1.122-10.248l-8.859,1.812l-3.579,12.168l1.752,5.169l-1.738,15.229l1.158,2.331l6.439-2.693l3.176,5.923
                l-0.075,8.677l-2.079,1.642l4.063,4.156l-1.19,7.349l4.612,6.52l-1.777,3.039l-3.023-0.567l-1.06,4.252l9.056,12.575l3.705,16.311
                l0.282,13.332l1.803,5.91l1.588-0.584l-1.588,1.712l7.403,3.668l2.614-9.663l6.421,4.283l-3.743,4.62l2.226,1.574l-2.344,1.373
                l3.333,5.979l6.345,2.602l2.689,13.002l5.028,2.733l9.396-3.62l-0.479-14.283l-3.541-5.906l0.674-8.955l2.192-0.15l0.945-5.047
                l1.55,1.417l-0.913,5.246l2.117-1.071v-3.231l1.612,6.766l15.367,2.033l7.939,8.487c2.236,1.066,1.834,0.646,0.672,2.813
                c1.362-0.65,2.889,2.143,3.083,2.597c0.118,0.272-0.459,2.809-0.459,3.54c0,0.795,1.009,1.716,0.266,2.161
                c-1.475,0.875-1.814,2.373-3.972,2.517c0.03-0.002-0.768-0.106-1.061-0.462c-0.2,0.324,0.074,1.066-0.332,1.391
                c0.2-0.16-2.348-0.614-2.404-0.768c-0.752-2.002,2.499-1.657,2.948-2.108c0.224-0.227-1.298-0.199-1.349-0.255
                c-0.684-0.359,1.036-1.116,1.215-1.218c-3.083-0.355-3.24,2.58-4.042,5.516c-0.37,1.359-1.78,1.353-2.441,2.625
                c-1.109,2.138-5.11,4.501-6.926,6.042c-2.654,2.252-6.276,4.822-8.305,3.542c-0.089-0.055-2.415,1.682-2.32,2.172
                c0.514,2.726-0.369,2.889-2.092,3.081c-0.135,0.016-0.409-1.27-0.896-0.75c-0.157,0.173,1.187,2.686,1.152,3.534
                c-0.042,1.219,1.689,0.733,1.813,1.229c0.205,0.808-2.781,0.447-2.338,0.858c5.37,1.093-0.724,2.76-0.705,2.799
                c0.118,0.251,2.879,1.198,3.274,1.307c0.701,0.19,0.905,3.823,0.924,4.668c0.021,1.157-1.35,3.073-0.589,4.203
                c1.493,2.218,0.847,2.08-1.079,2.397c-0.092,1.157,1.302,0.977,0.826,2.135c-0.279,0.682,0.673,1.853,0.727,2.697
                c0.083,1.315-0.435,3.196-0.688,4.5c-0.302,1.547,1.071,1.909,1.104,2.538c-0.122,0.355-0.368,0.552-0.738,0.591
                c0.09-0.139,2.492,4.314,3.368,3.249c0.841-1.015,0.902-3.375-0.582-4.113c-1.921-0.971,0.947-3.105,2.861-1.975
                c3.541,2.089,1.099-1.647,0.724-2.608c-2.098-5.458,7.213-3.274,9.076-2.407c2.291,1.069,5.25,0.532,6.71,3.026
                c0.53,1.01,1.581,4.254-0.526,4.254c0.678,0,1.519,2.565,1.998,3.077c1.617,1.731-1.872,2.305-2.441,3.087
                c-0.581,0.797-3.107,4.424-0.002,4.369c1.258-0.021,4.284-3.834,4.512-4.932c0.686-3.269,7.143-3.104,7.374-0.558
                c0.118,1.282,0.493,1.596,0.969,2.824c0.436,1.124-1.185,1.806-0.869,3.03c0.255,1-1.208,3.746-0.999,4.105
                c1.337,2.301,7.855-0.406,9.739-0.537c1.66-0.116,9.871,6.218,11.303,1.991c1.145-3.382,5.222-4.358,7.771-3.064
                c0.812,0.412,4.314-2.238,3.89-3.152c-0.722-1.553-1.687,0.562-2.039-0.099c-0.127-0.235,0.633-1.377,0.62-1.799
                c-0.03-1.021-1.009-1.743-1.166-2.842c-0.129-0.911-0.008-3.48,0.793-3.539c1.092-0.08,2.651-3.068,3.565-3.746
                c1.795-1.325,4.518-1.68,6.539-2.785c1.784-0.976,2.086-0.507,3.409-0.488c1.16,0.019-0.1-1.146,0.726-1.502
                c1.2-0.514,3.099-0.72,4.399-1.033c3.22-0.776,0.369-4.72,5.75-3.923c1.707,0.253,1.516,1.669,3.553,1.533
                c2.205-0.147,0.821,2.859,1.619,3.817c0.758,0.905,4.59,0.407,4.801,0.915c0.822,1.984,1.819,3.262,4.196,3.137
                c1.159-0.061,3.56,0.981,3.443,2.207c-0.328,3.469,2.55,1.168,3.832,1.701c0.558,0.241,0.184,2.033,1.34,2.02
                c0.997-0.012,0.752,0.499,2.146,0.419c-0.132-0.462-0.105-0.954,0.075-1.399c1.212-1.167,5.22,6.216,5.595,6.479l3.509,6.589
                l9.68,2.407l3.905,3.345l10.194,14.319l1.405,4.527l-1.104,5.627l6.435,5.137l7.938-4.306l-1.393-11.87l-8.172-14.544l5.047,3.4
                l0.283-1.292l-10.719-9.058l-0.932-5.483l2.085-1.114l-0.221-6.639l-7.474-10.09l7.958,1.077l1.626-2.106l8.991,7.781l0.014,2.86
                l7.736,1.229l1.424,1.539l-1.455,0.58l8.507,6.999l-3.705,3.229l3.44,3.758l8.738,6.19l15.236,6.173l1.713,7.104l8.508,9.734
                l-1.689,9.087l2.406,8.497l5.805-2.501l4.354,0.569l12.688,11.346l3.392,0.52l3.817-3.515l-1.627,3.681l1.607,1.518l-0.611-1.875
                l3.295-0.091l-1.625,1.378l1.06,2.148l2.93-2.639l1.607,1.077l4.291-1.831l4.184-6.826l10.201,1.536l0.32,3.431l-2.078,2.527
                l-3.379-0.026l-4.031,3.027l-3.385-2.425l-1.884,2.606l-3.489,0.618l3.748,2.383l0.036,6.698l2.793,5.596l4.24,1.812l3.855,5.944
                l5.557,0.75l3.119-1.561l-0.529-5.654l3.177-3.811l1.041-10.813l-2.062-8.041l2.848-6.686L788.638,504.517L788.638,504.517z"/>
        </g>
        <!-- <g class="svg-text-alt full-labels">
            <text transform="translate(565 540)" font-size="50">Manila</text>
            <circle cx="541.768" cy="522.569" r="8.071"/>
        </g> -->
        <g class="svg-text full-labels">
            <text transform="translate(280 580) rotate(-30)" font-size="60">LMP</text>
            <use transform="translate(430 430) rotate(30)" xlink:href="#arrow" />
            <circle cx="507" cy="478" r="12"/>
        </g>
        <g class="svg-text-alt zoomed-labels">
            <text transform="translate(535 508)">Mindoro</text>
            <text transform="translate(519.5 481)">Mamburao</text>
            <use transform="translate(511.5 478) scale(0.12, -0.12) rotate(-105)" xlink:href="#arrow" />
            <circle cx="510" cy="488" r="1.2"/>
        </g>
        <g class="svg-text zoomed-labels">
            <g>
                <text transform="translate(490 496)">
                    <tspan x="0" y="0">Kaupawan</tspan>
                    <tspan x="0" y="3.5" class="faded">High School / Academy</tspan>
                </text>
                <circle cx="517" cy="491" r="1.2"/>
            </g>
            <g>
                <text class="inverse" transform="translate(521 488)">
                    <tspan x="0" y="0">Sulong Ipil</tspan>
                    <tspan x="0" y="3.5" class="faded">Elementary School</tspan>
                </text>
                <circle cx="518" cy="488.5" r="1.2"/>
            </g>
            <g>
                <text transform="translate(461 471)">
                    <tspan x="0" y="0">Binuangan</tspan>
                    <tspan x="0" y="3.5" class="faded">Elementary School</tspan>
                </text>
                <circle cx="488" cy="470" r="1.2"/>
            </g>
            <g>
                <text transform="translate(502 461)">
                    <tspan x="0" y="0">Agbalite</tspan>
                    <tspan x="0" y="3.5" class="faded">Elementary School</tspan>
                </text>
                <circle cx="500" cy="466" r="1.2"/>
            </g>
            <g>
                <text transform="translate(465 461)">
                    <tspan x="0" y="0">Pinagbayanan</tspan>
                    <tspan x="0" y="3.5" class="faded">Elementary School</tspan>
                </text>
                <circle cx="497" cy="465" r="1.2"/>
            </g>
            <g>
                <text transform="translate(503 526)">
                    <tspan x="0" y="0">Sablayan</tspan>
                    <tspan x="0" y="3.5" class="faded">Prision Ministry</tspan>
                </text>
                <circle cx="529" cy="525" r="1.2"/>
            </g>
        </g>
    </g>
    <g class="svg-ui" transform="translate(960 1080)">
        <g class="svg-btn svg-btn--plus">
            <rect width="80" height="80" rx="3" ry="3" fill="#000"/>
            <path fill="#FFFFFF" d="M52.346,47.439l16.258,16.257l-4.908,4.908L47.439,52.346v-2.607l-0.92-0.92 c-3.887,3.374-8.489,5.061-13.804,5.061c-5.931,0-10.966-2.044-15.107-6.135c-4.141-4.088-6.211-9.1-6.211-15.031 c0-5.929,2.071-10.966,6.211-15.108c4.141-4.14,9.176-6.211,15.107-6.211c5.929,0,10.94,2.071,15.031,6.211 c4.088,4.142,6.135,9.179,6.135,15.108c0,5.318-1.687,9.919-5.061,13.805l0.92,0.919H52.346z M22.285,43.145 c2.862,2.863,6.339,4.294,10.43,4.294c4.088,0,7.566-1.431,10.429-4.294c2.862-2.861,4.295-6.339,4.295-10.43 c0-4.088-1.433-7.565-4.295-10.43c-2.863-2.86-6.341-4.294-10.429-4.294c-4.091,0-7.568,1.434-10.43,4.294 c-2.864,2.865-4.294,6.341-4.294,10.43C17.991,36.806,19.421,40.283,22.285,43.145z M40.844,34.249h-6.595v6.595h-3.221v-6.595 h-6.595v-3.221h6.595v-6.596h3.221v6.596h6.595V34.249z"/>
        </g>
        <g class="svg-btn svg-btn--minus" transform="translate(100 0)">
            <rect width="80" height="80" rx="3" ry="3" fill="#000"/>
            <path fill="#FFFFFF" d="M52.348,47.438l16.256,16.257l-4.908,4.908L47.438,52.346v-2.607l-0.92-0.92 c-3.887,3.374-8.488,5.061-13.803,5.061c-5.932,0-10.966-2.044-15.107-6.135c-4.141-4.088-6.211-9.1-6.211-15.031 c0-5.929,2.07-10.966,6.211-15.108c4.142-4.14,9.177-6.211,15.107-6.211c5.93,0,10.939,2.071,15.031,6.211 c4.088,4.142,6.135,9.179,6.135,15.108c0,5.318-1.688,9.919-5.062,13.805l0.92,0.919L52.348,47.438L52.348,47.438z M22.286,43.145 c2.86,2.863,6.338,4.294,10.429,4.294c4.088,0,7.564-1.431,10.43-4.294c2.861-2.861,4.293-6.339,4.293-10.43 c0-4.088-1.433-7.565-4.293-10.43c-2.865-2.86-6.34-4.294-10.43-4.294c-4.091,0-7.568,1.434-10.429,4.294 c-2.864,2.865-4.294,6.341-4.294,10.43C17.992,36.806,19.422,40.283,22.286,43.145z M24.434,31.027h16.41v3.221h-16.41V31.027z"/>
        </g>
    </g>
</svg>
