<?xml version="1.0" standalone="no"?>
<!DOCTYPE svg PUBLIC "-//W3C//DTD SVG 20010904//EN"
 "http://www.w3.org/TR/2001/REC-SVG-20010904/DTD/svg10.dtd">
<svg version="1.0" xmlns="http://www.w3.org/2000/svg"
 width="1175.000000pt" height="1175.000000pt" viewBox="0 0 1175.000000 1175.000000"
 preserveAspectRatio="xMidYMid meet">
<metadata>
Created by potrace 1.11, written by Peter Selinger 2001-2013
</metadata>
<g transform="translate(0.000000,1175.000000) scale(0.100000,-0.100000)"
fill="#000000" stroke="none">
<path d="M1100 9528 c0 -9 25 -47 62 -93 15 -18 88 -119 88 -121 0 -1 -29 -20
-64 -43 -50 -33 -70 -40 -90 -35 -32 8 -32 2 -4 -70 21 -58 43 -70 43 -24 -1
19 10 32 46 56 l47 31 -5 -30 c-2 -17 -11 -49 -19 -71 -19 -54 -18 -79 4 -84
16 -5 17 -52 17 -809 l0 -805 -28 -11 c-39 -16 -47 -36 -31 -76 11 -25 11 -33
2 -33 -6 0 -24 -12 -39 -26 -23 -22 -30 -24 -49 -14 -29 16 -54 -7 -78 -74
-14 -35 -30 -58 -53 -73 -19 -13 -39 -27 -46 -33 -7 -5 -21 -10 -33 -10 -27 0
-26 -28 3 -33 17 -3 14 -5 -10 -7 -36 -3 -41 -4 -63 -13 -8 -3 -80 -25 -160
-48 -80 -23 -162 -50 -183 -61 -22 -11 -51 -20 -65 -21 -23 -2 -28 -9 -36 -44
-10 -48 -1 -112 17 -114 7 -1 2497 -2 5535 -3 l5523 -1 8 30 c8 30 6 82 -3
113 -5 15 -24 17 -163 17 -141 -1 -161 1 -187 19 -22 15 -49 20 -114 22 -58 1
-88 6 -90 14 -3 7 -13 21 -23 31 -15 15 -24 17 -45 9 -15 -6 -27 -9 -28 -8
-18 46 -37 65 -81 81 -28 10 -59 27 -70 38 -21 18 -21 18 -43 -3 l-22 -22 0
37 c0 36 -1 37 -27 31 -40 -10 -44 -10 -100 16 l-51 23 -4 53 c-1 30 1 55 5
57 5 1 -3 15 -17 30 -14 15 -20 29 -15 33 15 9 -20 44 -38 37 -8 -3 -19 0 -23
7 -7 11 -14 11 -34 2 -29 -13 -40 -3 -40 37 -1 35 -113 95 -165 88 -20 -2 -43
1 -53 6 -12 8 -29 5 -65 -13 -100 -48 -113 -53 -147 -54 -19 0 -38 -4 -42 -8
-13 -13 -24 -9 -18 7 5 13 1 13 -24 -2 -30 -17 -31 -17 -51 6 -16 18 -18 27
-10 38 9 10 5 14 -21 19 -18 4 -27 10 -20 14 8 5 6 11 -5 20 -11 9 -15 9 -15
1 0 -13 -24 -41 -34 -41 -3 0 -6 9 -6 20 0 10 -6 23 -14 27 -7 4 -21 23 -30
41 -17 34 -36 43 -36 17 0 -9 -12 -18 -30 -21 -18 -4 -32 -14 -36 -28 -3 -11
-15 -31 -26 -43 -13 -14 -19 -30 -15 -43 8 -33 -17 -51 -54 -38 -22 8 -34 7
-42 -1 -13 -13 -31 -15 -23 -2 3 4 -6 13 -20 20 -22 10 -28 9 -40 -6 -7 -10
-14 -21 -14 -25 0 -13 -27 -9 -39 5 -15 19 -1 30 17 14 13 -10 14 -8 9 15 -4
15 -3 28 4 30 6 2 7 12 1 27 l-9 24 -26 -29 c-15 -16 -27 -32 -27 -36 0 -11
-44 -10 -56 1 -5 5 -38 12 -74 16 -73 8 -152 38 -149 57 2 7 -3 38 -9 68 -7
31 -15 96 -17 145 -2 50 -7 117 -10 150 -3 33 -7 109 -11 170 -3 60 -7 112
-10 114 -2 2 -39 5 -81 7 -43 2 -121 6 -173 9 -52 3 -151 8 -220 10 -69 2
-156 6 -195 9 -38 3 -140 8 -225 12 -85 3 -171 8 -190 10 -19 3 -93 7 -165 10
-71 2 -146 6 -165 9 -19 3 -87 7 -150 10 -261 12 -317 15 -349 17 -30 3 -36
-1 -41 -22 -5 -21 -22 -31 -100 -61 -52 -19 -104 -39 -115 -43 -11 -5 -49 -19
-85 -33 -36 -13 -101 -40 -145 -58 -44 -19 -92 -37 -108 -40 -15 -4 -30 -12
-33 -17 -8 -13 -11 -178 -4 -178 4 0 4 -16 2 -35 -6 -50 -24 -32 -21 21 2 24
-2 49 -9 56 -9 9 -12 8 -12 -5 0 -11 -7 -16 -22 -14 -19 2 -23 -3 -24 -28 -2
-56 -3 -58 -16 -47 -7 6 -31 12 -53 14 -32 3 -40 8 -45 28 -4 18 -13 25 -30
25 -19 0 -26 6 -28 25 -2 14 -11 31 -20 38 -9 7 -15 16 -12 19 3 3 -10 14 -28
24 -44 23 -49 29 -33 38 10 6 9 11 -3 24 -9 8 -16 23 -16 31 0 9 -4 16 -10 16
-5 0 -10 6 -10 14 0 15 -21 26 -51 26 -10 0 -19 7 -19 15 0 8 -5 15 -11 15 -6
0 -9 -9 -6 -20 3 -11 1 -20 -4 -20 -5 0 -9 5 -9 11 0 8 -4 8 -12 1 -22 -18
-88 -19 -88 -2 0 6 11 15 25 20 17 7 23 15 19 27 -15 47 -28 60 -72 72 -54 16
-82 37 -82 62 0 32 -22 33 -50 2 -15 -17 -29 -35 -31 -41 -6 -15 -44 -19 -42
-4 4 17 -22 15 -37 -3 -9 -10 -9 -15 -1 -15 18 0 12 -19 -10 -30 -16 -9 -24
-8 -38 4 -15 14 -18 13 -29 -5 -7 -11 -10 -29 -7 -40 4 -11 2 -19 -4 -19 -6 0
-11 5 -11 10 0 7 -13 8 -34 5 -27 -6 -36 -3 -48 14 -22 31 -62 23 -65 -14 -2
-22 1 -26 18 -22 19 5 20 2 23 -48 1 -21 36 -35 36 -14 0 10 3 10 12 1 16 -16
6 -24 -32 -26 -26 -1 -35 -8 -45 -34 -11 -26 -20 -32 -43 -32 l-29 0 8 -47 c8
-40 7 -50 -8 -60 -9 -7 -13 -13 -7 -13 5 0 2 -6 -7 -13 -9 -7 -18 -16 -20 -22
-5 -13 -133 -3 -259 20 -70 12 -170 27 -210 32 -25 2 -62 8 -84 13 -36 8 -273
5 -431 -5 -69 -4 -175 -9 -435 -20 -264 -11 -286 -14 -645 -104 l-350 -87 -3
-98 c-1 -54 -6 -106 -11 -115 -6 -10 -6 -23 0 -32 6 -12 3 -21 -10 -33 -18
-16 -22 -16 -49 -2 -31 16 -49 56 -31 67 6 4 -14 14 -45 24 -54 17 -56 19 -56
52 0 33 -1 35 -27 28 -47 -13 -123 -11 -123 2 0 6 -11 20 -25 31 -14 11 -25
28 -25 38 -1 24 -17 46 -52 68 -27 17 -29 17 -63 -4 -19 -12 -35 -27 -35 -33
0 -23 18 -40 34 -34 9 4 16 2 16 -4 0 -5 -13 -15 -30 -20 -16 -6 -32 -19 -35
-29 -8 -25 -34 -32 -100 -28 -45 2 -57 0 -69 -17 -12 -16 -19 -18 -43 -10 -18
7 -28 18 -28 30 0 35 -34 45 -74 24 -20 -10 -52 -21 -71 -23 -56 -7 -72 -17
-67 -38 4 -12 1 -18 -6 -15 -7 2 -11 16 -10 30 1 14 -5 28 -13 31 -19 7 -54
-28 -54 -54 0 -22 -35 -29 -42 -8 -3 7 -10 8 -17 3 -7 -4 -30 -9 -50 -11 -20
-2 -46 -5 -58 -8 l-23 -5 0 215 c0 118 -3 214 -8 214 -4 0 -7 -106 -7 -236 0
-129 -3 -240 -7 -246 -3 -7 -12 -12 -20 -14 -11 -1 -13 146 -11 845 1 747 3
849 17 876 13 25 22 22 17 -7 0 -5 4 -8 10 -8 5 0 9 8 8 18 -1 9 -1 40 0 68
l1 52 116 -2 c104 -1 137 5 120 21 -6 7 -49 11 -146 14 -41 1 -86 9 -100 16
-14 8 -59 59 -100 114 -68 90 -100 118 -100 87z m98 -299 c-44 -30 -58 -35
-58 -21 0 11 83 61 93 55 5 -3 -11 -18 -35 -34z m3982 -1389 c0 -6 0 -13 0
-17 0 -5 -13 -8 -30 -8 -25 0 -30 4 -30 25 0 20 2 22 10 10 9 -14 14 -7 11 13
-1 4 8 3 19 -3 11 -6 20 -15 20 -20z m1005 10 c3 -5 -1 -10 -9 -10 -8 0 -18 5
-21 10 -3 6 1 10 9 10 8 0 18 -4 21 -10z"/>
<path d="M1293 9115 c0 -8 4 -15 9 -15 4 0 8 7 8 15 0 8 -4 15 -8 15 -5 0 -9
-7 -9 -15z"/>
<path d="M1293 9075 c0 -8 4 -15 9 -15 4 0 8 7 8 15 0 8 -4 15 -8 15 -5 0 -9
-7 -9 -15z"/>
<path d="M1294 9015 c0 -19 4 -35 8 -35 4 0 8 16 8 35 0 19 -4 35 -8 35 -4 0
-8 -16 -8 -35z"/>
<path d="M1293 8955 c0 -8 4 -15 9 -15 4 0 8 7 8 15 0 8 -4 15 -8 15 -5 0 -9
-7 -9 -15z"/>
<path d="M1293 8915 c0 -8 4 -15 9 -15 4 0 8 7 8 15 0 8 -4 15 -8 15 -5 0 -9
-7 -9 -15z"/>
<path d="M1294 8855 c0 -19 4 -35 8 -35 4 0 8 16 8 35 0 19 -4 35 -8 35 -4 0
-8 -16 -8 -35z"/>
<path d="M1293 8795 c0 -8 4 -15 9 -15 4 0 8 7 8 15 0 8 -4 15 -8 15 -5 0 -9
-7 -9 -15z"/>
<path d="M1293 8755 c0 -8 4 -15 9 -15 4 0 8 7 8 15 0 8 -4 15 -8 15 -5 0 -9
-7 -9 -15z"/>
<path d="M1294 8695 c0 -19 4 -35 8 -35 4 0 8 16 8 35 0 19 -4 35 -8 35 -4 0
-8 -16 -8 -35z"/>
<path d="M1293 8635 c0 -8 4 -15 9 -15 4 0 8 7 8 15 0 8 -4 15 -8 15 -5 0 -9
-7 -9 -15z"/>
<path d="M1293 8595 c0 -8 4 -15 9 -15 4 0 8 7 8 15 0 8 -4 15 -8 15 -5 0 -9
-7 -9 -15z"/>
<path d="M1294 8535 c0 -19 4 -35 8 -35 4 0 8 16 8 35 0 19 -4 35 -8 35 -4 0
-8 -16 -8 -35z"/>
<path d="M1293 8475 c0 -8 4 -15 9 -15 4 0 8 7 8 15 0 8 -4 15 -8 15 -5 0 -9
-7 -9 -15z"/>
<path d="M1293 8435 c0 -8 4 -15 9 -15 4 0 8 7 8 15 0 8 -4 15 -8 15 -5 0 -9
-7 -9 -15z"/>
<path d="M1294 8375 c0 -19 4 -35 8 -35 4 0 8 16 8 35 0 19 -4 35 -8 35 -4 0
-8 -16 -8 -35z"/>
<path d="M1293 8315 c0 -8 4 -15 9 -15 4 0 8 7 8 15 0 8 -4 15 -8 15 -5 0 -9
-7 -9 -15z"/>
<path d="M1293 8275 c0 -8 4 -15 9 -15 4 0 8 7 8 15 0 8 -4 15 -8 15 -5 0 -9
-7 -9 -15z"/>
<path d="M1294 8215 c0 -19 4 -35 8 -35 4 0 8 16 8 35 0 19 -4 35 -8 35 -4 0
-8 -16 -8 -35z"/>
<path d="M1293 8155 c0 -8 4 -15 9 -15 4 0 8 7 8 15 0 8 -4 15 -8 15 -5 0 -9
-7 -9 -15z"/>
<path d="M1293 8115 c0 -8 4 -15 9 -15 4 0 8 7 8 15 0 8 -4 15 -8 15 -5 0 -9
-7 -9 -15z"/>
<path d="M1294 8055 c0 -19 4 -35 8 -35 4 0 8 16 8 35 0 19 -4 35 -8 35 -4 0
-8 -16 -8 -35z"/>
<path d="M1293 7995 c0 -8 4 -15 9 -15 4 0 8 7 8 15 0 8 -4 15 -8 15 -5 0 -9
-7 -9 -15z"/>
<path d="M1293 7955 c0 -8 4 -15 9 -15 4 0 8 7 8 15 0 8 -4 15 -8 15 -5 0 -9
-7 -9 -15z"/>
<path d="M398 6493 c-12 -15 -19 -135 -8 -146 3 -3 31 -8 64 -12 145 -16 319
-77 331 -114 12 -41 23 -126 32 -256 8 -120 9 -2559 0 -2702 -12 -205 -24
-241 -86 -273 -46 -23 -165 -56 -236 -65 -80 -11 -109 -16 -114 -20 -10 -10
-4 -136 7 -147 12 -12 32 -12 332 -3 291 9 918 5 1380 -9 74 -3 309 -8 522
-11 321 -6 389 -5 392 6 2 8 14 57 27 109 31 134 162 519 274 811 8 22 -37 40
-111 44 -90 4 -98 -1 -129 -97 -26 -78 -111 -262 -134 -290 -6 -7 -32 -41 -57
-76 -145 -197 -303 -234 -999 -234 -313 0 -451 10 -491 37 -12 7 -24 29 -28
47 -3 18 -8 42 -10 54 -4 20 -8 49 -21 169 -7 60 -8 2585 -1 2635 3 19 7 62
11 95 3 33 8 71 10 85 3 14 7 35 10 48 9 50 18 63 56 82 43 22 197 65 269 75
25 4 49 10 54 15 11 11 15 97 6 130 -6 24 -9 25 -76 22 -38 -2 -85 -5 -104 -7
-187 -19 -584 -25 -795 -12 -60 4 -155 9 -210 12 -55 3 -112 8 -127 10 -16 3
-31 -2 -40 -12z"/>
<path d="M3689 6483 c-11 -29 -12 -113 -1 -129 4 -6 36 -14 72 -18 97 -10 258
-45 320 -69 86 -34 85 -31 84 -382 -1 -165 -4 -383 -8 -485 -14 -413 -27 -916
-41 -1635 -8 -446 -23 -579 -78 -690 -18 -38 -62 -84 -80 -85 -5 0 -23 -6 -40
-14 -41 -18 -93 -34 -137 -41 -19 -3 -51 -10 -72 -16 -20 -5 -62 -12 -94 -15
-32 -3 -60 -7 -62 -9 -11 -10 -17 -75 -11 -105 9 -43 27 -56 75 -53 22 1 107
5 189 8 83 4 182 8 220 10 101 5 337 6 425 1 41 -2 149 -7 240 -10 91 -4 172
-9 181 -12 11 -3 19 3 23 18 8 32 7 121 -2 135 -4 7 -39 17 -77 23 -111 18
-263 59 -316 86 -81 41 -84 50 -83 264 0 102 4 271 8 375 8 209 12 308 21 585
3 102 7 241 10 310 15 413 22 643 30 980 9 354 14 512 17 515 2 2 88 -214 192
-479 104 -264 240 -611 303 -771 156 -395 150 -380 253 -645 51 -129 98 -248
106 -265 7 -16 45 -113 84 -215 39 -102 75 -194 80 -205 5 -11 55 -137 110
-280 56 -143 108 -273 115 -290 7 -16 20 -51 30 -77 19 -52 38 -63 90 -54 71
14 143 120 239 354 26 62 58 138 71 167 14 30 25 58 25 63 0 5 6 22 14 38 18
37 51 114 59 136 3 10 35 86 71 170 36 84 135 322 221 528 86 206 179 429 206
495 28 66 54 129 59 140 4 11 15 36 23 55 8 19 42 100 75 180 152 365 305 728
319 757 20 42 37 33 57 -30 40 -130 49 -218 61 -583 2 -88 7 -222 10 -299 6
-157 12 -309 20 -565 3 -96 8 -215 10 -265 10 -230 18 -545 19 -700 2 -321
-14 -378 -113 -416 -74 -27 -141 -44 -234 -59 -88 -15 -93 -21 -85 -111 6 -55
8 -60 34 -61 18 -1 340 12 444 17 73 4 379 5 450 1 36 -2 144 -7 240 -10 96
-4 182 -10 191 -12 9 -3 19 1 21 8 9 23 9 133 0 145 -4 7 -27 15 -50 18 -58 7
-177 34 -231 51 -109 36 -126 63 -165 259 -26 127 -34 248 -41 635 -3 146 -7
366 -10 490 -40 1667 -39 1745 8 1840 16 34 35 52 72 72 61 33 194 76 253 81
23 3 45 7 48 10 19 19 5 175 -15 163 -38 -24 -918 -25 -1063 -1 -20 3 -30 -1
-37 -14 -6 -10 -60 -168 -121 -350 -87 -262 -287 -789 -385 -1016 -7 -16 -36
-88 -65 -160 -29 -71 -63 -153 -76 -182 -13 -28 -24 -55 -24 -58 0 -4 -6 -21
-14 -38 -8 -18 -31 -72 -51 -122 -54 -129 -85 -204 -107 -254 -11 -24 -28 -67
-39 -95 -11 -28 -24 -60 -29 -71 -5 -11 -53 -121 -105 -245 -53 -124 -101
-230 -108 -237 -7 -7 -17 -9 -23 -5 -6 4 -93 214 -193 467 -100 253 -187 469
-192 480 -18 39 -347 871 -354 895 -4 14 -11 30 -15 35 -3 6 -15 33 -25 60
-16 46 -33 87 -56 140 -25 58 -279 715 -284 737 -6 25 -29 43 -43 34 -4 -2
-54 -7 -112 -11 -58 -4 -123 -8 -145 -10 -51 -5 -412 -5 -485 0 -416 26 -390
26 -401 -2z"/>
<path d="M10107 6494 c-13 -13 -619 -20 -1130 -14 -98 1 -180 0 -183 -3 -19
-19 -26 -138 -9 -155 1 -2 27 -6 56 -9 78 -8 236 -49 289 -75 94 -47 94 -53
94 -1663 0 -1097 -4 -1402 -18 -1470 -12 -59 -21 -77 -48 -100 -40 -34 -189
-76 -314 -88 -23 -2 -46 -7 -53 -11 -14 -9 -15 -130 -1 -156 6 -12 18 -17 32
-15 156 25 1348 24 1391 -2 19 -12 36 126 19 154 -4 6 -27 14 -52 17 -178 24
-344 79 -389 127 -36 38 -55 120 -67 289 -9 122 -9 2391 0 2575 8 158 19 254
35 282 14 28 76 44 221 58 66 6 304 7 331 1 13 -3 35 -8 49 -10 341 -55 545
-372 543 -846 -1 -272 -96 -490 -288 -658 -115 -101 -252 -151 -418 -153 -87
0 -206 16 -293 41 -38 11 -72 20 -76 20 -12 0 -21 -67 -14 -103 13 -71 118
-148 247 -183 67 -18 277 -25 374 -12 272 35 531 177 701 383 134 163 253 418
283 605 10 65 8 311 -3 329 -3 5 -8 24 -10 42 -20 144 -127 347 -247 468 -156
157 -453 290 -729 327 -50 6 -318 13 -323 8z"/>
<path d="M361 2380 c-9 -22 -7 -127 2 -137 5 -4 2497 -8 5538 -8 l5530 0 6 24
c10 38 10 84 1 111 l-8 25 -5531 0 c-4919 0 -5532 -2 -5538 -15z"/>
</g>
</svg>
