<svg xmlns="http://www.w3.org/2000/svg" width="600" height="600" viewBox="0 0 600 600"><path fill="#333" d="M220.803 149.419c-4.99.996-10.662.844-17.383.25l-63.998-7.111 7.045-45.906c.629-4.111 1.404-7.844 2.309-11.102.863-3.111 2.086-5.795 3.631-7.979a1.906 1.906 0 0 0-.123-2.367l-.189-.215a1.91 1.91 0 0 0-2.699-.174L134.21 88.172a1.912 1.912 0 0 0-.173 2.699c.984 1.119 1.926 3.855.814 10.541l-8.223 49.562-7.939-9.025c-2.666-3.029-4.979-5.75-6.875-8.086-3.404-4.189-7.629-9.428-9.711-13.816-.654-1.375-2.209-1.688-3.182-.832l-12.967 11.41c-1.043.916-.785 2.488.418 3.26 6.363 4.094 14.332 13.242 19.609 19.242l30.949 35.182c8.35 9.135 13.18 15.938 17.02 22.508.531.908 1.957.826 2.699.172l12.969-11.408c1.059-.932.723-2.529-.42-3.262-2.975-1.908-8.367-7.08-12.416-11.338-2.064-2.164-4.467-4.807-7.145-7.85l-16.23-18.451 61.697 6.832c2.381.242 7.463.664 9.633 1.664a1.914 1.914 0 0 0 2.062-.305l15.832-13.928c1.635-1.434-.051-3.877-1.828-3.524zM306.57 126.583a1.913 1.913 0 0 0-1.83-.225c-3.201 1.277-6.818 2.498-10.781 3.635-3.402 1.023-7.451 2.059-12.033 3.076-4.045.902-8.523 1.668-13.338 2.289l-4.865-40.988c2.561-.262 5.246-.455 8.008-.574 3.457-.148 6.715-.176 9.688-.193 3.461-.025 9.229.09 10.186.076.955-.016 1.836-.809 1.926-1.793l.986-10.654c.131-1.418-1.203-2.383-2.418-2.041-2.371.658-5.176 1.324-8.334 1.984-2.699.561-6.045 1.197-9.941 1.9-3.365.607-7.135 1.189-11.234 1.74l-4.189-35.305c1.145-.199 2.283-.398 3.418-.598a244.5 244.5 0 0 1 4.543-.791 94.507 94.507 0 0 1 4.012-.582c3.297-.393 6.266-.613 8.824-.66 2.584-.045 4.803-.033 6.6.037 2.062.082 3.889.24 5.434.471.98.145 1.91-.482 2.141-1.447l2.375-9.922a1.915 1.915 0 0 0-2.442-2.266c-1.109.352-3.375.805-6.73 1.344-3.434.553-7.635 1.162-12.49 1.809-4.896.654-10.281 1.354-16.154 2.1-5.789.734-11.758 1.467-17.738 2.178-1.523.182-1.994 1.746-1.504 2.922.375.896.777 2.053 1.195 3.436.42 1.389.857 3.17 1.295 5.291.443 2.15.898 4.746 1.344 7.711.453 3.006.922 6.551 1.395 10.535l5.523 46.529c.475 4.002.85 7.559 1.111 10.57.26 2.996.426 5.611.494 7.771.066 2.145.104 6.775-.375 9.166-.227 1.133.791 2.504 1.91 2.371 25.623-3.029 33.891-4.283 52.242-5.615.986-.07 1.783-.812 1.844-1.799l.695-11.822a1.933 1.933 0 0 0-.793-1.666zM429.621 71.017c-.57-.613-1.295-1.404-2.178-2.369a49.806 49.806 0 0 0-3.355-3.27c-1.314-1.178-2.865-2.385-4.619-3.59-1.783-1.223-3.85-2.354-6.145-3.359a28.85 28.85 0 0 0-10.059-2.393 27.991 27.991 0 0 0-10.238 1.328c-3.316 1.078-6.389 2.82-9.131 5.178-2.773 2.379-5.002 5.473-6.635 9.193-1.535 3.49-2.412 6.982-2.617 10.379-.205 3.336.01 6.68.635 9.938a56.515 56.515 0 0 0 2.732 9.539 187.45 187.45 0 0 0 3.762 9.074 469.908 469.908 0 0 1 3.795 8.75 59.504 59.504 0 0 1 2.826 8.316 31.225 31.225 0 0 1 .99 7.951c-.02 2.523-.584 5.076-1.691 7.59-.762 1.74-1.77 3.227-2.998 4.418a11.506 11.506 0 0 1-4.145 2.605c-1.561.561-3.262.797-5.086.715-1.834-.088-3.783-.582-5.801-1.467-2.217-.973-4.105-2.264-5.613-3.834a19.282 19.282 0 0 1-3.641-5.316 20.424 20.424 0 0 1-1.727-6.15 21.104 21.104 0 0 1 .195-6.363 1.912 1.912 0 0 0-1.115-2.102l-1.645-.721a1.913 1.913 0 0 0-2.432.803l-7.906 13.902a1.91 1.91 0 0 0 .043 1.959c.713 1.141 1.689 2.482 2.9 3.994 1.223 1.521 2.688 3.088 4.352 4.656 1.676 1.574 3.598 3.133 5.719 4.633 2.158 1.521 4.576 2.309 7.186 3.454 4.697 2.061 9.172 2.541 13.301 2.541h.006c4.131 0 7.9-.189 11.203-1.676 3.289-1.479 6.182-3.276 8.602-5.903 2.385-2.59 4.268-5.303 5.596-8.336 1.801-4.098 2.535-8.333 2.186-12.729-.332-4.225-1.209-8.526-2.598-12.858a121.389 121.389 0 0 0-4.934-12.768 172.822 172.822 0 0 1-4.947-12.11c-1.393-3.846-2.354-7.57-2.848-11.082-.463-3.281-.076-6.374 1.162-9.194.779-1.771 1.744-3.281 2.875-4.492 1.092-1.17 2.35-2.06 3.736-2.648 1.373-.582 2.914-.848 4.582-.781 1.709.062 3.551.523 5.471 1.365 2.17.953 3.916 2.113 5.186 3.447 1.299 1.369 2.297 2.805 2.965 4.273.678 1.486 1.115 2.959 1.301 4.373.189 1.477.248 2.746.166 3.771a1.914 1.914 0 0 0 1.139 1.898l1.451.637a1.91 1.91 0 0 0 2.488-.918l5.867-12.123a1.91 1.91 0 0 0-.314-2.128zM517.434 140.531l-11.205-13.053c-.926-1.084-2.498-.783-3.264.375-.531.807-1.27 1.768-2.191 2.859-.936 1.107-2.186 2.461-3.715 4.021-1.533 1.561-3.436 3.381-5.652 5.41a339.204 339.204 0 0 1-7.973 7.029l-35.557 30.512c-3.061 2.625-5.803 4.918-8.16 6.812-2.328 1.877-4.41 3.473-6.174 4.742-1.754 1.258-3.275 2.281-4.512 3.039-1.223.746-2.287 1.33-3.158 1.73-1.246.572-1.803 2.088-.873 3.172l11.203 13.053c.947 1.104 2.508.76 3.266-.381.545-.822 1.279-1.801 2.186-2.906.912-1.115 2.141-2.445 3.658-3.959a211.767 211.767 0 0 1 5.648-5.412c2.195-2.037 4.861-4.406 7.939-7.047l35.555-30.512c3.066-2.633 5.816-4.912 8.172-6.777a217.401 217.401 0 0 1 6.236-4.785c1.742-1.283 3.252-2.305 4.492-3.035 1.232-.73 2.311-1.307 3.205-1.719 1.426-.653 1.688-2.217.874-3.168zM439.715 503.736c-37.164 27.572-83.174 43.891-133.006 43.891-49.723 0-95.643-16.25-132.768-43.717-2.213-1.635-3.654-2.643-7.795-2.598-4.969.051-9.967.193-14.982.422-3.436.156-4.744 2.434-2.234 4.426 41.252 32.695 93.4 52.24 150.129 52.24 57.238 0 109.822-19.896 151.244-53.133 2.771-2.225 1.848-3.266.076-3.365a401.342 401.342 0 0 0-4.07-.197c-3.217-.144-4.668.604-6.594 2.031zM82.188 410h.209c3.477 0 7.012-.503 10.6-.521 4.02-.021 6.027-1.827 4.262-6.569-9.078-24.352-14.051-50.968-14.051-78.448 0-40.5 10.783-78.628 29.619-111.402 4.229-7.354 1.699-10.604-1.32-13.557-3.021-2.951-6.209-6.119-9.373-9.172-2.141-2.066-7.668-3.095-11.092 2.655-21.529 36.16-33.904 78.379-33.904 123.521 0 30.779 5.758 60.998 16.238 88.123 1.347 3.491 2.657 5.37 8.812 5.37zM518.098 409.102c3.117-.006 4.916-.48 5.996-3.211 10.889-27.549 16.887-57.77 16.887-89.172 0-44.352-11.939-86.022-32.77-121.768-1.402-2.404-3.443-3.734-6.412-1.555-1.695 1.244-3.412 2.479-5.504 4.133-2.088 1.652-2.754 3.916-.863 6.893 22.016 34.635 34.777 75.908 34.777 119.975 0 28.146-5.219 55.26-14.719 80.09-1.06 2.773-.103 4.62 2.608 4.615z"/><path fill="#6A8E44" d="M289.709 289.712c10.523-22.111 21.088-33.686 38.957-47.338-30.105 34.387-40.305 62.004-44.977 120.543-24.773-25.961-44.891-39.045-69.598-47.555 16.873 2.246 28.164 5.879 43.393 16.449 2.16-48.934-84.492-56.018-120.879-28.41 46.457 10.238 79.143 73.588 114.377 38.391.004 0 .008.004.01.008 9.902 7.832 22.947 21.984 31.814 34.387-1.461 26.701-1.082 54.666.951 78.941 5.379 2.512 14.574 6.094 14.574 6.094-6.69-55.816-5.331-133.747 2.669-164.674v-.004c66 18.836 61.078-76.23 107.936-118.734-59.842-7.775-153.817 57.215-119.227 111.902z"/><path fill="#333" d="M544.658 487.969c-73.895-16.914-171.398-11.498-224.471 11.061-.748.318-1.16 1.045-1.18 1.857-.125 6.641-5.516 14.363-19.949 14.363-14.344 0-19.885-7.723-20.012-14.363a2.04 2.04 0 0 0-1.238-1.857c-53.072-22.559-150.572-27.975-224.469-11.061-10.137 2.588-10.201 6.092-9.119 9.404 1.033 3.162 4.637 5.406 11.279 3.588 58.834-16.09 144.373-22.795 219.295 1.26.891 9.861 9.92 16.451 24.264 16.451 14.434 0 23.314-6.59 24.205-16.451 74.92-24.055 160.428-17.35 219.264-1.26 6.641 1.818 10.229-.426 11.264-3.588 1.086-3.312 1.002-6.816-9.133-9.404z"/><path fill="#333" d="M540.822 466.6c-9.564-9.713-17.818-24.143-19.068-39.252-.281-3.375-.52-4.236-5.539-4.236-31.98.422-68.621 5.322-106.482 14.24-39.723 9.354-77.688 22.465-110.094 37.941a1.315 1.315 0 0 1-1.062-.035c-32.395-15.459-70.248-28.559-109.943-37.906-37.861-8.918-74.461-13.818-106.439-14.24-5.02 0-5.238.861-5.518 4.236-1.252 15.109-9.496 29.539-19.061 39.252-2.252 2.285-.725 4.668 1.592 4.465 12.512-1.115 31.705-2.049 52.258-2.049 80.178 0 125.582 9.498 186.617 28.197.439.137 1.26.266 2.117 0 61.035-18.699 106.604-28.197 186.783-28.197 20.553 0 39.744.934 52.254 2.049 2.314.203 3.835-2.18 1.585-4.465z"/></svg>