<svg xmlns="http://www.w3.org/2000/svg" width="300" height="300" viewBox="0 0 300 300"><path fill="#333" d="M108.723 73.337c-2.631.525-5.62.446-9.163.133l-33.734-3.75 3.714-24.197c.331-2.167.74-4.135 1.217-5.852.455-1.639 1.1-3.055 1.915-4.206.27-.381.243-.897-.065-1.248l-.1-.114a1.008 1.008 0 0 0-1.423-.091l-8.004 7.042a1.004 1.004 0 0 0-.091 1.422c.519.589 1.015 2.032.429 5.556l-4.334 26.125-4.185-4.757a143.819 143.819 0 0 1-3.625-4.263c-1.794-2.208-4.021-4.969-5.118-7.282-.344-.725-1.165-.889-1.677-.439l-6.836 6.015c-.549.484-.413 1.311.221 1.718 3.355 2.158 7.555 6.98 10.337 10.144l16.313 18.543c4.402 4.815 6.947 8.401 8.971 11.864.28.479 1.032.436 1.423.091l6.836-6.014c.558-.491.38-1.333-.221-1.719-1.568-1.006-4.411-3.732-6.546-5.977a145.72 145.72 0 0 1-3.766-4.138l-8.555-9.725 32.521 3.601c1.254.128 3.934.351 5.077.876a1.01 1.01 0 0 0 1.087-.159l8.346-7.342c.861-.755-.028-2.042-.964-1.857zM153.932 61.302a1.004 1.004 0 0 0-.963-.119c-1.688.674-3.597 1.317-5.685 1.916-1.794.54-3.928 1.085-6.343 1.622a79.4 79.4 0 0 1-7.03 1.206l-2.565-21.606a72.523 72.523 0 0 1 4.221-.302c1.822-.078 3.54-.093 5.106-.102 1.825-.013 4.865.048 5.369.04s.967-.426 1.016-.945l.52-5.616a1.013 1.013 0 0 0-1.274-1.075c-1.25.347-2.729.698-4.392 1.046-1.424.295-3.188.631-5.242 1.001-1.773.32-3.761.627-5.921.917l-2.208-18.608 1.802-.315c.766-.141 1.564-.281 2.395-.417a49.641 49.641 0 0 1 2.115-.308c1.737-.206 3.303-.322 4.651-.347a64.299 64.299 0 0 1 3.479.019c1.087.043 2.051.127 2.864.249a1.008 1.008 0 0 0 1.129-.763l1.251-5.229a1.008 1.008 0 0 0-1.287-1.195c-.585.187-1.778.425-3.547.708-1.81.291-4.024.612-6.584.953a1300.984 1300.984 0 0 1-17.865 2.253c-.804.096-1.052.921-.793 1.541.198.473.41 1.082.63 1.81a33.9 33.9 0 0 1 .683 2.79 78.84 78.84 0 0 1 .708 4.063c.238 1.585.486 3.454.735 5.555l2.912 24.525c.25 2.109.447 3.984.585 5.572.136 1.58.224 2.958.26 4.096.035 1.131.055 3.571-.197 4.831-.119.598.417 1.32 1.007 1.25 13.505-1.596 17.863-2.258 27.536-2.96.519-.038.94-.429.971-.948l.369-6.232a1.012 1.012 0 0 0-.418-.876zM218.792 32.011c-.299-.323-.683-.74-1.147-1.248a26.182 26.182 0 0 0-1.768-1.725 24.31 24.31 0 0 0-2.436-1.891 19.824 19.824 0 0 0-3.24-1.771 15.22 15.22 0 0 0-5.302-1.261c-1.848-.1-3.658.135-5.396.701a13.985 13.985 0 0 0-4.812 2.729c-1.461 1.254-2.639 2.884-3.498 4.846-.808 1.84-1.271 3.681-1.379 5.472a21.02 21.02 0 0 0 .335 5.238 29.61 29.61 0 0 0 1.439 5.028 98.22 98.22 0 0 0 1.983 4.783 261.188 261.188 0 0 1 2 4.612 31.418 31.418 0 0 1 1.489 4.384c.356 1.4.532 2.81.522 4.191-.01 1.33-.31 2.676-.892 4.001-.401.917-.933 1.7-1.581 2.329a6.094 6.094 0 0 1-2.185 1.373c-.823.296-1.72.421-2.68.376-.966-.046-1.994-.306-3.058-.772-1.17-.513-2.165-1.193-2.96-2.022a10.168 10.168 0 0 1-1.919-2.802 10.754 10.754 0 0 1-.91-3.242c-.134-1.13-.1-2.259.104-3.354a1.007 1.007 0 0 0-.586-1.107l-.869-.381a1.008 1.008 0 0 0-1.281.425l-4.166 7.328c-.183.322-.176.719.021 1.033.375.601.889 1.309 1.529 2.104a24.43 24.43 0 0 0 2.293 2.456 27.76 27.76 0 0 0 3.016 2.441c1.137.803 2.411 1.497 3.785 2.099 2.478 1.087 4.836 1.619 7.012 1.619h.004c2.177 0 4.164-.38 5.904-1.162a13.792 13.792 0 0 0 4.533-3.25c1.258-1.366 2.25-2.865 2.951-4.465a13.885 13.885 0 0 0 1.152-6.745c-.177-2.226-.637-4.511-1.369-6.794a63.999 63.999 0 0 0-2.602-6.739 91.35 91.35 0 0 1-2.606-6.388c-.735-2.027-1.241-3.992-1.503-5.843-.244-1.73-.038-3.361.613-4.848.41-.934.92-1.73 1.515-2.369a5.78 5.78 0 0 1 1.971-1.396c.724-.307 1.536-.447 2.415-.413.9.034 1.871.276 2.885.721 1.143.502 2.062 1.113 2.732 1.817.684.721 1.211 1.479 1.562 2.252.357.783.588 1.56.686 2.306.101.779.131 1.448.088 1.988-.033.427.208.829.6 1.001l.765.335a1.006 1.006 0 0 0 1.312-.484l3.094-6.39a1.01 1.01 0 0 0-.165-1.126zM265.078 68.653l-5.904-6.881c-.49-.571-1.316-.412-1.722.199-.279.423-.668.931-1.153 1.506a40.703 40.703 0 0 1-1.959 2.119 79.805 79.805 0 0 1-2.979 2.853 184.577 184.577 0 0 1-4.204 3.706l-18.742 16.083a182.571 182.571 0 0 1-4.3 3.59 78.717 78.717 0 0 1-3.256 2.5 40.352 40.352 0 0 1-2.379 1.602c-.644.394-1.203.701-1.664.912-.654.301-.949 1.1-.459 1.671l5.906 6.881c.498.582 1.322.4 1.721-.2.287-.435.674-.95 1.152-1.533.479-.587 1.127-1.29 1.926-2.087.816-.815 1.817-1.775 2.979-2.853a143.541 143.541 0 0 1 4.184-3.714l18.744-16.083a141.26 141.26 0 0 1 4.307-3.572 118.391 118.391 0 0 1 3.285-2.523c.92-.676 1.717-1.214 2.37-1.6a19.42 19.42 0 0 1 1.688-.906c.75-.344.891-1.169.459-1.67zM224.113 260.103c-19.59 14.532-43.844 23.134-70.108 23.134-26.21 0-50.415-8.565-69.983-23.043-1.167-.862-1.926-1.392-4.109-1.371-2.619.027-5.254.104-7.897.224-1.812.082-2.501 1.283-1.178 2.333 21.743 17.234 49.232 27.535 79.134 27.535 30.172 0 57.887-10.488 79.722-28.006 1.462-1.172.975-1.723.04-1.773-.715-.037-1.432-.072-2.146-.105-1.695-.076-2.459.319-3.475 1.072zM35.658 210h.11c1.833 0 3.697.08 5.587.071 2.12-.011 3.178-.79 2.246-3.29-4.784-12.834-7.406-26.777-7.406-41.264 0-21.348 5.684-41.402 15.613-58.677 2.229-3.876.896-5.567-.696-7.124s-3.273-3.215-4.94-4.824c-1.128-1.089-4.042-1.626-5.847 1.404-11.348 19.061-17.871 41.317-17.871 65.112 0 16.224 3.035 31.806 8.56 46.104.71 1.842 1.4 2.488 4.644 2.488zM265.428 210.219c1.645-.004 2.593-.254 3.161-1.693 5.741-14.521 8.903-30.451 8.903-47.004 0-23.377-6.294-45.341-17.274-64.184-.738-1.267-1.815-1.968-3.38-.82-.894.656-1.799 1.308-2.9 2.179-1.102.871-1.453 2.065-.457 3.633 11.605 18.256 18.332 40.012 18.332 63.24 0 14.836-2.75 29.127-7.756 42.215-.561 1.463-.057 2.438 1.371 2.434z"/><path fill="#6A8E44" d="M145.043 147.288c5.548-11.655 11.115-17.757 20.535-24.953-15.868 18.125-21.245 32.684-23.707 63.538-13.059-13.683-23.663-20.578-36.686-25.064 8.895 1.184 14.846 3.1 22.873 8.67 1.137-25.793-44.538-29.527-63.717-14.973 24.488 5.394 41.717 38.787 60.29 20.232.001.002.002.004.004.004 5.22 4.131 12.096 11.589 16.77 18.127-.771 14.074-.57 28.816.502 41.61 2.835 1.323 8.183 3.212 8.183 3.212-3.526-29.422-3.091-70.5 1.909-86.8v-.002c34 9.929 31.693-40.182 56.393-62.585-31.542-4.099-81.581 30.157-63.349 58.984z"/><path fill="#333" d="M279.43 251.791c-38.951-8.917-90.346-6.062-118.32 5.829-.395.168-.611.552-.621.979-.065 3.499-2.908 7.571-10.516 7.571-7.561 0-10.482-4.072-10.548-7.571a1.078 1.078 0 0 0-.653-.979c-27.975-11.891-79.368-14.746-118.32-5.829-5.343 1.363-5.377 3.209-4.807 4.955.545 1.668 2.444 2.852 5.946 1.893 31.011-8.48 76.101-12.016 115.592.665.469 5.196 5.229 8.669 12.79 8.669 7.608 0 12.289-3.473 12.758-8.669 39.491-12.681 84.564-9.146 115.576-.665 3.501.959 5.393-.225 5.938-1.893.569-1.746.527-3.592-4.815-4.955z"/><path fill="#333" d="M277.408 240.527c-5.042-5.121-9.393-12.727-10.053-20.692-.147-1.776-.273-2.231-2.92-2.231-16.855.223-36.17 2.806-56.127 7.506-20.938 4.93-40.948 11.842-58.031 19.998a.682.682 0 0 1-.56-.018c-17.076-8.148-37.028-15.055-57.952-19.98-19.958-4.7-39.249-7.283-56.105-7.506-2.646 0-2.761.455-2.909 2.231-.66 7.966-5.005 15.571-10.047 20.692-1.186 1.205-.381 2.461.84 2.353 6.595-.589 16.711-1.081 27.545-1.081 42.262 0 66.195 5.008 98.367 14.864.232.071.665.14 1.116 0 32.172-9.856 56.192-14.864 98.454-14.864 10.834 0 20.949.492 27.544 1.081 1.223.108 2.025-1.148.838-2.353z"/></svg>