<svg xmlns="http://www.w3.org/2000/svg" width="1173.896" height="800" viewBox="0 0 1173.896 800">
    <path style="fill: #fff;"
        d="M77.993 684.389c-1.892 3.399-7.58 6.232-17.018 8.5-9.448 2.268-16.824 3.399-22.112 3.399-1.134 0-1.705 2.463-1.705 7.369 0 4.912.563 7.935 1.696 9.064l68.57-1.698c25.69 0 59.407.568 101.156 1.698 41.741 1.136 72.44 1.702 92.088 1.702.752-5.668 2.452-12.841 5.1-21.535 2.64-8.687 5.1-16.337 7.366-22.952 2.268-6.605 5.383-15.301 9.353-26.067 3.966-10.767 6.888-18.604 8.782-23.518-2.266-2.268-6.996-3.4-14.167-3.4-4.532 0-7.182 1.133-7.934 3.4-4.162 14.363-9.732 26.732-16.717 37.119-6.997 10.395-13.317 16.988-18.985 20.006-12.466 6.43-36.269 9.523-71.404 9.523h-27.2c-24.563 0-37.016-1.773-38.146-5.556-3.402-13.221-4.716-29.729-4.716-49.759V418.039c0-21.906 1.313-39.475 4.716-52.702.749-2.64 5.842-5.287 15.673-7.935 9.819-2.638 16.522-3.967 20.303-3.967 1.506 0 2.218-2.639 2.218-7.934 0-3.4-.406-6.233-1.157-8.5-5.296.38-12.109.85-20.416 1.415-8.314.567-16.067 1.045-23.239 1.418-7.182.38-14.551.566-22.104.566-10.202 0-22.865-.469-37.972-1.417-15.114-.938-25.127-1.603-30.036-1.982-1.513 1.513-2.267 4.534-2.267 9.066 0 4.915.753 7.367 2.267 7.367 4.908 0 12.186 1.23 21.817 3.685 9.636 2.461 15.06 5.197 16.189 8.217 2.64 10.2 4.007 27.396 4.007 51.568V631.12c.001 30.982-1.366 48.734-4.006 53.269zM734.982 688.923c-3.402 1.893-9.089 3.78-16.83 5.667-7.745 1.894-13.568 2.832-17.341 2.832-1.512 0-2.294 2.461-2.294 7.368 0 4.532.741 7.554 2.253 9.067 43.443-1.888 66.104-2.834 67.999-2.834 7.175 0 29.651.946 67.433 2.834.755-2.266 1.132-5.102 1.132-8.501 0-5.287-.764-7.935-2.268-7.935-4.16 0-11.147-1.222-20.967-3.684-9.83-2.45-15.495-5.383-17.001-8.782-5.294-13.221-8.127-30.604-8.502-52.139-3.399-147.342-5.103-224.03-5.103-230.078 0-21.907 2.27-34.57 6.805-37.97 3.397-2.639 8.499-4.906 15.302-7.368 6.8-2.453 12.271-3.402 16.432-3.402h1.136c1.884 0 2.832-2.92 2.832-8.215 0-2.268-.569-5.243-1.698-8.642-18.899 1.514-40.05 2.196-63.476 2.196-7.18 0-22.86-.789-47.034-2.301l-22.668 67.987c-21.914 56.297-51.384 127.879-88.406 214.77-.378 1.514-1.325 2.263-2.832 2.263-1.133 0-1.895-.374-2.267-1.137-72.166-180.582-109.567-275.222-112.205-283.917-20.783 1.895-38.165 2.833-52.139 2.833-7.56 0-14.547-.186-20.968-.567-6.428-.372-13.51-.754-21.251-1.134-7.748-.372-14.83-.753-21.249-1.133-1.518 1.513-2.267 4.348-2.267 8.5 0 5.295.749 7.934 2.267 7.934 5.284 0 13.784 1.23 25.5 3.685 11.705 2.461 18.134 5.197 19.267 8.217 1.507 5.667 2.269 13.228 2.269 22.668 0 6.048-.382 19.932-1.136 41.652-.76 21.729-1.609 51.667-2.548 89.821-.949 38.165-1.8 76.885-2.55 116.174-.762 26.068-4.163 42.502-10.202 49.304-3.398 3.399-10.299 6.332-20.685 8.782-10.395 2.462-18.232 3.684-23.517 3.684-1.895 0-2.835 2.647-2.835 7.935 0 3.78.94 6.613 2.835 8.501 43.439-1.888 65.542-2.834 66.304-2.834 6.038 0 27.954.946 65.737 2.834.753-2.266 1.135-4.905 1.135-7.935 0-5.668-.764-8.501-2.268-8.501-3.783 0-11.432-1.416-22.953-4.25-11.529-2.833-18.419-5.755-20.685-8.783-2.266-3.02-3.401-7.935-3.401-14.734 0-.754.568-16.338 1.702-46.753 1.133-30.407 2.453-69.04 3.965-115.891 1.507-46.841 2.64-88.404 3.401-124.673L578.92 712.156c2.262.753 3.965 1.135 5.099 1.135 6.801 0 13.788-8.121 20.967-24.368l118.44-283.351c1.134-2.64 2.069-3.968 2.835-3.968 1.886 0 3.683 4.065 5.386 12.185 1.697 8.129 2.953 15.212 3.336 21.251L742 634.52v30.033c0 13.601-2.488 21.73-7.018 24.37zM1020.941 530.812c-13.979 0-26.633-2.072-37.968-6.234-.762-.37-1.326.195-1.699 1.7-1.134 6.049-.567 10.396 1.699 13.034 7.936 10.582 22.477 15.868 43.638 15.868 18.886 0 35.984-3.869 51.286-11.616 15.3-7.74 27.482-17.568 36.552-29.469 9.067-11.901 15.954-24.175 20.685-36.837 4.72-12.653 7.084-24.456 7.084-35.417 0-18.508-3.78-34.756-11.334-48.736-7.562-13.974-17.284-24.74-29.187-32.303-11.901-7.554-24.183-13.219-36.836-17.001-12.659-3.772-25.216-5.667-37.685-5.667-10.962 0-24.181.38-39.668 1.134-15.495.761-28.903 1.133-40.237 1.133l-68.001-1.133c-1.515 1.514-2.268 4.729-2.268 9.633 0 4.534.753 6.802 2.268 6.802 4.903 0 12.369 1.327 22.384 3.967 10.006 2.647 15.416 5.48 16.547 8.499 2.639 10.202 3.799 26.449 3.799 48.736V631.12c0 30.981-1.16 48.734-3.799 53.269-1.893 3.399-7.477 6.232-16.915 8.5-9.448 2.268-16.774 3.399-22.059 3.399-1.135 0-1.68 2.463-1.68 7.369 0 5.665.576 9.064 1.712 10.2l69.143-2.834c11.334 0 35.888.946 73.672 2.834.753-2.266 1.133-5.102 1.133-8.501 0-5.287-.76-7.935-2.266-7.935-4.911 0-13.129-1.504-24.65-4.533-11.529-3.02-18.552-6.985-20.436-11.9-3.029-7.554-4.855-23.987-4.855-49.303V429.373c0-18.135.602-31.735 1.17-40.802.566-9.067 1.384-14.822 2.145-17.284.754-2.453 2.151-3.87 4.045-4.25 9.439-2.639 22.708-3.968 39.71-3.968 24.556 0 42.71 7.846 54.427 23.519 11.704 15.682 17.574 36.933 17.574 63.754 0 21.915-6.795 40.802-20.396 56.669-13.603 15.868-29.846 23.801-48.734 23.801zM36.536 748s-1.957 3.107-1.957 8 1.957 8 1.957 8H1142.3s1.467-2.617 1.467-8-1.467-8-1.467-8H36.536zM1142.3 314s1.467-2.617 1.467-8c0-5.381-1.467-8-1.467-8h-32.044c-1.062-1-2.115-1.321-3.153-2.061-4.675-3.338-13.088-1.459-18.94-1.848-1.521-2.371-2.412-5.42-3.994-5.836-2.103-.549-4.741.938-7.167 1.555 1.199-10.9-12.897-6.138-15.265-14.014a2330.034 2330.034 0 0 0-5.645 4.075c.21-3.255.352-5.362.466-7.135-3.402.461-6.704 2.021-8.67.998a69.907 69.907 0 0 0-9.228-3.969c-.155-.754-.339-1.519-.404-2.298-.091-1.16-.524-2.729.046-3.413 1.188-1.438.42-2.275-.222-3.375-.313-.524-.432-1.158-.623-1.699.578-.441 1.04-.79 1.655-1.258-1.077-.967-2.312-1.609-2.075-3.199.029-.22-.856-.646-1.365-.854-.409-.162-.895-.143-1.705-.254.948-.903 1.587-1.513 2.408-2.293-1.158-1.096-2.221-2.105-3.352-3.172-1.304.252-2.554 1.391-4.113.601l.6-2.026c-1.211-.331-1.984-.104-2.913.575-2.112 1.539-3.286 1.297-5.29-.676.474-1.345.967-2.737 1.399-3.969-1.216-1.99-3.313-2.501-5.148-3.412-1.364-.679-2.993-1.033-4.076-2.012-2.132-1.938-4.258-3.198-7.192-2.037-.313.118-.811.223-1.044.067-1.616-1.082-1.969.685-2.978 1.397a745.657 745.657 0 0 0-1.602-2.662c-1.029 0-2.225-.301-3.157.063-1.869.732-3.38 2.213-5.349 2.843-.453.145-.832.897-1.199.861-2.271-.209-4.037.658-5.649 2.164-2.209 2.055-4.958 1.23-7.484 1.081-1.312-.074-2.176-.111-3.008 1.086-.739 1.064-1.901.948-3.062-.02.378-.854 3.165.095 1.812-2.025-2.408.871-3.898 3.424-6.777 3.271-.172-2.068-.172-2.068-2.507-2.36-.207-1.098-.41-2.152-.601-3.196.417-.485.853-.984 1.231-1.423-1.648-2.324-4.354-.806-6.396-2.087l2.558-.933c-.896-.808-1.595-1.447-2.47-2.242.29 3.041-2.577 3.603-3.64 5.579-.348-.813-.572-1.605-.4-2.302.378-1.514-.191-2.625-1.468-3.099-1.731-.638-2.236-2.294-3.333-3.445-.165-.183-.181-.803-.016-.956.909-.858.138-1.328-.414-1.699-.832-.566-1.77-.98-2.652-1.455-.661 1.336-.233 2.14 1.331 2.796-1.476.197-2.554.03-3.185.483-1.434 1.036-2.921 1.32-4.706.862l.737 1.623c-.499.362-1.295.722-1.26.945.393 2.446-1.361 3.471-2.897 4.698-.716.559-2.769.897-.615 2.308.091.063-.043.706-.238.938-.568.656-.438 1.171-.126 1.953.479 1.191-.936 3.182-1.945 2.767-.986-.405-1.528-.01-2.317.162-.572.123-1.406-.184-1.902-.573-1.632-1.287-2.435-1.428-3.422.25-.771 1.3-1.62.958-3.097 1.069.54-1.021.876-1.656 1.267-2.404-1.809-.457-3.617-.918-5.505-1.393-.83 1.52-1.639 3.021-2.473 4.51-.474.849-1.166 1.264-1.988.504-1.276-1.18-2.473-2.437-3.83-3.784 1.426-.337 2.458-.581 3.521-.829.283.905.528 1.677.838 2.656 1.501-2.08-.146-3.399-.666-4.928.792-.462 1.465-.861 1.824-1.068a829.257 829.257 0 0 1-1.018-4.587c-1.127.991-2.156 1.617-2.787 2.515-.951 1.363-3.045 2.153-2.449 4.429.027.11-1.036.788-1.476.689-2.432-.557-4.989-.932-6.644-3.282-.677 1.294-1.361 1.736-2.534.956-.531-.354-1.257-.475-1.915-.56-2.982-.391-6.031-.478-8.937-1.171-2.057-.489-3.987-1.662-5.857-2.738-1.418-.811-.592-2.495-.909-3.741-.974-3.797-1.788-7.679-2.151-11.579-.669-7.087-.982-14.215-1.422-21.325-.536-8.669-1.04-17.342-1.583-26.006-.092-1.444-.31-2.874-.504-4.638-1.407.082-2.646.165-3.889.232-1.261.062-2.53.183-3.787.139-1.177-.039-2.344-.336-3.521-.399-5.753-.3-11.506-.692-17.261-.794-4.179-.079-8.25-1.986-12.489-.671-6.937-.296-13.875-.742-20.824-.842-5.076-.073-9.995-1.671-15.168-1.01-3.108.392-6.345-.094-9.51-.337-10.547-.814-21.191-.36-31.643-2.42a3.141 3.141 0 0 0-.817-.063c-2.811.135-5.619-.011-8.43-.02-7.679-.033-15.298-.697-22.912-1.498-2.453-.255-4.865-.844-7.339-.197-.248.066-.577.114-.779.011-1.999-1.053-4.129-.453-6.2-.536-2.453-.098-4.916-.062-7.374-.123-4.567-.111-9.139-.279-13.71-.364-1.274-.021-2.395-.057-3.646-.697-1.189-.612-2.826-.474-4.263-.439-1.147.027-1.782.788-1.729 2.031.047.97.011 1.947.011 2.883-5.45 2.063-10.59 3.949-15.682 5.97-1.965.782-4.399.442-5.88 2.396-5.478 2.006-10.954 4.01-16.426 6.034-.576.216-1.108.58-1.654.872-.633.343-1.234.77-1.899 1.02-5.879 2.205-11.77 4.38-17.958 6.678.175 5.187.366 10.688.55 16.089-.827.22-1.248.338-1.883.506.802.367 1.425.646 2.216 1.004-.359 2.35.678 4.836-1.205 7.516-.718-.968-1.627-1.629-1.612-2.269.076-2.663-.898-5.479.956-7.865-.59-.859-1.124-1.633-1.849-2.683-.078 1.676-.533 2.988-1.948 3.255-.82.15-1.772-.417-2.739-.678-1.4 1.188-1.605 1.308-.838 3.041.936 2.121.7 3.97-.661 6.135-.581-.629-1.082-1.21-1.633-1.737-.378-.364-.941-1.01-1.23-.916-1.941.615-3.867-.246-5.798.047-.727.11-1.503-.076-2.4-.141.248-1.365.45-2.398.623-3.436.248-1.488-1.308-1.478-1.887-2.243l-2.204 1.871c-2.696-1.543-3.177-3.101-1.959-6.017l-3.021-2.109c.232-.783.397-1.335.636-2.154-1.828-.11-3.125-.644-4.078-2.112-.375-.578-1.737-.497-2.639-.766-.48-.135-1.254-.302-1.317-.582-.119-.535.046-1.244.342-1.727.24-.398.85-.568 1.332-.861-.295-1.351-.725-2.29-2.188-2.52-.852-.135-1.124-.857-.768-1.701.172-.407.348-.808.491-1.134-.641-1.425-2.45-1.829-2.457-3.604 0-.38-.954-.91-1.559-1.1-1.285-.411-2.622-.642-4.073-.978-.017.32-.041.865-.067 1.413-.16.027-.324.054-.482.075-.342-1.256-.683-2.508-1.104-4.074-.659.21-1.584.214-1.865.642-.57.867.418 1.14.977 1.572.438.339.729.859 1.111 1.338-1.778 1.183-2.42-.017-3.147-1.53-.874 2.943-3.228 2.013-4.885 2.626-2.193.812-3.745-.512-5.273-1.976 1.251-2.03 3.718-1.097 5.366-2.371-.46-2.686-.908-5.424-2.795-7.642-.302-.353-1.035-.738-1.353-.603-.819.346-1.613-.927-2.335.051-.911-.689-1.818-1.378-2.929-2.223-.754.088-1.812.203-2.66.301-.79-.775-1.341-1.497-2.058-1.979-1.329-.91-1.964-1.956-1.735-3.676.272-2.015.126-2.036-2.253-2.426-.52.754-.896 1.933-1.646 2.264-1.999.881-2.388 2.73-3.184 4.367-.237.481-.517.936-.787 1.426-.903-.069-1.698-.126-2.497-.188-.081.486-.153.897-.235 1.396-2.279-.269-.981-2.14-1.423-3.112a76.74 76.74 0 0 1-1.182-.411 3067.94 3067.94 0 0 1-3.315 2.642c1.259.462 2.845.423 2.407 2.67-1.267.634-2.767 1.388-4.164 2.091-1.609-.717-2.966-1.444-3.632-3.665-.39 1.437-.539 2.922-.841 2.948-1.809.193-1.061 1.878-2.025 2.603 1.527.997 1.594 2.033.462 3.13-2.121.299-1.061-1.709-1.602-2.258-1.998.599-3.87 1.153-5.596 1.662-1.658-1.756-3.196-3.378-4.843-5.127-.547.882-1.021 1.646-1.816 2.924l.1-2.042c-2.32.978-2.508 1.28-1.658 3.266.4.943-.004.856-.639.727 0 .329-.093.913.009.949.622.218 1.312.484 1.931.4.753-.109 1.458-.551 2.578-1.007-.594 2.074-.611 3.517 1.061 4.511-.725.649-1.231 1.105-1.707 1.527.418 1.715 1.671 2.151 3.113 2.6.382-.791.717-1.494 1.144-2.371l2.115 1.449c-.274 2.372-2.409 1.627-3.518 2.489-1.241.967-2.159-1.034-3.568-.626-.567 1.285-1.609 2.372-1.946 4.009-.507 2.496-1.259 2.813-3.807 2.777-1.136-.019-2.274.059-3.247.086.502 1.83.95 3.346 1.287 4.88.028.131-.681.421-.838.51.585 1.015 1.605 2.011 1.617 3.024.016 1.044-.953 2.105-1.49 3.152l-2.161-.819 1.269 3.092a622.783 622.783 0 0 1-2.335-.114l-.271 3.02c-.345.048-.792.202-1.213.156-3.725-.407-7.453-.796-11.164-1.3a1245.83 1245.83 0 0 1-17.071-2.479c-7.942-1.197-15.86-2.555-23.83-3.606-4.208-.556-8.401-1.986-12.748-.752-.581.16-1.273-.01-1.903-.11-6.221-.991-12.4.352-18.604.324l-.647.053c-7.245.269-14.49.602-21.74.9-.457.019-.352.058-.805.245.014.017-.586.303-.553.287-.008-.011-.012 0-.019-.011-5.67.155-11.333.274-16.996.462-5.943.204-11.883.452-17.823.727-6.574.298-13.152.594-19.72.997-2.809.178-5.665.398-8.401 1.018-6.328 1.428-12.598 3.121-18.896 4.688-4.873 1.206-9.76 2.38-14.633 3.588-8.071 2.004-16.138 4.021-24.203 6.039-3.693.923-7.384 1.86-11.119 2.804 0 3.964.16 7.704-.042 11.419-.228 4.021.274 8.21-2.084 11.723.688.857 1.27 1.579 1.856 2.311-1.438 1.543-2.777 2.979-4.262 4.576-1.363-2.316-3.596-2.734-5.472-3-.489-2.159-.907-4.019-1.327-5.871.414-.183.795-.354 1.693-.756-1.196-.33-1.869-.525-2.544-.705-1.052-.271-2.353-.241-3.093-.867-.934-.794-1.872-.95-2.954-1.107-1.895-.281-2.336-.971-2.238-2.925.074-1.403.018-2.812.018-4.204-2.204-.566-3.936 0-5.365.847-1.395.83-2.939.653-3.803.113-1.476-.929-2.468-.498-3.696.101-.442.217-.979.24-1.529.366-1.002-3.184-3.082-5.169-6.061-6.482 1.112-1.539.196-3.023-.243-4.492-.209-.694-.745-1.375-1.308-1.872-.995-.896-2.163-1.605-3.189-2.472-1.223-1.041-3.496-1.699-4.25-.81-.904 1.063-2.021 1.382-3.175 1.841-.377.152-.704.544-.952.899-1.452 2.081-1.373 2.629.822 5.745.92-.517 1.743-1.808 3.035-.723-.203 1.757-.176 1.956-1.414 2.095-2.696.304-4.428 1.534-5.537 4.101-.449 1.037-1.394 2.532-3.132 2.146-1.247-.275-2.29-.02-3.318.701-.325.228-.998.374-1.285.191-2.315-1.47-4.993-.601-7.599-1.454-.856 3.326-2.852 4.672-6.051 3.471-.982-.364-2.021-.971-2.638-1.777-.492-.646-.386-1.751-.539-2.629.608-.043 1.294.05 1.359-.116.241-.588.066-1.046-.763-.952-.27.027-.604-.146-.842-.33-2.613-2.004-4.062-1.852-6.287.649-.233.263-.562.611-.853.619-2.676.083-5.104 2.488-7.282.966-1.635.556-2.649.981-3.704 1.231-1.104.261-2.083.608-2.576 1.727.317 1.015 1.575 1.632 1.154 2.895-3.02-.526-4.097-1.533-2.36-4.631-1.243-2.444-1.243-2.444-4.811-1.004-.099 1.977-1.997 3.514-1.638 5.763.024.183-.27.46-.469.63-1.444 1.194-3.283.721-4.136-1.025-.146-.295-.436-.522-.909-1.082l-1.911 2.436c-1.583-1.316-3.337-1.663-5.111.197-.31.329-1.602.242-2.187.141-2.267-.392-4.808.222-4.808 2.212V59.854c0-.053 1.161-.096 1.666-.106 5.772-.087 11.943-.137 17.712-.203.733-.01 1.685.736 2.398.622 2.207-.364 2.866-1.167 1.781-3.167h-5.092c-4.763 0-9.525-.769-14.28-.643-3.812.094-6.605-1.856-8.842-4.839-3.846-5.119-7.771-10.348-11.684-15.414a32.525 32.525 0 0 0-2.173-2.562c-.623-.641-1.38-1.026-2.175-.335-.716.622-.42 1.295.008 1.94.659.992 1.308 1.98 2.021 2.929 3.957 5.256 7.967 10.468 11.893 15.744 1.381 1.85 1.503 2.148.262 3.289l-12.382 8.086c-.647-.452-1.307-.889-1.95-1.342-.629-.443-1.272-1.462-2.059-.659-.415.421-.468 1.521-.258 2.176 1.037 3.213 2.189 6.394 3.382 9.558.229.617.796 1.112 1.334 1.834.548-.604 1.1-.939 1.197-1.378.337-1.568-.124-3.15.121-4.738l9.12-6.449v1.841c0 4.317-1.999 8.946-3.42 13.407-.194.601.034 1.244.011 1.871-.042 1.181.843 1.829 1.939 2.124 1.018.275.867-.303 1.277-1.09.294-.552.192-1.081.192-1.669v163.725c0 .033-.003.11-.202.229-1.345.829-2.44 1.445-4.09 1.401-.428-.011-.824.504-1.138.91-.657.863-1.131 1.815-1.952 3.088.439.238.951.329 1.411.57-.292.586-.471 1.397-.744 1.397h1.442c.041 0 .054 1.669.114 2.373.064.687.18 1.454.272 2.139-2.771.357-2.733.434-4.687 2.594-.894.99-1.966 1.827-2.959 2.719-.917-.5-1.559-.819-2.182-1.183-2.286-1.344-3.176-1.039-4.66 1.212-1.831 2.77-3.073 5.764-3.696 8.993-.579 3.019-3.087 4.345-5.35 5.243-1.921.759-3.87.85-4.081 3.568-1.16-.107-2.143.077-3.118-.046-1.43-.181-1.617-1.611-1.984 2.389h5.176c-1.902 2-3.48 1.047-5.271 1.54-.754.208-1.692.604-2.446.813-.166-.149-.439-.223-.65-.385-.232.284-.489.586-.701.857-9.745 2.72-19.737 5.584-29.423 8.514-3.607 1.089-7.081 3.858-11.081 4.34V298h-3.464s-1.957 3.108-1.957 8c0 4.894 1.957 8 1.957 8H1142.3zM618 201.935v3.956c0-1.928-1.76-2.978-3.685-3.189.848-2.493-.315-2.493 3.685-.767zm-50.516-16.909c-.559-.414-1.116-.83-1.854-1.382 1.4-.296 1.4-.296 1.854 1.382zm-22.353-19.906c.058.153.191.435.172.449-.326.183-.664.334-1.005.49-.058-.104-.107-.203-.164-.308.331-.211.664-.42.997-.631zm-23.485 37.966c-.562 2.342-.631 2.386-2.597 1.449a580.758 580.758 0 0 1 2.597-1.449zm-10.111-2.783c.915.633.919.642.818 2.736 2.389-.265.983-2.142 1.269-3.498.794.568.75 1.424 1.813 1.72 1.17.328 2.113 2.022 2.803 3.311.33.611-.14 1.663-.27 2.687-.795-.173-1.526-.103-1.763-.417-1.206-1.557-2.536-1.49-4.086-.63-.242.138-.677-.065-1.023-.112.168-2.202.313-4.112.439-5.797zm-2.774 4.083c.344-.147.718-.23 1.081-.335l.188.572c-.371.141-.742.276-1.114.417-.057-.229-.194-.639-.155-.654zM125 74.103c4-3.76 4-7.527 4-11.431v179.377c0 1.004 0 2.146-4 2.441V74.103zm-11.097-5.802c-.1-.603-.532-1.301-.982-1.704-.088-.081-.195-.146-.291-.223l9.659-6.306c.31.736.406 1.613.994 2.108l-9.38 6.125z" />
</svg>
