<svg xmlns="http://www.w3.org/2000/svg" width="600" height="600" viewBox="0 0 600 600"><path fill="#333" d="M440.66 503.623c-37.244 27.625-83.357 43.979-133.295 43.979-49.83 0-95.85-16.283-133.053-43.807-2.219-1.639-3.664-2.645-7.814-2.605-4.977.055-9.986.193-15.012.422-3.443.158-4.756 2.441-2.24 4.439 41.338 32.766 93.602 52.35 150.453 52.35 57.363 0 110.059-19.941 151.57-53.246 2.777-2.23 1.854-3.275.078-3.371a568.802 568.802 0 0 0-4.082-.203c-3.22-.143-4.677.608-6.605 2.042zM82.359 408h.209c3.484 0 7.027.335 10.623.315 4.031-.02 6.041-1.401 4.27-6.153-9.096-24.41-14.08-50.872-14.08-78.415 0-40.583 10.807-78.691 29.684-111.539 4.236-7.369 1.703-10.571-1.324-13.53-3.027-2.961-6.223-6.11-9.393-9.168-2.145-2.072-7.686-3.091-11.115 2.675-21.576 36.236-33.979 78.555-33.979 123.794 0 30.844 5.77 60.291 16.273 87.471 1.352 3.499 2.666 4.55 8.832 4.55zM519.209 408.779c3.127-.004 4.928-.484 6.008-3.215 10.918-27.611 16.928-57.895 16.928-89.367 0-44.446-11.965-86.208-32.842-122.03-1.404-2.41-3.453-3.744-6.426-1.561-1.701 1.246-3.42 2.484-5.512 4.143-2.098 1.656-2.766 3.928-.869 6.91 22.064 34.707 34.852 76.07 34.852 120.235 0 28.205-5.229 55.377-14.748 80.258-1.063 2.786-.106 4.633 2.609 4.627z"/><path fill="#333" d="M545.83 487.82c-74.059-16.953-171.768-11.527-224.955 11.08-.752.322-1.166 1.051-1.182 1.863-.127 6.654-5.529 14.395-19.994 14.395-14.375 0-19.928-7.74-20.055-14.395a2.054 2.054 0 0 0-1.24-1.863c-53.189-22.607-150.9-28.033-224.955-11.08-10.16 2.59-10.223 6.104-9.139 9.424 1.035 3.168 4.646 5.416 11.305 3.594 58.959-16.121 144.684-22.846 219.768 1.264.893 9.881 9.941 16.486 24.316 16.486 14.465 0 23.363-6.605 24.256-16.486 75.084-24.109 160.779-17.385 219.738-1.264 6.658 1.822 10.254-.426 11.289-3.594 1.086-3.32 1.006-6.834-9.152-9.424z"/><path fill="#333" d="M541.986 466.406c-9.586-9.736-17.855-24.197-19.113-39.346-.279-3.375-.52-4.236-5.553-4.242-32.047.428-68.766 5.338-106.709 14.271-39.807 9.371-77.854 22.514-110.332 38.023-.236.109-.656.158-1.062-.035-32.467-15.49-70.402-28.621-110.182-37.988-37.943-8.934-74.621-13.844-106.67-14.271-5.031.006-5.25.867-5.529 4.242-1.256 15.148-9.516 29.609-19.104 39.346-2.256 2.285-.725 4.678 1.596 4.471 12.541-1.119 31.773-2.057 52.371-2.057 80.352 0 125.854 9.52 187.021 28.262a3.69 3.69 0 0 0 2.123 0c61.164-18.742 106.834-28.262 187.186-28.262 20.596 0 39.826.938 52.367 2.057 2.321.207 3.848-2.186 1.59-4.471z"/><g fill="#333"><path d="M163.9 161.611c-2.334-2.178-5.061-3.689-8.107-4.492-2.898-.764-6.002-1.195-9.223-1.279a85.81 85.81 0 0 0-9.664.301c-3.15.277-6.236.434-9.172.463-2.854.035-5.535-.195-7.965-.68-2.268-.451-4.133-1.379-5.701-2.842-.971-.904-1.73-1.873-2.256-2.877a7.408 7.408 0 0 1-.859-2.988c-.064-1.006.113-2.051.527-3.102.426-1.09 1.143-2.176 2.123-3.23 1.643-1.758 3.799-3.252 6.889-3.533 1.947-.168 4.092.252 5.564.906a1.637 1.637 0 0 0 1.84-.381l.76-.818a1.617 1.617 0 0 0-.037-2.244l-6.684-6.713a1.62 1.62 0 0 0-1.791-.344c-1.666.723-3.582 1.566-5.053 2.373a32.837 32.837 0 0 0-3.486 2.25c-1.24.912-2.484 2.031-3.695 3.33a20.569 20.569 0 0 0-3.982 6.205 20.018 20.018 0 0 0-1.518 7.205c-.059 2.484.391 4.965 1.332 7.367.949 2.434 2.508 4.668 4.629 6.646 1.984 1.848 4.125 3.26 6.361 4.199a28.236 28.236 0 0 0 6.809 1.906 39.33 39.33 0 0 0 7.016.406c2.305-.068 4.631-.197 6.912-.387 2.271-.184 4.523-.35 6.684-.484a41.517 41.517 0 0 1 6.135.059c1.898.168 3.729.564 5.443 1.174 1.633.59 3.162 1.539 4.549 2.83.951.887 1.682 1.873 2.172 2.934a7.86 7.86 0 0 1 .74 3.24c.01 1.129-.221 2.287-.691 3.439-.469 1.164-1.232 2.316-2.266 3.424-2.041 2.189-4.58 3.742-8.125 4.076-3.221.299-6.439-.838-8.422-1.971a1.61 1.61 0 0 0-1.99.283l-.865.916a1.616 1.616 0 0 0-.035 2.166l7.389 8.475c.344.396.852.594 1.363.549 1.697-.148 5.977-1.963 7.707-2.861a37.686 37.686 0 0 0 4.438-2.738 29.312 29.312 0 0 0 4.379-3.869c2.486-2.67 4.242-5.432 5.213-8.207.973-2.779 1.354-5.496 1.133-8.072a18.734 18.734 0 0 0-2.137-7.25c-1.179-2.213-2.652-4.153-4.383-5.76zM395.652 78.589c-.582-3.008-1.738-5.744-3.445-8.135-1.695-2.373-3.898-4.402-6.549-6.023-2.615-1.6-5.625-2.785-8.936-3.518-3.443-.764-6.363-1.238-8.684-1.412-2.166-.17-3.871-.387-5.074-.652-2.869-.635-3.613-.859-6.324-1.752-1.094-.363-2.244.5-2.16 1.828.104 1.76-.09 4.193-.369 6.299a98.703 98.703 0 0 1-.895 5.402 221.42 221.42 0 0 1-1.512 7.289L344.6 110a248.704 248.704 0 0 1-1.705 7.248 104.47 104.47 0 0 1-1.467 5.242c-.746 2.369-1.342 4.039-2.322 5.844-.529.98-.17 2.275 1.027 2.545l11.828 2.619c1.322.293 2.064-.922 2.004-1.871-.105-1.764.07-4.053.387-6.258.213-1.506.516-3.324.887-5.402.373-2.061.873-4.512 1.486-7.283l1.416-6.389c3.605 1.205 7.217 1.879 10.768 2.002 4.17.145 8.086-.49 11.639-1.891 3.588-1.414 6.729-3.645 9.336-6.627 2.615-2.992 4.459-6.854 5.482-11.469.765-3.455.864-6.723.286-9.721zm-35.966 20.729l7.311-33.006c2.059-.031 5.197.424 7.053.836 1.979.436 3.631 1.186 4.92 2.232a9.86 9.86 0 0 1 2.91 3.852c.68 1.582 1.057 3.439 1.125 5.535.07 2.166-.178 4.539-.732 7.057-.803 3.623-1.988 6.596-3.521 8.838-1.494 2.184-3.268 3.805-5.275 4.807-2.012 1.01-4.291 1.465-6.789 1.359-2.208-.092-4.555-.598-7.002-1.51zM496.002 138.515l-3.686-3.076a1.611 1.611 0 0 0-1.646-.254l-59.43 24.287 13.023-62.988a1.625 1.625 0 0 0-.551-1.572l-4.926-4.107a1.62 1.62 0 0 0-2.16.084c-.68.654-6.055 5.734-7.898 7.428a1890.787 1890.787 0 0 1-6.219 5.688l-7.09 6.449c-2.451 2.23-4.943 4.484-7.482 6.77-2.539 2.283-5.033 4.51-7.475 6.68a2979.956 2979.956 0 0 1-7.018 6.205 3094.843 3094.843 0 0 1-6.025 5.307c-1.85 1.588-3.588 2.592-5.318 3.072-1.164.33-1.891 1.984-.725 2.953l7.76 6.469a1.605 1.605 0 0 0 2.439-.453c.879-1.562 2.564-3.977 3.93-5.609.551-.658 1.488-1.66 2.799-2.971a244.776 244.776 0 0 1 4.715-4.596 582.592 582.592 0 0 1 5.896-5.541l6.402-5.941c3.955-3.662 8.262-7.592 12.855-11.719l-11.932 57.531a1.624 1.624 0 0 0 .412 1.443l2.42 2.541a1.605 1.605 0 0 0 1.779.383l54.119-22.066-23.363 36.992c-.844 1.318-1.799 2.74-3.449 4.123-.746.623-1.082.814-1.193.869-1.023.492-1.512 1.979-.463 2.852l9.771 8.152c.926.771 2.527.275 2.762-1.131.303-1.812 1.537-4.391 2.764-6.645a69.618 69.618 0 0 1 2.475-4.129l32.062-51.383a1.611 1.611 0 0 0-.334-2.097zM226.779 99.441c-3.061-5.975-6.602-10.637-10.527-13.855-3.945-3.23-8.195-5.371-12.635-6.357-4.414-.98-9.025-.986-13.691-.018-4.596.957-9.18 2.596-13.631 4.875a181.452 181.452 0 0 0-5.199 2.775c-1.82 1.008-3.568 1.98-5.252 2.918a424.929 424.929 0 0 0-4.494 2.529c-3.156 1.799-4.094 2.174-7.619 3.783-.938.432-1.117 1.656-.357 2.469 1.473 1.58 2.621 3.32 3.812 5.223.814 1.303 5.018 8.924 6.309 11.447l15.02 29.342a251.364 251.364 0 0 1 3.316 6.693 103.542 103.542 0 0 1 2.223 5.004c1.023 2.512 1.607 4.287 1.951 6.033.229 1.156 1.309 1.615 2.158 1.184 1.312-.674 7.037-3.246 8.5-3.9 1.76-.787 8.498-3.895 9.715-4.516a66.663 66.663 0 0 0 9.57-5.947c2.951-2.213 5.584-4.684 7.824-7.352a38.319 38.319 0 0 0 5.527-8.711c1.428-3.119 2.332-6.498 2.693-10.043.357-3.531.123-7.309-.693-11.242-.813-3.914-2.334-8.063-4.52-12.334zm-6.011 27.469c-.242 2.676-.891 5.113-1.926 7.24a25.041 25.041 0 0 1-3.938 5.865 30.31 30.31 0 0 1-5.328 4.652 55.057 55.057 0 0 1-6.09 3.645c-1.828.939-5.191 2.418-7.104 3.137a289.542 289.542 0 0 1-3.217-5.674 565.806 565.806 0 0 1-4.619-8.525c-1.584-2.98-3.119-5.887-4.609-8.725a989.08 989.08 0 0 1-5.441-10.574s-5.439-10.941-6.1-12.305l-4.246-8.688c1.898-1.154 7.656-4.504 9.32-5.354 3.932-2.012 7.762-3.199 11.385-3.525 3.574-.326 7.004.158 10.184 1.426 3.207 1.285 6.25 3.391 9.045 6.25 2.834 2.904 5.428 6.633 7.703 11.08 2.057 4.02 3.48 7.734 4.23 11.051.745 3.291.997 6.326.751 9.024zM319.441 124.412c-.428-.436-2.092-2.711-2.775-3.707a86.818 86.818 0 0 1-2.234-3.426 82.277 82.277 0 0 1-2.334-3.967L279.166 54.16a1.425 1.425 0 0 0-1.385-.732l-4.035.365a1.43 1.43 0 0 0-1.227.959l-23.127 66.707c-.84 2.502-1.639 4.611-2.375 6.264-.881 1.988-1.453 2.893-1.775 3.303-.23.291-.324.67-.305 1.021.051.922.609 1.506 1.443 1.508.045 0 10.422-.932 10.422-.932.893-.078 1.438-.916 1.283-1.764-.043-.242-.107-.484-.248-.689-.17-.373-.582-2.252.199-4.984.438-1.523.85-2.928 1.23-4.174l4.312-12.973c1.73-.203 3.65-.4 5.723-.586l17.824-1.605c2.623-.236 4.828-.41 6.578-.518l6.889 12.357c.932 1.729 1.588 3.184 1.961 4.326.41 1.277.709 2.652.701 3.875-.004.412-.084.586-.078.912.01.764.568 1.596 1.578 1.504l13.818-1.246c.836-.074 1.426-.754 1.283-1.762-.035-.259-.132-.607-.414-.884zM289.73 98.193c-.875.094-1.797.188-2.773.283 0 0-15.727 1.545-17.672 1.719l-3.27.297 9.305-28.275 14.41 25.976z"/></g><path fill="#3FA9F5" d="M508.148 192.626zM507.758 192.271zM509.273 226.666a223.208 223.208 0 0 0-12.418-22.432l-.006.01a222.821 222.821 0 0 1 12.42 22.43l.004-.008zM508.635 193.179l-.115-.145.115.145z"/><g fill="#D8983D"><path d="M260.305 341.645l-131.686-62.463c-5.922-2.805-13.002-.289-15.811 5.639-2.811 5.922-.285 12.998 5.637 15.812l131.686 62.459c5.926 2.809 12.998.287 15.811-5.641 2.808-5.916.285-12.998-5.637-15.806zM353.887 341.645l131.686-62.463c5.922-2.805 13.002-.289 15.811 5.639 2.809 5.922.283 12.998-5.637 15.812l-131.688 62.459c-5.924 2.809-12.998.287-15.809-5.641-2.809-5.916-.285-12.998 5.637-15.806zM251.557 371.154s-3.053-.824-4.506-1.512c0 0-27.664-13.162-30.551-14.5-2.721-1.258-4.045-.635-3.531 2.795 2.396 15.961 13.85 29.861 30.434 34.787 0 0 31.141 9.281 33.336 9.896 2.199.619 4.035.4 5.832-2.086 1.797-2.488 2.127-5.447 1.566-8.256l-1.793-9c-.367-1.834-1.5-3.449-3.93-4.168l-26.857-7.956zM267.676 310.965c-12.559-3.727-25.465-1.535-35.645 4.99-2.439 1.561-2.061 3.355.328 4.48 1.258.594 19.639 9.262 21.734 10.307 1.18.59 4.451 1.506 7.037 2.27 0 0 16.998 5.113 18.68 5.564 1.682.457 3.594.693 4.885-1.555 1.291-2.25 3.639-6.305 4.295-7.701.654-1.402 1.707-3.098 1.896-6.393.189-3.301-1.215-5.432-3.809-6.199-2.593-.773-19.401-5.763-19.401-5.763zM367.143 369.582c-1.682.799-5.229 1.615-5.229 1.615s-18.385 4.684-20.268 5.238c-1.879.551-2.617 1.562-2.488 3.484.129 1.918.342 4.623.596 7.285.252 2.656 1.393 4.891 3.248 5.693 1.855.797 4.521 1.918 6.721 2.705a13.859 13.859 0 0 0 7.34.574c2.648-.504 12.252-3.146 12.252-3.146 17.357-4.559 29.508-18.953 31.809-35.6.389-2.789-1.254-3.443-3.842-2.141-2.294 1.152-30.139 14.293-30.139 14.293zM359.793 330.887c2.752-1.275 21.334-10.1 22.973-10.898 2.061-.996 1.299-2.686-.045-3.588-9.91-6.65-22.574-9.143-35.08-5.857 0 0-26.539 6.84-28.936 7.562-2.396.725-3.148 1.934-3.492 3.285-.342 1.348-.908 4.42-.584 2.805.322-1.609-.064 3.266.768 4.777.834 1.518 5.119 8.658 5.732 9.6.611.941 1.543 2.189 4.59 1.447 3.049-.75 27.766-7.23 27.766-7.23 1.158-.304 3.552-.626 6.308-1.903zM328.029 379.514c-1.975.133-18.918 1.289-20.479 1.447-1.564.158-2.332 1.129-1.871 2.715.465 1.586 4.816 16.482 5.258 17.979.441 1.506 1.283 2.77 2.596 2.682 1.314-.096 1.439-.115 2.756-.193 1.318-.084 2.848-1.324 3.475-2.568.623-1.248 9.105-18.086 9.791-19.484.689-1.395.451-2.717-1.526-2.578zM309.371 310.008c.869-.639 3.939-3.111 4.77-3.766.83-.648 1.234-1.293.137-1.451a132.773 132.773 0 0 0-3.967-.477c-.91-.1-1.713.094-1.818 1.467-.109 1.367-.246 2.166-.266 3.113-.022.952.273 1.758 1.144 1.114zM297.838 420.688c-.197 1.066-.756 4.967-.918 6.012-.162 1.041-.02 1.789.891 1.15.912-.635 2.496-1.805 3.227-2.355.73-.549 1.186-1.238.328-2.312-.855-1.07-1.303-1.75-1.934-2.459s-1.399-1.101-1.594-.036zM324.434 411.744c-.896-.199-1.494-.055-1.869 1.908-.373 1.957-3.285 17.299-3.582 18.795-.295 1.496-.201 2.646 1.668 2.811 1.867.162 7.6.668 9.256.729 1.656.055 2.311-.941 1.879-2.553-.43-1.605-4.629-17.344-5.09-19.107-.466-1.766-1.368-2.386-2.262-2.583zM293.791 343.943c-.4.48-3.676 4.268-4.455 5.168-.777.902-.111 1.76.674 1.889.785.133 1.58.213 2.26.271.682.061 1.238-.127 1.461-1.332.219-1.199.797-4.459.947-5.584.15-1.13-.487-.898-.887-.412zM292.76 386.154c.098-.619.967-5.545 1.172-6.725.205-1.17-.805-1.566-1.547-1.273a26.11 26.11 0 0 0-2.082.926c-.615.297-.994.748-.566 1.893.426 1.145 1.604 4.238 2.053 5.283.448 1.041.876.519.97-.104zM304.357 331.219c.311 3.24 1.654 18.205 1.971 20.965.318 2.762 1.078 3.652 1.873 4.139 2 1.225 2.951 1.367 3.771.465.725-.797 1.324-1.422 1.854-2.209.709-1.047 1.045-2.814.496-4.217-.551-1.408-7.561-18.049-8.436-19.951-.503-1.1-1.757-1.538-1.529.808zM298.156 308.115c.045-2.641.238-10.668.232-11.809-.008-1.135-.49-1.902-1.867-2.027-1.375-.123-5.51-.291-7.066-.326-1.371-.035-1.869.812-1.285 1.674.867 1.285 7.586 11.647 8.33 12.782.848 1.298 1.625 1.427 1.656-.294zM342.209 414.365c1.643 2.066 6.6 8.389 7.326 9.262.729.871 1.59 1.154 2.73.377 1.141-.779 4.439-3.281 5.664-4.238 1.08-.846.926-1.818-.074-2.109-1.484-.441-13.262-4.168-14.555-4.574-1.48-.462-2.161-.065-1.091 1.282zM284.111 412.512c-1.639 2.072-6.67 8.336-7.354 9.236-.684.908-.766 1.814.25 2.746 1.018.936 4.201 3.578 5.416 4.555 1.07.861 1.979.49 2.041-.551.086-1.547 1.043-13.861 1.143-15.213.114-1.551-.425-2.121-1.496-.773zM114.15 247.558c1.961 2.445 24.258 30.096 24.258 30.096l5.725 5s23.158 11.006 24.26 11.512c2.418 1.115 3.316.734 3.072-1.943a42.667 42.667 0 0 0-9.312-22.943s-35.055-43.414-36.221-44.881c-1.379-1.729-2.809-1.971-3.994.219-3.113 5.75-5.67 11.24-8.346 17.512-.869 2.036-.752 3.789.558 5.428zM501.297 241.806c-2.574-6.17-5.771-12.738-9.342-18.805-.6-1.02-1.908-.994-2.635-.061-.598.764-31.777 39.555-31.777 39.555a42.635 42.635 0 0 0-9.258 22.443c-.32 3.102 1.02 3.24 2.926 2.486 0 0 23.721-11.219 25.273-11.992 1.545-.771 2.225-1.367 3.352-2.76.953-1.184 15.34-19.211 21.217-26.502 1.181-1.465 1.025-2.495.244-4.364zM517.352 320.51c-.119-7.633-.725-16.947-1.982-26.528-.268-2.037-2.086-2.031-3.281-.506-1.088 1.398-6.496 7.756-6.496 7.756-1.973 2.602-3.857 4.227-7.129 5.777 0 0-29.279 13.801-31.008 14.729-1.943 1.035-1.824 2.398-.09 3.527 14.922 9.703 34.227 8.936 48.346-1.248 1.202-.872 1.669-1.601 1.64-3.507zM109 301.723c-1.238-1.397-5.102-6.239-7.385-9.114-.629-.793-1.992-.59-2.154.551a212.072 212.072 0 0 0-2.143 28.247c-.012 1.428.389 2.086 1.271 2.715 14.172 10.129 33.48 10.818 48.375.986 1.479-.977 1.258-2.527-.158-3.285l-31.289-14.812c-2.601-1.24-4.38-2.874-6.517-5.288z"/></g><path fill="#3FA9F5" d="M508.984 193.66c-.033-.049-.068-.098-.102-.146.034.048.069.097.102.146z"/></svg>