<svg xmlns="http://www.w3.org/2000/svg" width="300" height="300" viewBox="0 0 300 300"><path fill="#333" d="M225.158 259.956c-19.728 14.635-44.15 23.296-70.601 23.296-26.394 0-50.769-8.626-70.475-23.204-1.175-.867-1.939-1.401-4.138-1.379a221.53 221.53 0 0 0-7.953.225c-1.824.081-2.518 1.292-1.186 2.35 21.896 17.354 49.578 27.729 79.69 27.729 30.382 0 58.294-10.562 80.282-28.204 1.472-1.179.982-1.735.041-1.785-.721-.037-1.442-.074-2.162-.106-1.705-.078-2.474.319-3.498 1.078zM35.379 212.5h.111c1.846 0 3.723-1.418 5.626-1.428 2.135-.01 3.201-1.545 2.263-4.062-4.819-12.926-7.458-27.338-7.458-41.926 0-21.501 5.723-41.883 15.723-59.279 2.244-3.904.901-5.701-.701-7.269-1.604-1.567-3.296-3.282-4.975-4.903-1.137-1.097-4.072-1.663-5.889 1.39-11.428 19.195-17.997 41.596-17.997 65.559 0 16.336 3.056 33.521 8.621 47.92.713 1.852 1.409 3.998 4.676 3.998zM266.765 209.723c1.654-.005 2.61-.257 3.183-1.705 5.781-14.623 8.965-30.665 8.965-47.336 0-23.541-6.337-45.658-17.395-64.633-.744-1.276-1.829-1.983-3.404-.827-.899.661-1.811 1.316-2.92 2.194s-1.463 2.079-.459 3.658c11.686 18.386 18.46 40.294 18.46 63.684 0 14.942-2.769 29.335-7.812 42.513-.564 1.473-.057 2.455 1.382 2.452z"/><path fill="#333" d="M280.865 251.587c-39.226-8.981-90.98-6.104-119.151 5.868-.399.171-.618.557-.627.988-.066 3.524-2.929 7.624-10.59 7.624-7.614 0-10.556-4.1-10.622-7.624a1.093 1.093 0 0 0-.657-.988c-28.173-11.973-79.927-14.85-119.152-5.868-5.381 1.372-5.414 3.233-4.84 4.991.549 1.679 2.461 2.869 5.987 1.904 31.229-8.541 76.636-12.1 116.404.669.473 5.234 5.266 8.731 12.88 8.731 7.661 0 12.375-3.497 12.847-8.731 39.768-12.769 85.159-9.21 116.389-.669 3.527.965 5.432-.226 5.981-1.904.573-1.758.531-3.619-4.849-4.991z"/><path fill="#333" d="M278.829 240.244c-5.077-5.157-9.46-12.817-10.124-20.839-.147-1.789-.275-2.246-2.941-2.246-16.974.224-36.421 2.824-56.521 7.557-21.086 4.965-41.235 11.927-58.438 20.139a.676.676 0 0 1-.564-.018c-17.195-8.205-37.288-15.16-58.359-20.121-20.098-4.732-39.523-7.333-56.499-7.557-2.665 0-2.78.457-2.928 2.246-.666 8.021-5.042 15.682-10.12 20.839-1.193 1.213-.383 2.478.846 2.368 6.642-.592 16.83-1.089 27.739-1.089 42.56 0 66.661 5.043 99.06 14.97.233.071.669.14 1.122 0 32.399-9.927 56.59-14.97 99.147-14.97 10.909 0 21.098.497 27.738 1.089 1.228.11 2.036-1.155.842-2.368z"/><g fill="#333"><path d="M91.577 71.876a14.72 14.72 0 0 0-6.018-4.059c-2.212-.796-4.604-1.346-7.111-1.632a67.646 67.646 0 0 0-7.562-.427c-2.479 0-4.897-.089-7.189-.265-2.229-.171-4.306-.532-6.169-1.075-1.738-.508-3.131-1.36-4.254-2.609-.696-.772-1.224-1.581-1.565-2.4a5.856 5.856 0 0 1-.466-2.39c.02-.789.229-1.592.624-2.387.409-.819 1.04-1.618 1.88-2.373 1.399-1.26 3.187-2.277 5.617-2.285 1.53 0 3.176.478 4.28 1.085.475.259 1.06.191 1.462-.17l.647-.584a1.267 1.267 0 0 0 .125-1.756l-4.755-5.696a1.27 1.27 0 0 0-1.377-.391c-1.348.451-2.901.975-4.104 1.505-.9.397-1.866.907-2.875 1.519a20.983 20.983 0 0 0-3.114 2.347 16.152 16.152 0 0 0-3.53 4.568 15.66 15.66 0 0 0-1.678 5.518 14.853 14.853 0 0 0 .536 5.843c.574 1.962 1.637 3.812 3.156 5.5 1.423 1.579 2.995 2.83 4.677 3.715a22.287 22.287 0 0 0 5.184 1.955c1.765.422 3.598.691 5.446.798 1.803.104 3.627.161 5.422.17 1.787.011 3.552.037 5.248.08 1.66.042 3.269.198 4.785.466 1.469.259 2.87.692 4.165 1.289 1.234.568 2.364 1.416 3.357 2.521.681.756 1.185 1.577 1.494 2.438.304.845.424 1.713.355 2.58-.069.882-.329 1.769-.772 2.636-.446.876-1.121 1.722-2.004 2.517-1.744 1.57-3.831 2.605-6.621 2.623-2.534.017-4.969-1.092-6.436-2.113a1.271 1.271 0 0 0-1.575.085l-.737.657a1.267 1.267 0 0 0-.175 1.687l5.186 7.121c.24.33.623.521 1.025.521 1.335 0 4.8-1.123 6.213-1.705a29.244 29.244 0 0 0 3.649-1.834 22.93 22.93 0 0 0 3.682-2.72c2.124-1.914 3.682-3.948 4.631-6.049.948-2.102 1.433-4.195 1.437-6.221a14.654 14.654 0 0 0-1.172-5.805c-.767-1.808-1.784-3.423-3.024-4.798zM148.951 17.716c-1.389-1.964-3.104-3.548-5.101-4.704-1.985-1.152-4.219-1.89-6.639-2.189-2.391-.297-4.927-.171-7.535.377-2.71.569-4.956 1.176-6.674 1.8-1.602.584-2.895.98-3.842 1.18-2.258.475-2.862.555-5.093.794-.901.097-1.443 1.086-.955 2.01.647 1.227 1.297 3.03 1.778 4.628a80.868 80.868 0 0 1 1.112 4.153c.394 1.617.823 3.538 1.28 5.707l5.308 25.264c.456 2.168.835 4.099 1.127 5.739.288 1.625.507 3.047.65 4.229.232 1.938.345 3.324.23 4.936-.062.872.613 1.682 1.56 1.487l9.313-1.957c1.043-.221 1.18-1.329.828-1.99-.646-1.227-1.263-2.921-1.752-4.601-.333-1.15-.709-2.549-1.113-4.155a155.573 155.573 0 0 1-1.298-5.695l-1.057-5.03c2.971-.303 5.774-.993 8.354-2.055 3.032-1.247 5.628-2.971 7.719-5.124 2.109-2.174 3.635-4.788 4.533-7.769.903-2.99.972-6.351.209-9.983-.569-2.723-1.559-5.094-2.942-7.052zm-19.024 26.486l-5.461-25.988c1.463-.691 3.857-1.38 5.317-1.688 1.557-.328 2.982-.325 4.243.006a7.754 7.754 0 0 1 3.333 1.813c.996.909 1.87 2.12 2.599 3.596.751 1.527 1.343 3.306 1.759 5.287.599 2.852.716 5.365.346 7.468-.361 2.048-1.107 3.779-2.219 5.149-1.113 1.37-2.598 2.438-4.417 3.17-1.607.648-3.454 1.046-5.5 1.187zM252.837 43.866l-3.429-1.561a1.262 1.262 0 0 0-1.302.149l-39.952 30.734-3.227-50.4a1.27 1.27 0 0 0-.74-1.074l-4.584-2.085a1.27 1.27 0 0 0-1.618.509c-.378.64-3.394 5.602-4.437 7.269a1491.066 1491.066 0 0 1-3.529 5.599l-4.027 6.357a1300.507 1300.507 0 0 1-4.261 6.678 1065.442 1065.442 0 0 1-4.269 6.609 2551.015 2551.015 0 0 1-7.487 11.426c-1.069 1.589-2.177 2.709-3.385 3.433-.814.491-1.021 1.895.063 2.39l7.217 3.284a1.267 1.267 0 0 0 1.758-.852c.336-1.365 1.114-3.542 1.807-5.063.279-.615.783-1.566 1.502-2.832a208.7 208.7 0 0 1 2.613-4.459 520.48 520.48 0 0 1 3.316-5.42l3.612-5.829a952.046 952.046 0 0 1 7.297-11.544l2.923 46.042c.025.416.254.793.611 1.007l2.358 1.422a1.27 1.27 0 0 0 1.429-.08l36.391-27.953-10.001 32.863c-.367 1.173-.797 2.447-1.758 3.836-.436.629-.651.845-.725.907-.672.588-.731 1.813.244 2.257l9.094 4.141c.86.392 1.968-.315 1.854-1.427-.146-1.438.252-3.646.711-5.609a51.931 51.931 0 0 1 1.017-3.637l13.602-45.569a1.267 1.267 0 0 0-.688-1.518z"/></g><path fill="#3FA9F5" d="M260.905 95.231l.044.045-.044-.045zM260.697 95.044c-.018-.013-.035-.024-.052-.038.017.014.035.025.052.038zM261.5 113.262a118.022 118.022 0 0 0-6.575-11.88l-.003.004a117.31 117.31 0 0 1 6.576 11.88l.002-.004zM261.163 95.525c-.02-.024-.039-.051-.062-.076.023.026.043.052.062.076z"/><g fill="#C79546"><path d="M125.57 174.162l-69.75-33.085a6.288 6.288 0 0 0-5.389 11.36l69.75 33.085a6.287 6.287 0 0 0 5.389-11.36zM175.136 174.162l69.752-33.085a6.287 6.287 0 0 1 5.388 11.36l-69.748 33.085a6.29 6.29 0 0 1-8.377-2.985 6.29 6.29 0 0 1 2.985-8.375zM120.936 189.791s-1.616-.437-2.385-.8c0 0-14.653-6.972-16.183-7.679-1.441-.667-2.143-.338-1.87 1.478 1.268 8.457 7.335 15.819 16.119 18.428 0 0 16.494 4.916 17.658 5.242 1.164.325 2.136.21 3.088-1.106s1.127-2.884.83-4.373l-.949-4.765c-.194-.973-.795-1.827-2.081-2.207l-14.227-4.218zM129.474 157.913c-6.652-1.975-13.486-.815-18.879 2.642-1.293.828-1.092 1.776.174 2.373.666.314 10.402 4.907 11.512 5.461.625.311 2.357.795 3.727 1.202 0 0 9.004 2.707 9.895 2.948.891.239 1.904.366 2.589-.826.683-1.192 1.926-3.337 2.274-4.08.347-.742.904-1.638 1.004-3.386.099-1.747-.644-2.875-2.018-3.284l-10.278-3.05zM182.158 188.962c-.891.421-2.77.854-2.77.854s-9.738 2.48-10.733 2.771c-.996.294-1.388.829-1.318 1.846.068 1.017.182 2.45.316 3.859.133 1.409.734 2.591 1.719 3.015.983.424 2.396 1.017 3.561 1.434a7.37 7.37 0 0 0 3.888.306c1.402-.269 6.488-1.666 6.488-1.666 9.194-2.415 15.629-10.041 16.849-18.857.205-1.479-.665-1.824-2.035-1.135-1.215.611-15.965 7.573-15.965 7.573zM178.266 168.464c1.459-.676 11.301-5.349 12.17-5.771 1.09-.53.687-1.425-.024-1.902-5.25-3.521-11.956-4.842-18.583-3.102 0 0-14.057 3.621-15.325 4.005-1.27.384-1.669 1.022-1.85 1.738-.181.718-.481 2.343-.31 1.487.171-.854-.034 1.729.407 2.531.44.801 2.711 4.584 3.035 5.083.324.498.815 1.159 2.432.766 1.615-.395 14.706-3.829 14.706-3.829.613-.16 1.884-.328 3.342-1.006zM161.443 194.219c-1.047.071-10.022.683-10.849.767-.827.084-1.235.6-.99 1.44.245.84 2.55 8.728 2.785 9.522.233.795.679 1.469 1.374 1.418.697-.048.764-.06 1.459-.102.698-.045 1.509-.701 1.841-1.36.332-.66 4.823-9.58 5.188-10.319.364-.737.239-1.439-.808-1.366zM151.559 157.406c.461-.341 2.087-1.648 2.526-1.995.439-.345.655-.685.071-.769a75.791 75.791 0 0 0-2.099-.254c-.481-.052-.906.052-.965.777-.056.726-.128 1.147-.14 1.651-.011.502.147.931.607.59zM145.45 216.03c-.104.563-.399 2.629-.486 3.182s-.01.949.473.611 1.321-.957 1.709-1.248c.386-.292.628-.656.172-1.226-.452-.569-.688-.928-1.022-1.302-.336-.375-.741-.581-.846-.017zM159.536 211.29c-.475-.104-.792-.03-.989 1.011-.196 1.04-1.739 9.163-1.896 9.956-.158.793-.106 1.402.884 1.489.989.085 4.024.354 4.901.384s1.223-.497.996-1.35a8785.49 8785.49 0 0 1-2.696-10.122c-.248-.932-.725-1.262-1.2-1.368zM143.307 175.378c-.212.256-1.947 2.261-2.359 2.738-.412.479-.06.933.356 1.002s.838.112 1.198.145c.36.031.654-.069.772-.706.116-.639.423-2.362.502-2.959.079-.598-.256-.477-.469-.22zM142.761 197.738c.051-.331.512-2.938.62-3.562.107-.622-.427-.829-.819-.676s-.776.332-1.102.49c-.326.157-.527.396-.301 1.003.227.605.849 2.244 1.087 2.796.237.557.465.278.515-.051zM148.903 168.64c.166 1.718.875 9.642 1.043 11.104.17 1.462.573 1.935.993 2.191 1.059.649 1.563.726 1.998.248.383-.421.7-.756.981-1.17.375-.557.554-1.49.263-2.235-.29-.744-4.004-9.56-4.468-10.566-.268-.584-.93-.813-.81.428zM145.618 156.402c.025-1.399.127-5.652.123-6.253-.003-.603-.26-1.008-.987-1.076-.729-.065-2.92-.151-3.743-.173-.728-.017-.99.432-.681.889.459.678 4.018 6.168 4.412 6.77.448.687.862.755.876-.157zM168.952 212.678c.871 1.096 3.496 4.445 3.881 4.906.385.464.842.613 1.446.202.604-.413 2.35-1.738 3-2.247.572-.447.491-.961-.039-1.117-.787-.231-7.023-2.205-7.711-2.421-.783-.245-1.143-.035-.577.677zM138.181 211.697c-.869 1.098-3.534 4.415-3.896 4.895s-.404.958.133 1.453c.539.494 2.227 1.896 2.869 2.411.565.456 1.047.26 1.08-.291.046-.819.553-7.341.605-8.059.061-.82-.226-1.123-.791-.409zM51.01 127.897a9346.14 9346.14 0 0 0 7.078 8.775l3.031 2.65s12.267 5.828 12.85 6.097c1.281.59 1.756.386 1.626-1.03a22.593 22.593 0 0 0-4.931-12.15s-13.013-16.137-13.637-16.909c-1-1.245-1.974-1.084-2.652.305-1.4 2.862-2.676 5.78-3.822 8.748-.532 1.372-.476 2.35.457 3.514zM45.43 153.019c-.794-1.188-1.67-1.128-1.814.268-.39 3.796-.59 7.62-.59 11.457 0 1.68.235 2.169 1.541 2.698 6.745 2.735 14.617 2.155 20.972-2.04.87-.574.828-1.293-.037-1.717-.551-.269-16.62-7.869-16.62-7.869-1.38-.654-2.356-1.565-3.452-2.797zM255.89 118.029a110.425 110.425 0 0 0-5.164-9.88c-.316-.539-.785-.604-1.171-.109-.314.404-19.512 24.199-19.512 24.199a22.567 22.567 0 0 0-4.906 11.891c-.17 1.64.541 1.714 1.55 1.314 0 0 12.565-5.94 13.387-6.353.818-.41 1.178-.721 1.776-1.462l13.775-17.081c.626-.775.715-1.544.265-2.519zM265.247 160.654c.566-.623.716-1.233.654-2.3a112.567 112.567 0 0 0-1.678-14.005c-.196-1.069-1.104-1.077-1.739-.268-.577.739-6.993 8.674-6.993 8.674-1.046 1.38-2.043 2.239-3.776 3.06 0 0-15.506 7.311-16.425 7.801-1.028.55-.967 1.272-.047 1.869 9.606 6.249 22.64 4.302 30.004-4.831z"/></g><path fill="#3FA9F5" d="M261.349 95.78l-.054-.077c.017.026.036.051.054.077z"/></svg>